<mxfile host="app.diagrams.net" modified="2023-11-01T16:39:08.319Z" agent="Mozilla/5.0 (Windows NT 10.0; Win64; x64) AppleWebKit/537.36 (KHTML, like Gecko) Chrome/119.0.0.0 Safari/537.36" etag="tUngEDSp1ly_v_XtbCTM" version="22.0.8" type="google">
  <diagram name="Page-1" id="1uKaUGo6a-hfNMBAk87H">
    <mxGraphModel grid="1" page="1" gridSize="10" guides="1" tooltips="1" connect="1" arrows="1" fold="1" pageScale="1" pageWidth="850" pageHeight="1100" math="0" shadow="0">
      <root>
        <mxCell id="0" />
        <mxCell id="1" parent="0" />
        <mxCell id="xiao-1Fs6jaPxQUdxkGS-1" value="Web Browser" style="swimlane;whiteSpace=wrap;html=1;" vertex="1" parent="1">
          <mxGeometry x="40" y="40" width="760" height="570" as="geometry" />
        </mxCell>
        <mxCell id="xiao-1Fs6jaPxQUdxkGS-3" value="" style="rounded=0;whiteSpace=wrap;html=1;" vertex="1" parent="xiao-1Fs6jaPxQUdxkGS-1">
          <mxGeometry x="20" y="40" width="720" height="150" as="geometry" />
        </mxCell>
        <mxCell id="xiao-1Fs6jaPxQUdxkGS-4" value="Semester Title" style="text;html=1;strokeColor=none;fillColor=none;align=left;verticalAlign=middle;whiteSpace=wrap;rounded=0;" vertex="1" parent="xiao-1Fs6jaPxQUdxkGS-1">
          <mxGeometry x="30" y="40" width="150" height="30" as="geometry" />
        </mxCell>
        <mxCell id="xiao-1Fs6jaPxQUdxkGS-5" value="" style="rounded=0;whiteSpace=wrap;html=1;" vertex="1" parent="xiao-1Fs6jaPxQUdxkGS-1">
          <mxGeometry x="45" y="70" width="665" height="40" as="geometry" />
        </mxCell>
        <mxCell id="xiao-1Fs6jaPxQUdxkGS-6" value="Course Code" style="text;html=1;strokeColor=none;fillColor=none;align=center;verticalAlign=middle;whiteSpace=wrap;rounded=0;" vertex="1" parent="xiao-1Fs6jaPxQUdxkGS-1">
          <mxGeometry x="50" y="75" width="100" height="30" as="geometry" />
        </mxCell>
        <mxCell id="xiao-1Fs6jaPxQUdxkGS-7" value="" style="rounded=0;whiteSpace=wrap;html=1;" vertex="1" parent="xiao-1Fs6jaPxQUdxkGS-1">
          <mxGeometry x="325" y="130" width="120" height="40" as="geometry" />
        </mxCell>
        <mxCell id="xiao-1Fs6jaPxQUdxkGS-8" value="Add Course" style="text;html=1;strokeColor=none;fillColor=none;align=center;verticalAlign=middle;whiteSpace=wrap;rounded=0;" vertex="1" parent="xiao-1Fs6jaPxQUdxkGS-1">
          <mxGeometry x="330" y="135" width="110" height="30" as="geometry" />
        </mxCell>
        <mxCell id="xiao-1Fs6jaPxQUdxkGS-9" value="Course Name" style="text;html=1;strokeColor=none;fillColor=none;align=center;verticalAlign=middle;whiteSpace=wrap;rounded=0;" vertex="1" parent="xiao-1Fs6jaPxQUdxkGS-1">
          <mxGeometry x="310" y="75" width="150" height="30" as="geometry" />
        </mxCell>
        <mxCell id="xiao-1Fs6jaPxQUdxkGS-10" value="" style="rounded=0;whiteSpace=wrap;html=1;" vertex="1" parent="xiao-1Fs6jaPxQUdxkGS-1">
          <mxGeometry x="580" y="80" width="120" height="20" as="geometry" />
        </mxCell>
        <mxCell id="xiao-1Fs6jaPxQUdxkGS-11" value="Remove" style="text;html=1;strokeColor=none;fillColor=none;align=center;verticalAlign=middle;whiteSpace=wrap;rounded=0;" vertex="1" parent="xiao-1Fs6jaPxQUdxkGS-1">
          <mxGeometry x="610" y="75" width="60" height="30" as="geometry" />
        </mxCell>
        <mxCell id="xiao-1Fs6jaPxQUdxkGS-12" value="" style="rounded=0;whiteSpace=wrap;html=1;" vertex="1" parent="xiao-1Fs6jaPxQUdxkGS-1">
          <mxGeometry x="325" y="220" width="120" height="40" as="geometry" />
        </mxCell>
        <mxCell id="xiao-1Fs6jaPxQUdxkGS-13" value="Plan Next Semester" style="text;html=1;strokeColor=none;fillColor=none;align=center;verticalAlign=middle;whiteSpace=wrap;rounded=0;" vertex="1" parent="xiao-1Fs6jaPxQUdxkGS-1">
          <mxGeometry x="330" y="225" width="110" height="30" as="geometry" />
        </mxCell>
        <mxCell id="xiao-1Fs6jaPxQUdxkGS-15" value="" style="rounded=0;whiteSpace=wrap;html=1;" vertex="1" parent="xiao-1Fs6jaPxQUdxkGS-1">
          <mxGeometry x="45" y="340" width="665" height="40" as="geometry" />
        </mxCell>
        <mxCell id="xiao-1Fs6jaPxQUdxkGS-16" value="Course Code" style="text;html=1;strokeColor=none;fillColor=none;align=center;verticalAlign=middle;whiteSpace=wrap;rounded=0;" vertex="1" parent="xiao-1Fs6jaPxQUdxkGS-1">
          <mxGeometry x="50" y="345" width="100" height="30" as="geometry" />
        </mxCell>
        <mxCell id="xiao-1Fs6jaPxQUdxkGS-17" value="Course Name" style="text;html=1;strokeColor=none;fillColor=none;align=center;verticalAlign=middle;whiteSpace=wrap;rounded=0;" vertex="1" parent="xiao-1Fs6jaPxQUdxkGS-1">
          <mxGeometry x="310" y="345" width="150" height="30" as="geometry" />
        </mxCell>
        <mxCell id="xiao-1Fs6jaPxQUdxkGS-18" value="" style="rounded=0;whiteSpace=wrap;html=1;" vertex="1" parent="xiao-1Fs6jaPxQUdxkGS-1">
          <mxGeometry x="580" y="350" width="120" height="20" as="geometry" />
        </mxCell>
        <mxCell id="xiao-1Fs6jaPxQUdxkGS-19" value="Add" style="text;html=1;strokeColor=none;fillColor=none;align=center;verticalAlign=middle;whiteSpace=wrap;rounded=0;" vertex="1" parent="xiao-1Fs6jaPxQUdxkGS-1">
          <mxGeometry x="610" y="345" width="60" height="30" as="geometry" />
        </mxCell>
        <mxCell id="xiao-1Fs6jaPxQUdxkGS-20" value="" style="rounded=0;whiteSpace=wrap;html=1;" vertex="1" parent="xiao-1Fs6jaPxQUdxkGS-1">
          <mxGeometry x="45" y="390" width="665" height="40" as="geometry" />
        </mxCell>
        <mxCell id="xiao-1Fs6jaPxQUdxkGS-21" value="Course Code" style="text;html=1;strokeColor=none;fillColor=none;align=center;verticalAlign=middle;whiteSpace=wrap;rounded=0;" vertex="1" parent="xiao-1Fs6jaPxQUdxkGS-1">
          <mxGeometry x="50" y="395" width="100" height="30" as="geometry" />
        </mxCell>
        <mxCell id="xiao-1Fs6jaPxQUdxkGS-22" value="Course Name" style="text;html=1;strokeColor=none;fillColor=none;align=center;verticalAlign=middle;whiteSpace=wrap;rounded=0;" vertex="1" parent="xiao-1Fs6jaPxQUdxkGS-1">
          <mxGeometry x="310" y="395" width="150" height="30" as="geometry" />
        </mxCell>
        <mxCell id="xiao-1Fs6jaPxQUdxkGS-23" value="" style="rounded=0;whiteSpace=wrap;html=1;" vertex="1" parent="xiao-1Fs6jaPxQUdxkGS-1">
          <mxGeometry x="580" y="400" width="120" height="20" as="geometry" />
        </mxCell>
        <mxCell id="xiao-1Fs6jaPxQUdxkGS-24" value="Add" style="text;html=1;strokeColor=none;fillColor=none;align=center;verticalAlign=middle;whiteSpace=wrap;rounded=0;" vertex="1" parent="xiao-1Fs6jaPxQUdxkGS-1">
          <mxGeometry x="610" y="395" width="60" height="30" as="geometry" />
        </mxCell>
        <mxCell id="xiao-1Fs6jaPxQUdxkGS-25" value="" style="rounded=0;whiteSpace=wrap;html=1;" vertex="1" parent="xiao-1Fs6jaPxQUdxkGS-1">
          <mxGeometry x="45" y="440" width="665" height="40" as="geometry" />
        </mxCell>
        <mxCell id="xiao-1Fs6jaPxQUdxkGS-26" value="Course Code" style="text;html=1;strokeColor=none;fillColor=none;align=center;verticalAlign=middle;whiteSpace=wrap;rounded=0;" vertex="1" parent="xiao-1Fs6jaPxQUdxkGS-1">
          <mxGeometry x="50" y="445" width="100" height="30" as="geometry" />
        </mxCell>
        <mxCell id="xiao-1Fs6jaPxQUdxkGS-27" value="Course Name" style="text;html=1;strokeColor=none;fillColor=none;align=center;verticalAlign=middle;whiteSpace=wrap;rounded=0;" vertex="1" parent="xiao-1Fs6jaPxQUdxkGS-1">
          <mxGeometry x="310" y="445" width="150" height="30" as="geometry" />
        </mxCell>
        <mxCell id="xiao-1Fs6jaPxQUdxkGS-28" value="" style="rounded=0;whiteSpace=wrap;html=1;" vertex="1" parent="xiao-1Fs6jaPxQUdxkGS-1">
          <mxGeometry x="580" y="450" width="120" height="20" as="geometry" />
        </mxCell>
        <mxCell id="xiao-1Fs6jaPxQUdxkGS-29" value="Add" style="text;html=1;strokeColor=none;fillColor=none;align=center;verticalAlign=middle;whiteSpace=wrap;rounded=0;" vertex="1" parent="xiao-1Fs6jaPxQUdxkGS-1">
          <mxGeometry x="610" y="445" width="60" height="30" as="geometry" />
        </mxCell>
        <mxCell id="xiao-1Fs6jaPxQUdxkGS-30" value="" style="rounded=0;whiteSpace=wrap;html=1;" vertex="1" parent="xiao-1Fs6jaPxQUdxkGS-1">
          <mxGeometry x="45" y="490" width="665" height="40" as="geometry" />
        </mxCell>
        <mxCell id="xiao-1Fs6jaPxQUdxkGS-31" value="Course Code" style="text;html=1;strokeColor=none;fillColor=none;align=center;verticalAlign=middle;whiteSpace=wrap;rounded=0;" vertex="1" parent="xiao-1Fs6jaPxQUdxkGS-1">
          <mxGeometry x="50" y="495" width="100" height="30" as="geometry" />
        </mxCell>
        <mxCell id="xiao-1Fs6jaPxQUdxkGS-32" value="Course Name" style="text;html=1;strokeColor=none;fillColor=none;align=center;verticalAlign=middle;whiteSpace=wrap;rounded=0;" vertex="1" parent="xiao-1Fs6jaPxQUdxkGS-1">
          <mxGeometry x="310" y="495" width="150" height="30" as="geometry" />
        </mxCell>
        <mxCell id="xiao-1Fs6jaPxQUdxkGS-33" value="" style="rounded=0;whiteSpace=wrap;html=1;" vertex="1" parent="xiao-1Fs6jaPxQUdxkGS-1">
          <mxGeometry x="580" y="500" width="120" height="20" as="geometry" />
        </mxCell>
        <mxCell id="xiao-1Fs6jaPxQUdxkGS-34" value="Add" style="text;html=1;strokeColor=none;fillColor=none;align=center;verticalAlign=middle;whiteSpace=wrap;rounded=0;" vertex="1" parent="xiao-1Fs6jaPxQUdxkGS-1">
          <mxGeometry x="610" y="495" width="60" height="30" as="geometry" />
        </mxCell>
        <mxCell id="xiao-1Fs6jaPxQUdxkGS-35" value="Available Courses" style="text;html=1;strokeColor=none;fillColor=none;align=center;verticalAlign=middle;whiteSpace=wrap;rounded=0;fontSize=20;" vertex="1" parent="xiao-1Fs6jaPxQUdxkGS-1">
          <mxGeometry x="20" y="290" width="170" height="30" as="geometry" />
        </mxCell>
        <mxCell id="xiao-1Fs6jaPxQUdxkGS-36" value="" style="rounded=0;whiteSpace=wrap;html=1;" vertex="1" parent="xiao-1Fs6jaPxQUdxkGS-1">
          <mxGeometry x="610" y="45" width="120" height="20" as="geometry" />
        </mxCell>
        <mxCell id="xiao-1Fs6jaPxQUdxkGS-37" value="Remove Semester" style="text;html=1;strokeColor=none;fillColor=none;align=center;verticalAlign=middle;whiteSpace=wrap;rounded=0;" vertex="1" parent="xiao-1Fs6jaPxQUdxkGS-1">
          <mxGeometry x="610" y="40" width="120" height="30" as="geometry" />
        </mxCell>
        <mxCell id="xiao-1Fs6jaPxQUdxkGS-14" value="" style="endArrow=none;html=1;rounded=0;" edge="1" parent="1">
          <mxGeometry width="50" height="50" relative="1" as="geometry">
            <mxPoint x="40" y="320" as="sourcePoint" />
            <mxPoint x="800" y="320" as="targetPoint" />
          </mxGeometry>
        </mxCell>
        <mxCell id="-JUYCa4vQB_ef3A6vfml-1" value="" style="shape=image;verticalLabelPosition=bottom;labelBackgroundColor=default;verticalAlign=top;aspect=fixed;imageAspect=0;image=data:image/jpeg,/9j/4AAQSkZJRgABAQAAAQABAAD/2wBDAAUDBAQEAwUEBAQFBQUGBwwIBwcHBw8LCwkMEQ8SEhEPERETFhwXExQaFRERGCEYGh0dHx8fExciJCIeJBweHx7/2wBDAQUFBQcGBw4ICA4eFBEUHh4eHh4eHh4eHh4eHh4eHh4eHh4eHh4eHh4eHh4eHh4eHh4eHh4eHh4eHh4eHh4eHh7/wgARCAPoBdwDASIAAhEBAxEB/8QAGwABAAMBAQEBAAAAAAAAAAAAAAECAwUGBAf/xAAaAQEBAQEBAQEAAAAAAAAAAAAAAwECBAYF/9oADAMBAAIQAxAAAAH9lA4nb4nWcNC05QJQJQJQJQJQJQJQJQJQJQJQJQJQJQJQJQJQJQJQJQJQJQJQJQJQJQJQJQJQJQJQJQJQJQJQJQJQJQJQJQJQJQJQJQJQJQJQJQJQJQJQJQJQJQJQJQJQJQJQJQJQJQJQJQJQJQJQJQJQJQJQJQJQJQJQJQJQJQJQJQJQJQJQJQJQJQJQJRJ7ceeoADidvidZwhaYAAAAAAAAAAAAAAAAAAAAAAAAAAAAAAAAAAAAAAAAAAAAAAAAAAAAAAAAAAAAAAAAAAAAAAAAAAAAAAAAAAAAAAACYk9uPPUABxO3xOs4QtMAAAAAAAAAAAAAAAAAAAAAAAAAAAAAAAAAAAAAAAAAAAAAAAAAAAAAAAAAAAAAAAAAAAAAAAAAAAAAAAAAAAAAAABMSe3HnqAA4nb4nWcIWmAAAAAAAAAAAAAAAAAAAAAAAAAAAAAAAAAAAAAAAAAAAAAAAAAAAAAAAAAAAAAAAAAAAAAAAAAAAAAAAAAAAAAAAAmJPbjz1AAcTt8TrOELTAAAAAAAAAAAAAAAAAAAAAAAAAAAAAAAAAAAAAAAAAAAAAAAAAAAAAAAAAAAAAAAAAAAAAAAAAAAAAAAAAAAAAAAATEntx56gAOJ2+J1nCFpgAAECUCUCUCUCUCUCUCUCUCUCUCUCUCUCUCUCUCUCUCUCUCUCUCUCUCUCUCUCUCUCUCUCUCUCUCUCUCUCUCUCUCUCUCUCUCUCUCUCUCUCUCUCUCUCUCUCUCUCUCUCUCUCUCUCUCUCUCUCUCUCUCUCUCUCUCUCUCUCUCUCUCUCUSAJiT2489QAHE7fE6zhC0wABAAIJ327XO8t1GOW6g5bqDluoOW6g5bqDluoOW6g5bqDluoOW6g5bqDluoOW6g5bqDluoOW6g5bqDluoOW6g5bqDluoOW6g5bqDluoOW6g5bqDluoOW6g5bqDluoOW6g5bqDluoOW6g5bqDluoOW6g5bqDluoOW6g5bqDluoOW6g5bqDluoOW6g5bqDluoOW6g5bqDluoOW6g5bqDluoOW6g5bqDluoOW6g5bqDluoOW6g5bqDluoOW6g5bqDluoOW6g5bqDluoOW6g5bqDluoOW6g5bqDl59geYd/gdYQ1IAExIAmJPbjz1AAcTt8TrOELTAAQCEExA9LqcaDQAAwGgYDQAACtmA0rZgNGDN3x7moaAt9Vud+R9WuPgfePgfePgfePgfePgfePgfePgfePgfePgfePgfePgfePgfePgfePgfePgfePgfePgfePgfePgfePgfePgfePgfePgfePgfePgfePgfePgfePgfePgfePgfePgfePgfePgfePgfePgfePgfePgfePgfePgfePgfePgfePgfePgfePgfePgfePgfePgr0RzX1fL1gaAI+Rn2KXBDZYGbsNC4a43Z5TOXNZ7yUCZiRMSAJiT2489QAHE7fE6zhC0wBAiaiECFT1w46Za/Jz352cX5313r5x093yfxTSflf1ujVl9T+Fx2b8n5r0Vsdv2vpA67AfB9fzbn12MA3495+bc+0ZueM67mnw/d8B975Prw3w+jN+jl9Xk87p93M6Otxx0AAAAAAAAAAAAAAAAAAAAAAAAAAAAAAAAAAAAAAAAAAAAAA+H7vj6zEd8j52b/E+7Xy/VE4ENoxbm1vn1xqGuT1uQzlWzt3l0C0xImJAExJ7ceeoADidvidZwhaYCJgVtUitqEQrr2In0Bzp6CfoCnnwnZ5qB6Z/FP2JQCtwAGOxlLgDfl+oYDXw/cZ8d/pANWqx0Y+LfjrX5N2t2DG7AbsBuwG7AbsBuwG7AbsBuwG7AbsBuwG7AbsBuwG7AbsBuwG7AbsBuwG7AbsBuwG7AbsBuwG7AbsBuwG7AbsBuwG7AbsBuwG7AbsBuwG7AbsBuwG7AbsBuwG7Cpv8E165Do5fUMw3AGokfI+tufJtqwDXH7HGZybZ37y9qWLTEiYkATEntx56gAOJ2+J1nCFpgImBWYK0tQik117QmfUJEJEJEJEJEJEJEJEJEJEJEJEJEJEJEJEJEJEJEJEJEJEJEJEJEJEJEJEJEJEJEJEJEJEJEJEJEJEJEJEJEJEJEJEJEJEJEJEJEJEJEJEJEJEJEJEJEJEJEJEJEJEJEJEJEJEJEJEJEJEJEJEJEJEJEJEcXt8Tc49s795pfO+LzWwmJAExJ7ceeoADidvidZwhaYCJgiJqVpfMrS1NfpA81QAAAAAAAAAAAAAAAAAAAAAAAAAAAAAAAAAAAAAAAAAAAAAAAAAAAAAAAAAAAAAAAAAAAAAAAAAAAHm/Sea6zzumWl56Xz0xa1bCYkATEntx56gAOJ2+J1nCFpgImCK2qUpfMpS+ev0oeaoAAAAAAAAAAAAAAAAAAAAAAAAAAAAAAAAAAAAAAAAAAAAAAAAAAAAAAAAAAAAAAAAAAAAAAAAAAADzXpfM9Z53TO956XpfF7VsJiQBMSe3HnqAA4nb4nWcIWmAiYIrapTPTMpnpnr9KHmqAAAAAAAAAAAAAAAAAAAAAAAAAAAAAAAAAAAAAAAAAAAAAAAAAAAAAAAAAAAAAAAAAAAAAAAAAAAA8z6bzPWedvS956XpfF7VsJiQBMSe3HnqAA4nb4nWcIWmAiYIrapTPTMpnpnr9KHmqAAAAAAAAAAAAAAAAAAAAAAAAAAAAAAAAAAAAAAAAAAAAAAAAAAAAAAAAAAAAAAAAAAAAAAAAAAAA8z6bzPWedvS956XpfF7VsJiQBMSe3HnqAA4nb4nWcIWmAiYIrapTPTMpnpnr9KHmqAAAAAAAAAAAAAAAAAAAAAAAAAAAAAAAAAAAAAAAAAAAAAAAAAAAAAAAAAAAAAAAAAAAAAAAAAAAA8z6bzPWedvS956XpfF7VsJiQBMSe3HnqAA4nb4nWcIWmAiYIrapTPTMpnpnr9KHmqAAAAAAAAAAAAAAAAAAAAAAAAAAAAAAAAAAAAAAAAAAAAAAAAAAAAAAAAAAAAAAAAAAAAAAAAAAAA8z6bzPWedvS956XpfF7VsJiQBMSe3HnqAA4nb4nWcIWmAiYIrapTPTMpnpnr9KHmqAAAAAAAAAAAAAAAAAAAAAAAAAAAAAAAAAAAAAAAAAAAAAAAAAAAAAAAAAAAAAAAAAAAAAAAAAAAA8z6bzPWedvS956XpfF7VsJiQBMSe3HnqAA4nb4nWcIWmAiYIrapTPTMpnpnr9KHmqAAAAAAAAAAAAAAAAAAAAAAAAAAAAAAAAAAAAAAAAAAAAAAAAAAAAAAAAAAAAAAAAAAAAAAAAAAAA8z6bzPWed0z0vO96Xxe1bCYkATEntx56gAOJ2+J1nCFpgImCK2qUz0zKZ6Z6/Sh5qgAAAAAAAAAAAAAAAAAAAAAAAAAAAAAAAAAAAAAAAAAAAAAAAAAAAAAAAAAAAAAAAAAAAAAAAAAAAPM+m8z1nnb0veel6Xxe1bCYkATEntx56gAOJ2+J1nCFpgImCK2qUz0zKZ6Z6/Sh5qgAAAAAAAAAAAAAAAAAAAAAAAAAAAAAAAAAAAAAAAAAAAAAAAAAAAAAAAAAAAAAAAAAAAAAAAAAAAPM+m8z1nnb0veel6Xxe1bCYkATEntx56gAOJ2+J1nCFpgImCK2qUz0zKZ6Z6/Sh5qgAAAAAAAAAAAAAAAAAAAAAAAAAAAAAAAAAAAAAAAAAAAAAAAAAAAAAAAAAAAAAAAAAAAAAAAAAAAPM+m8z1nnb0veel6Xxe1bCYkATEntx56gAOJ2+J1nCFpgImCK2qUz0zKZ6Z6/Sh5qgAAAAAAAAAAAAAAAAAAAAAAAAAAAAAAAAAAAAAAAAAAAAAAAAAAAAAAAAAAAAAAAAAAAAAAAAAAAPM+m8z1nnb0veel6Xxe1bCYkATEntx56gAOJ2+J1nCFpgImCK2qUz0zKZ6Z6/Sh5qgAAAAAAAAAAAAAAAAAAAAAAAAAAAAAAAAAAAAAAAAAAAAAAAAAAAAAAAAAAAAAAAAAAAAAAAAAAAPM+m8z1nnb0veel6Xxe1bCYkATEntx56gAOJ2+J1nCFpgImCK2qUz0zKZ6Z6/Sh5qgAAAAAAAAAAAAAAAAAAAAAAAAAAAAAAAAAAAAAAAAAAAAAAAAAAAAAAAAAAAAAAAAAAAAAAAAAAAPM+m8z1nnb0veel6Xxe1bCYkATEntx56gAOJ2+J1nCFpgImCK2qUz0zKZ6Z6/Sh5qgAAAAAAAAAAAAAAAAAAAAAAAAAAAAAAAAAAAAAAAAAAAAAAAAAAAAAAAAAAAAAAAAAAAAAAAAAAAPM+m8z1nnb0veel6Xxe1bCYkATEntx56gAOJ2+J1nCFpgImCK2qUz0zKZ6Z6/Sh5qgAAAAAAAAAAAAAAAAAAAAAAAAAAAAAAAAAAAAAAAAAAAAAAAAAAAAAAAAAAAAAAAAAAAAAAAAAAAPM+m8z1nnb0veel6Xxe1bCYkATEntx56gAOJ2+J1nCFpgImCK2qUz0zKZ6Z6/Sh5qgAAAAAAAAAAAAAAAAAAAAAAAAAAAAAAAAAAAAAAAAAAAAAAAAAAAAAAAAAAAAAAAAAAAAAAAAAAAPM+m8z1nndM73npel8XtWwmJAExJ7ceeoADidvidZwhaYCJgitqlM9Mymemev0oeaoAAAAAAAAAAAAAAAAAAAAAAAAAAAAAAAAAAAAAAAAAAAAAAAAAAAAAAAAAAAAAAAAAAAAAAAAAAADzPpvM9Z529L3npel8XtWwmJAExJ7ceeoADidvidZwhaYCJgitqlM9Mymemev0oeaoAAAAAAAAAAAAAAAAAAAAAAAAAAAAAAAAAAAAAAAAAAAAAAAAAAAAAAAAAAAAAAAAAAAAAAAAAAADzPpvM9Z529L3npel8XtWwmJAExJ7ceeoADidvidZwhaYCJgitqlM9Mymemev0oeaoAAAAAAAAAAAAAAAAAAAAAAAAAAAAAAAAAAAAAAAAAAAAAAAAAAAAAAAAAAAAAAAAAAAAAAAAAAADzPpvM9Z529L3npel8XtWwmJAExJ7ceeoADidvidZwhaYCJgitqlM9Mymemev0oeaoAAAAAAAAAAAAAAAAAAAAAAAAAAAAAAAAAAAAAAAAAAAAAAAAAAAAAAAAAAAAAAAAAAAAAAAAAAADzPpvM9Z529L3npel8XtWwmJAExJ7ceeoADidvidZwhaYCJgitqlM9Mymemev0oeaoAAAAAAAAAAAAAAAAAAAAAAAAAAAAAAAAAAAAAAAAAAAAAAAAAAAAAAAAAAAAAAAAAAAAAAAAAAADzPpvM9Z529L3npel8XtWwmJAExJ7ceeoADidvidZwhaYCJgitqlM9Mymemev0oeaoAAAAAAAAAAAAAAAAAAAAAAAAAAAAAAAAAAAAAAAAAAAAAAAAAAAAAAAAAAAAAAAAAAAAAAAAAAADzPpvM9Z529L3npel8XtWwmJAExJ7ceeoADidvidZwhaYCJgitqlM9Mymemev0oeaoAAAAAAAAAAAAAAAAAAAAAAAAAAAAAAAAAAAAAAAAAAAAAAAAAAAAAAAAAAAAAAAAAAAAAAAAAAADzPpvM9Z529L3npel8XtWwmJAExJ7ceeoADidvidZwhaYCJgitqlM9Mymemev0oeaoAAAAAAAAAAAAAAAAAAAAAAAAAAAAAAAAAAAAAAAAAAAAAAAAAAAAAAAAAAAAAAAAAAAAAAAAAAADzPpvM9Z529L3npel8XtWwmJAExJ7ceeoADidvidZwhaYCJgitqlM9Mymemev0oeaoAAAAAAAAAAAAAAAAAAAAAAAAAAAAAAAAAAAAAAAAAAAAAAAAAAAAAAAAAAAAAAAAAAAAAAAAAAADzPpvM9Z529L3npel8XtWwmJAExJ7ceeoADidvidZwhaYCJgitqlM9Mymemev0oeaoAAAAAAAAAAAAAAAAAAAAAAAAAAAAAAAAAAAAAAAAAAAAAAAAAAAAAAAAAAAAAAAAAAAAAAAAAAADzPpvM9Z529L3npel8XtWwmJAExJ7ceeoADidvidZwhaYCJgitqlM9Mymemev0oeaoAAAAAAAAAAAAAAAAAAAAAAAAAAAAAAAAAAAAAAAAAAAAAAAAAAAAAAAAAAAAAAAAAAAAAAAAAAADzPpvM9Z529L3npel8XtWwmJAExJ7ceeoADidvidZwhaYCJgitqlM9Mymemev0oeaoAAAAAAAAAAAAAAAAAAAAAAAAAAAAAAAAAAAAAAAAAAAAAAAAAAAAAAAAAAAAAAAAAAAAAAAAAAADzPpvM9Z529L3npel8XtWwmJAExJ7ceeoADidvidZwhaYCJgitqlM9Mymemev0oeaoAAAAAAAAAAAAAAAAAAAAAAAAAAAAAAAAAAAAAAAAAAAAAAAAAAAAAAAAAAAAAAAAAAAAAAAAAAADzPpvM9Z529L3npel8XtWwmJAExJ7ceeoADidvidZwhaYCJgitqlM9Mymemev0oeaoAAAAAAAAAAAAAAAAAAAAAAAAAAAAAAAAAAAAAAAAAAAAAAAAAAAAAAAAAAAAAAAAAAAAAAAAAAADzPpvM9Z529L3npel8XtWwmJAExJ7ceeoADidvidZwhaYCJgitqlM9Mymemev0oeaoAAAAAAAAAAAAAAAAAAAAAAAAAAAAAAAAAAAAAAAAAAAAAAAAAAAAAAAAAAAAAAAAAAAAAAAAAAADzPpvM9Z529L3npel8XtWwmJAExJ7ceeoADidvidZwhaYCJgitqlM9Mymemev0oeaoAAAAAAAAAAAAAAAAAAAAAAAAAAAAAAAAAAAAAAAAAAAAAAAAAAAAAAAAAAAAAAAAAAAAAAAAAAADzPpvM9Z529L3npel8XtWwmJAExJ7ceeoADidvidZwhaYCJgitqlM9Mymemev0oeaoAAAAAAAAAAAAAAAAAAAAAAAAAAAAAAAAAAAAAAAAAAAAAAAAAAAAAAAAAAAAAAAAAAAAAAAAAAADzPpvM9Z529L3npel8XtWwmJAExJ7ceeoADidvidZwhaYCJgitqlM9Mymemev0oeaoAAAAAAAAAAAAAAAAAAAAAAAAAAAAAAAAAAAAAAAAAAAAAAAAAAAAAAAAAAAAAAAAAAAAAAAAAAADzPpvM9Z529L3npel8XtWwmJAExJ7ceeoADidvidZwhaYCJgitqlM9Mymemev0oeaoAAAAAAAAAAAAAAAAAAAAAAAAAAAAAAAAAAAAAAAAAAAAAAAAAAAAAAAAAAAAAAAAAAAAAAAAAAADzPpvM9Z529NLzvel8XtWwmJAExJ7ceeoADidvidZwhaYCJgitqlM9Mymemev0oeaoAAAAAAAAAAAAAAAAAAAAAAAAAAAAAAAAAAAAAAAAAAAAAAAAAAAAAAAAAAAAAAAAAAAAAAAAAAADzPpvM9Z53TO956XpfF7VsJiQBMSe3HnqAA4nb4nWcIWmAiYIrapTPTMpnpnr9KHmqAAAAAAAAAAAAAAAAAAAAAAAAAAAAAAAAAAAAAAAAAAAAAAAAAAAAAAAAAAAAAAAAAAAAAAAAAAAA8z6bzPWedvS956XpfF7VsJiQBMSe3HnqAA4nb4nWcIWmAiYIrapTPTMpnpnr9KHmqAAAAAAAAAAAAAAAAAAAAAAAAAAAAAAAAAAAAAAAAAAAAAAAAAAAAAAAAAAAAAAAAAAAAAAAAAAAA8z6bzPWedvS956XpfF7VsJiQBMSe3HnqAA4nb4nWcIWmAiYIrapTPTMpnpnr9KHmqAAAAAAAAAAAAAAAAAAAAAAAAAAAAAAAAAAAAAAAAAAAAAAAAAAAAAAAAAAAAAAAAAAAAAAAAAAAA8z6bzPWedvS956XpfF7VsJiQBMSe3HnqAA4nb4nWcIWmAiYIrapTPTMpnpnr9KHmqAAAAAAAAAAAAAAAAAAAAAAAAAAAAAAAAAAAAAAAAAAAAAAAAAAAAAAAAAAAAAAAAAAAAAAAAAAAA8z6bzPWedvS956XpfF7VsJiQBMSe3HnqAA4nb4nWcIWmAiYIrapTPTMpnpnr9KHmqAAAAAAAAAAAAAAAAAAAAAAAAAAAAAAAAAAAAAAAAAAAAAAAAAAAAAAAAAAAAAAAAAAAAAAAAAAAA8z6bzPWedvS956XpfF7VsJiQBMSe3HnqAA4nb4nWcIWmAiYIrapTPShnnpTX6SPNUAAAAAAAAAAAAAAAAAAAAAAAAAAAAAAAAAAAAAAAAAAAAAAAAAAAAAAAAAAAAAAAAAAAAAAAAAAAB5r0vmus85pS953vW+LWrYTEgCYk9uPPUABxO3xOs4QtMBEwRW1SlNKGdNKa/Rx5qgAAAAAAAAAAAAAAAAAAAAAAAAAAAAAAAAAAAAAAAAAAAAAAAAAAAAAAAAAAAAAAAAAAAAAAAAAAAPN+k831nnNKXvO96aYm0SJiQBMSe3HnqAA4nb4nWcIWmAiYFL1KU0oUppTXvfo8j66FA50AAAAAAAAAAAAAAAAAAAAAAAAAAAAAAAAAAAAAAAAAAAAAAAAAAAAAAAAAAAAAAAAAAAAAAAAAAB5PveKpzW8Wrxa9bYtMSJiQBMSe3HnqAA4nb4nWcIWmAiYFZgil6lK6V1n9fzVx3589XN9E85B6N5yD0jzcno3nB6N5wejecHo3nB6N5wejecHo3nB6N5wejecHo3nB6N5wejecHo3nB6N5wejecHo3nB6N5yD0jzcno3nB6N5wejecHo3nB6N5wejecHo3nB6N5wejecHo3nB6N5wejecHo3nB6N5wejecHo3nB6N5sekecHo3nB6N5wejecHo3nB6N5wejecHo3nB6N5wejecHo3nB6N5wejecHo3nB6N5wejecHo3nIPSPNyejecHo3nB6N5wejecHo3nB6N5wejecHo3nB6N5wejecHo3nB6N5wejecHo3nB6N5wejecHo582PST5uT0fz8WxJbrFk4taJJmJExIAmJPbjz1AAcTt8TrOELTARMERMEJgrF6lIvBnGkapGkGbQZtBm0GbQZtBm0GbQZtBm0GbQZtBm0GbQZtBm0GbQZtBm0GbQZtBm0GbQZtBm0GbQZtBm0GbQZtBm0GbQZtBm0GbQZtBm0GbQZtBm0GbQZtBm0GbQZtBm0GbQZtBm0GbQZtBm0GbQZtBm0GbQZtBm0GbQZtBm0GbQZtBm0GbQZtBm0GbQZtBm0GbQZtBnN5KLis2kiZnEWSJSJCQAJiT2489QAHE7fE6zhC0wETBCYwTGoiREWgqsKLwVi4ouKLii4ouKLii4ouKLii4ouKLii4ouKLii4ouKLii4ouKLii4ouKLii4ouKLii4ouKLii4ouKLii4ouKLii4ouKLii4ouKLii4ouKLii4ouKLii4ouKLii4ouKLii4ouKLii4ouKLii4ouKLii4ouKLii4ouKLii4ouKTaSi4qsImQSCQmJAAExJ7ceeoADidvidZwhaYCJgAAhIiLCsyISISISISISISISISISISISISISISISISISISISISISISISISISISISISISISISISISISISISISISISISISISISISISISISISISISISISISISISISISISISISISISISISISISISISISISISISISISKzIhIAAkAACYk9uPPUABxO3xOs4QtMAAAAAAAAAAAAAAAAAAAAAAAAAAAAAAAAAAAAAAAAAAAAAAAAAAAAAAAAAAAAAAAAAAAAAAAAAAAAAAAAAAAAAAABMSe3HnqAA4nb4nWcIWmAAAAAAAAAAAAAAAAAAAAAAAAAAAAAAAAAAAAAAAAAAAAAAAAAAAAAAAAAAAAAAAAAAAAAAAAAAAAAAAAAAAAAAAAmJPbjz1AAcQ6zhi0wAAAAAAAAAAAAAAAAAAAAAAAAAAAAAAAAAAAAAAAAAAAAAAAAAAAAAAAAAAAAAAAAAAAAAAAAAAAAAAAAAAAAAAAAPbjz1A//xAAqEAACAQIHAAICAgMBAQAAAAAAATACBQMQEhMUFXAEESAhQGAiMVAyM//aAAgBAQABBQLO6eaKC6+aKC6+aKC6+aKC6+aKC6+aKC6+aKC6+aKC6+aKC6+aKC6+aKC6+aKC6zYeFXWcQ4hxDiHEOIcQ4hxDiHEOIcQ4hxDiHEOIcQ4hxDiHEOIcQ4hxDiHEOIcQ4hxDiHEOIcQ4hxDiHEOIcQ4hxDiHEOIcQ4hxDiHEOIcQ4hxDiHEOIcQ4hxDiHEOIcQ4hxDiHEOIcQ4hxDiHEOIcQ4hxDiHEOIcQ4hxDiHEOIcQ4hxDiHEOIcQ4hxDiHEOIcQ4hxDiHEOIcQ4hxDiHEOIcQ4hxDiHEOIcQ4hxDiHEOIcQ4hxDiHEOIcQ4hxDiHEOIcQ4hxDiHEOIcQ4hxDiHEOIcQq+LWh/acigusvxcLW/GcbCWJS0041BdZcKnTh/8AG+maajTUaajTUaajTUaajTUaajTUaajTUaajTUaajTUaajTUaajTUaajTUaajTUaajTUaajTUaajTUaajTUaajTUaajTUaajTUaajTUaajTUaajTUaajTUaajTUaajTUaajTUaajTUaajTUaajTUaajTUaajTUaajTUaajTUaajTUaajTUaajTUaajTUaajTUaajTUaajTUaajTUaajTUaajTUaajTUaajTUaajTUaajTUaaj6f8T51P1iRqC6/8NNNZpp/jiYtFBvMw66a1+FFH0V10UKjEor/sFdH5N/S5GGUVKunPdwjdwjdwimqmr8LhIoLr/Axa1h4eJiV4lWFiV4dVFSroqf0m2yltC/arq0UV11VvDrqodL1U/k28eqlKlZ4tDVWFWsSnLEq0UfHo+kY60PPBX+VT+qfi4SxV8nApVODXuYX9fxF9Vfg39L9458X/AOGeig0UGigSS/C4SKC6/wAD5dLq+Pl8al04GJ+6MqP1T8hfeDlgrThfjiU66MCrT+OJWqKcCh68vkr7wMN6qD5VFTXx6KkssEqX2sDF458v5VDw/j6Vg/1/F/8AedNf+X7x2f6zf7WwjZRsooo0fhcZFBdf4OL8TDreF8Wih5VYaZThpZ1/HpqeHgU0v88XDWJTRq0Z7f3i/hprwnvMwlias6X9P/ZUlUKmlLBwXhYv9eqf0n+3niYeJu4brf4v/X18g+vkH18gw9f4XKRQXX/p01Ok3TdRuo3UbqN1G6jdRuo3UbqN1G6jdRuo3UbqN1G6jdRuo3UbqN1G6jdRuo3UbqN1G6jdRuo3UbqN1G6jdRuo3UbqN1G6jdRuo3UbqN1G6jdRuo3UbqN1G6jdRuo3UbqN1G6jdRuo3UbqN1G6jdRuo3UbqN1G6jdRuo3UbqN1G6jdRuo3UbqN1G6jdRuo3UbqN1G6jdRuo3UbqN1DxRtv+Hc5FBdfKLnIoLrC/H7pIoLrC/H73IoLr5Re5FBdY347fM1CoLrCxj8dvkigusLGPx2+SKC6wvJ+O3yRQXWFjH47fJFBdYXk/Hb5IoLrC8n47fJFBdYXk/Hb5IoLrC8n47fJFBdYXk/Hb5IoLrCxj8dvkigusLyfjt8kUF1heT8dvkigusLyfjt8kUF1heT8dvkigusLyfjt8kUF1heT8dvkigusLyfjt8kUF1heT8dvkigusLyfjt8kUF1heT8dvkigusLyfjt8kUF1hYx+O3yRQXWFjH47fJFBdYWMfjt8kUF1hYx+O3yRQXWF5Px2+SKC6wvJ+O3yRQXWF5Px2+SKC6wvJ+O3yRQXWF5Px2+SKC6wvJ+O3yRQXWF5Px2+SKC6wvJ+O3yRQXWF5Px2+SKC6wvJ+O3yRQXWF5Px2+SKC6wvJ+O3yRQXWF5Px2+SKC6wvJ+O3yRQXWF5Px2+SKC6wvJ+O3yRQXWFjH47fJFBdYWMfjt8kUF1heT8dvkigusLGPx2+SKC6wvJ+O3yRQXWF5Px2+SKC6wvJ+O3yRQXWF5Px2+SKC6wvJ+O3yRQXWF5Px2+SKC6wvJ+O3yRQXWF5Px2+SKC6wvJ+O3yRQXWF5Px2+SKC6wvJ+O3yRQXWF5Px2+SKC6wvJ+O3yRQXWF5Px2+SKC6wvJ+O3yRQXWF5Px2+SKC6wsY/Hb5IoLrCxj8dvkigusLGPx2+SKC6wvJ+O3yRQXWFjH47fJFBdYXk/Hb5IoLrC8n47fJFBdYXk/Hb5IoLrC8n47fJFBdYXk/Hb5IoLrC8n47fJFBdYXk/Hb5IoLrC8n47fJFBdYXk/Hb5IoLrC8n47fJFBdYXk/Hb5IoLrC8n47fJFBdYXk/Hb5IoLrC8n47fJFBdYXk/Hb5IoLrG/Hb5moVBdY347fBRqC6+UXsUaguvlF7kUF1kZ8avcwPGrxXq+RGoLrLbvlbNXjPy/k0/HoqbqqjUF1mwPk42AK6M7U7U7U7U7Y7Y7Y7Y7Y7Y7Y7Y7Y7Y7Y7Y7Y7Y7Y7Y7Y7Y7Y7Y7Y7Y7Y7Y7Y7Y7Y7Y7Y7Y7Y7Y7Y7Y7Y7Y7Y7Y7Y7Y7Y7Y7Y7Y7Y7Y7Y7Y7Y7Y7Y7Y7Y7Y7Y7Y7Y7Y7Y7Y7Y7Y7Y7Y7Y7Y7Y7Y7Y7Y7U7Y7Y7Y7Y7Y7Y7Y7Y7Y7Y7Y7Y7Y7Y7Y7Y7Y7Y7Y7Y7Y7Y7Y7Y7Y7Y7Y7Y7Y7Y7Y7Y7Y7Y7Y7Y7Y7Y7Y7Y7Y7Y7Y7Y7Y7Y7Y7Y7Y7Y7Y7Y7Y7Y7Y7Y7Y7Y7Y7Y7Y7Y7Y7Y7Y7Y7Y7Y7Y7Y7Y7U7U7U7QxLljVFTdVUiguvmiguvmiguvmiguvmiguvmiguvmiguvmiguvmiguvmiguvmiguvmigunmi/H//xAAlEQADAQEBAAIBBAIDAAAAAAAAARExYDACEgMQEyFAFCAiQVD/2gAIAQMBAT8BHnPPOeec88555zzznnnPPP7UIQhCEIQhCEIQhCEIQhCEIQhCEIQhCEIQhCEIQhCE/qPPD8SXy+aXyw/b+P1+s/gfx+P7v1/6p9VIfn/4r5fU+/yv2v8AJ8G38U34v9EMW/8AoP8ApvPH/L/N9fr9v4/T975yX9P8b8X2+09afwUpSlKUpSlKUpSlKUpSlKUpSlKUpSlKUpSlKUpSlH/Tec885R55POUeeTzlHnk85R55POUeeTzlHnk85R55POUeeTzlHnk85R55POUeeTzlHnk85R55POUeeTzlHnk85R55POUeeTzlHnk85R55POUeeTzlHnk85R55POUeeTzlHnk85R55POUeeTzlHnk85R55POUeeTzlHnk85R55POUeeTzlHnk85R55POUeeTzlHnk85R55POUeeTzlHnk85R55POUeeTzlHnk85R55POUeeTz/AHXG/J+TzwpWVlZWVlZWVlZWVlZWVlZWVlZWVlZWVlZWVlZWVlZWVlZWVlZSsrKysrKysrKysrKysrKysrKysrKysrKysrKysrKysrKysrKysvm8555zzznnnPPOeec7/8QAJBEAAQUBAQACAgIDAAAAAAAAAAECERIxYDAQIRMgA0EUQFD/2gAIAQIBAT8BG7zzd55u883eebvPN3nm7+8kkkkkkkkkkkkkkkkkkkkkkkkkkkkkkkkkkkkkkkkkkkkkkkkkkkkkkkkkkkkkkkkkkkkkkkkkkkk+bd/14+ZJLFixYsWLFixYsWLFixYsWLFixYsWLFixYsWLFixYsWLFixYsWLFixYsT8x8x8p5N3wdhKzJ/I5yfxqqbB+R1rT9iOd+K39wWWZG/affyn6/0J8KJn0LMff8A0G/Ofsnk3fH8bZmPj/E/htav38fhZMx6wfZBBBBBBBBBBBBBBBBBBBBBBBBBBBBBBBBBBBBBBBBBBBBBBAifCLH6T8p5N3lE3ybvKM3ybvKM3ybvKM3ybvKM3ybvKM3ybvKM3ybvKM3ybvKM3ybvKM3ybvKM3ybvKM3ybvKM3ybvKM3ybvKM3ybvKM3ybvKM3ybvKM3ybvKM3ybvKM3ybvKM3ybvKM3ybvKM3ybvKM3ybvKM3ybvKM3ybvKM3ybvKM3ybvKM3ybvKM3ybvKM3ybvKM3ybvKM3ybvKM3ybvKM3ybvKM3ybvKM3ybvKM3ybvKM3ybvKM3ybvKM3ybvKM3ybvKM3ybvKM3ybvKM3ybv7uSONYn9+Td8KIUQohRCiFEKIUQohRCiFEKIUQohRCiFEKIUQohRCiFEKIUQohRCiFEKIUQohRCiFEKIUQohRCiFEKIUQohRCiFEKIUQohRCiFEKIUQohRCiFEKIUQohRCiFEKIUQohRCiFEKIUQohVPNu883eebvPN3nm7zzd53/8QANBAAAQEHBAAEBQMFAAMAAAAAAAEDMTIzgaGiAhFAcBIgIVEQEyJBkTBgYSNCUHGSUmKx/9oACAEBAAY/Avizr14zr14zr14zr14zr14zr14zr14zr14zr14zr14zr14zr14zr+t6J6e5HYjsR2I7EdiOxHYjsR2I7EdiOxHYjsR2I7EdiOxHYjsR2I7EdiOxHYjsR2I7EdiOxHYjsR2I7EdiOxHYjsR2I7EdiOxHYjsR2I7EdiOxHYjsR2I7EdiOxHYjsR2I7EdiOxHYjsR2I7EdiOxHYjsR2I7EdiOxHYjsR2I7EdiOxHYjsR2I7EdiOxHYjsR2I7EdiOxHYjsR2I7EdiOxHYjsR2I7EdiOxHYjsR2I7EdiOxHYjsR2I7EdiOxHYjsR2I7EdiOxHYjsR2I7EdiOxHYjsR2I7EdiOxHYjsR2I7EdiOxHYjsR2I7EdiOxHYjsR2I7EdiOxHY+lU1GypsvFZ1/V8WqFOmv5+ymy8RnX9XTp/w7hyjlHKOUco5RyjlHKOUco5RyjlHKOUco5RyjlHKOUco5RyjlHKOUco5RyjlHKOUco5RyjlHKOUco5RyjlHKOUco5RyjlHKOUco5RyjlHKOUco5RyjlHKOUco5RyjlHKOUco5RyjlHKOUco5RyjlHKOUco5RyjlHKOUco5RyjlHKOUco7iJq904jOv+D3Rd08i7K7y+r/AGQ9WOvY30r5fV5vr1In+z6NaL+4N0825/d+DxI7yTNJM0kzSfSqL5NHEZ14C61+xvqU30rQTUn3Nz1PQ3F1exvqU3RRNSffz+HT6M0evubI7yfNZRfdPc3T8fFdXsePV669X3+HztP2i/nyqvsfPbfUup38HzWSeDXp9fQ06/dP3LupuvozS5p8kGn8EGn8EGn8HoiJ5NHEZ14GpE+OhFfsL8UF2+OlF8y6d9tz5OtNtSO/ny+LUK11em/2+OoRU9vh4tPtsqHi1r9S/FRU9z5Db6dodXuatDJfEqvVPsaE0rumz/3I03220m6+jL/75o2n/RG0/wCiNp/0PVf9r5NHEZ14O+lfCeJV8S/H2Pf47p9Juv1fobK/7KJ413XyePWu+0KeX+mni0f+J6Mde54mi7f+vk3+HqiKbJpRKC+DV/SX+32/b+/l1fT4tCrvtu8+pn4U/wB+X0Imf4Imf4Imf4PrXTTyaK8RnX/J+g4co5RyjlHKOUco5RyjlHKOUco5RyjlHKOUco5RyjlHKOUco5RyjlHKOUco5RyjlHKOUco5RyjlHKOUco5RyjlHKOUco5RyjlHKOUco5RyjlHKOUco5RyjlHKOUco5RyjlHKOUco5RyjlHKOUco5RyjlHKOUco5RyjlHKOUco5RyjlHKeiHrw2deIzr1QzrxGdeqGdeIzr1QyrxGdeqGVeIzr1QyrxGdeqGVeIzr1QyrxGdeqGVeIzr1QyrxGdeqGVeIzr1QyrxGdeqGVeIzr1QyrxGdeqGVeIzr1QyrxGdeqGVeIzr1QyrxGdeqGVeIzr1QyrxGdeqGVeIzr1QyrxGdeqGVeIzr1QyrxGdeqGVeIzr1QyrxGdeqGVeIzr1QyrxGdeqGVeIzr1QyrxGdeqGVeIzr1QyrxGdeqGVeIzr1QyrxGdeqGVeIzr1QyrxGdeqGVeIzr1QyrxGdeqGVeIzr1QyrxGdeqGVeIzr1QyrxGdeqGVeIzr1QyrxGdeqGVeIzr1QyrxGdeqGVeIzr1QyrxGdeqGVeIzr1QyrxGdeqGVeIzr1QyrxGdeqGVeIzr1QyrxGdeqGVeIzr1QyrxGdeqGVeIzr1QyrxGdeqGVeIzr1QyrxGdeqGVeIzr1QyrxGdeqGVeIzr1QyrxGdeqGVeIzr1QyrxGdeqGVeIzr1QyrxGdeqGVeIzr1QyrxGdeqGVeIzr1QyrxGdeqGVeIzr1QyrxGdeqGVeIzr1QyrxGdeqGVeIzr1QyrxGdeqGVeIzr1QyrxGdeqGVeIzr1QyrxGdeqGVeIzr1QyrxGdeqGVeIzr1QyrxGdeqGVeIzr1QyrxGdeqGVeIzr1QyrxGdeqGVeIzr+ro1+6dN6dCf2pxGdf1fl64Ft0176lcgurUu6rxGdf1ttGr6fZT1Y5EjIkZEjIkZEjIkZEjIkZEjIkZEjIkZEjIkZEjIkZEjIkZEjIkZEjIkZEjIkZEjIkZEjIkZEjIkZEjIkZEjIkZEjIkZEjIkZEjIkZEjIkZEjIkZEjIkZEjIkZEjIkZEjIkZEjIkZEjIkZEjIkZEjIkZEjIkZEjIkZEjIkZEjIkZEjIkZEjIkZEjIkZEjIkZEjIkZEjIkZEjIkZEjIkZEjIkZEjIkZEjIkZEjIkZEjIkZEjIkZEjIkZEjIkZEjIkZEjIkZEjIkZEjIkZEjIkZEjIkZEjIkZEjIkZEjIkZEjIkZEjIkZEjIkZEjIkZEjIkZEjIkZEjIkZEjIkZEjIkZEjIkZEjIkZEjIkZEjIkZEjIkZEjIkZEjIkZG2jTp0XPFqVVXis69eM69eM69eM69eM69eM69eM69eM69eM69eM69eM69eM69c//xAAsEAACAQIGAwEBAAEEAwEAAAAAAREx8BAgMEFR8XBxgSFhQGCRweFQobHR/9oACAEBAAE/IcX/ACzYlkslkslkslkslkslkslkslkslkslkslkslkslkslkslkslkslkslkslkslkslkslkslkslkslkslkslkslkslkslkslkslkslkslkslkslkslkslkslkslkslkslkslkslkslkslkslkslkslkslkslkslkslkslkslkslkslkslkslkslkslkslkslkslkslkslkslkslkslkslkslkslkslkslkslkslkslkslkslkslkslkslkslkslkslkslkslkslkslksljOdCizbxpVoUWbeNKtCizbxpVoUWbeNKtCizbxpVoUWbeNKtCizbxpVoUWbeNKtCizbxpVoUWbeNKtCizbxpVoUWba378XJQTR+rP88LkkkkkkkkkkkkkkkkkkkkkkkkkkkkkkkkkkkkkkkkkkkkkkkkkkkkkkkkkkkkkkkkkkkkkkkkkkklE/wKCtNI2erVoUWbaq4r+HLKU8MxZ/ig5qhpw9SrQos21UKNl/4dPo3+x0R0R0R0R0R0R0R0R0R0R0R0R0R0R0R0R0R0R0R0R0R0R0R0R0R0R0R0R0R0R0R0R0R0R0R0R0R0R0R0R0R0R0R0R0R0R0R0R0R0R0R0R0R0R0R0R0R0R0R0R0R0R0R0R0R0R0R0R0R0R0R0R0R0R0R0R0R0R0R0R0R0R0R0R0R0R0R0R0R0R0R0R0R0R0Q0VZf4kCf2+alWhRZtqb5ff+FGkzdZGyIbaHG2WJTttT9GRfqPKD9eueVkX64QlZ/QhR/6P/Vm/wDUC4h/eMyntRKcNQKrFtJNtwkdwdwdwLW4WsPJ/wAmpVoUWbam+SgIlOSZd/zZCU9/djKQySSbbD2WGst8GgTcUw2H6AfzZH1aWzF0Ak53Z7/6GQkrhKLK4H/dvwx/k4/rwbYRy4bfhbBfqlUeMkuBDmiSQeX7kdEHtJOD/En4FH7f6gkV9yoYyEqs/T9KJXof/d/9xqoeSEIf+lRZP+fBaVWhRZtpPCf3J+yjX7/tj+DafoRoLFYT4Hq1VxfVEZv31yIayQ2iiZWdn5/9GUc6V4/uLVVWJE0c8Dw9uf6SJnIEo4WL/qCHtEhi0+KfiEJCQh+IIia1hN/9QP8A+mR7U6PX6JQxof4r0F+KEJJISSX8xSRfqnjIjGFI0p39Mn/P/wAYrRq0KLNtJjN8rS47qlQX2FUmixZSmGUv9YzwbPihLhsqTTQpQT4CohG61km5ZfQWWfc1+uX6vRP+fxoGW/YUJKLJHhNJKoJoWcNSPyU6pCHirLd/P9PpmDNje+R1y4gA+hSl+RLLKX4naTsB2A7AQpzHtDJa+CELBZ6tCizbQYxjNzb/AMN/AcCTd/8AUAAAAAAAAAAAAAAAAAAAAAAAAAAAAAAAAAAAAAAAAAAAAAAAAAAAAAAAAAAAAAAAB/2I9lv8Ox8EIWCz1aFFm2gxjGbm3hu58EIWCz1aFFm2g8DGbkOKMh8Mh8Mh8Mh8Mh8Mh8Mh8Mh8Mh8Mh8Mh8Mh8Mh8Mh8Mh8Mh8Mh8Mh8Mh8Mh8Mh8Mh8Mh8Mh8Mh8Mh8Mh8Mh8Mh8Mh8Mh8Mh8Mh8Mh8Mh8Mh8Mh8Mh8Mh8Mh8Mh8Mh8Mh8Mh8Mh8Mh8Mh8Mh8Mh8Mh8Mh8Mh8Mh8Mh8Mh8Mh8Mh8Mh8Mh8Mh8Mh8Mh8Mh8Mh8Mh8Mh8Mh8Mh8Mh8Mh8Mh8Mh8Mh8Mh8Mh8Mh8Mh8Mh8Mh8Mh8Mh8Mh8Mh8Mh8Mh8Mh8Mh8Mh8Mh8Mh8Mh8Mh8Mh8Mh8Mh8Mh8Mh8Mh8Mh8Mh8Mh8Mh8Mh8Mh8Mh8Mh8Mh8Mh8Mh8Mh8Mh8Mh8Mh8Mh8Mh8Mh8Mh8Mh8Mh8Mh8Mh8Mh8Mh8Mh8Mh8Mh8Mh8Mh8Mh8Mh8Mh8Mh8Mh8Mh8Mh8Mh8Mh8Mh8Mh8Mh8Mh8Mh8Mh8Mh8Mh8Mh8Mh8Mh8Mh8Mh8Mh8Mh8Mh8Mh8M/NnAhCELPVoUWbaDwMZuvYqeG73wQhCFnq0KLNtBjGM3QqeG7/wAEIQhZ6tCizbQYx4N17FTw3b+CFgQs9WhRZtnY8g3XsVPDd74IQhCz1aFFm2djyDdexU8N3vghCELPVoUWbZ2PA8G69ip4bvfBCEIWerQos2zseQbr2Knhu98EIQhZ6tCizbOx4Hg3XsVPDd74IQhCz1aFFm2djwPBuvYqeG73wQhCFnq0KLNs7HgeDdexU8N3vghCELPVoUWbZ2PA8G69ip4bvfBCEIWerQos2zseB4N17FTw3e+CEIQs9WhRZtnY8g3XsVPDd74IQhCz1aFFm2djwPBuvYqeG73wQhCFnq0KLNs7HgeDdexU8N3vghCELPVoUWbZ2PA8G69ip4bvfBCEIWerQos2zseB4N17FTw3e+CEIQs9WhRZtnY8Dwbr2Knhu98EIQhZ6tCizbOx4Hg3XsVPDd74IQhCz1aFFm2djwPBuvYqeG73wQhCFnq0KLNs7HgeDdexU8N3vghCELPVoUWbZ2PA8G69ip4bvfBCEIWerQos2zseB4N17FTw3e+CEIQs9WhRZtnY8Dwbr2Knhu98EIQhZ6tCizbOx5BuvYqeG73wQhCFnq0KLNs7HkG69ip4bvfBCEIWerQos2zseQbr2Knhu98EIQhZ6tCizbOx5BuvYqeG73wQhCFnq0KLNs7HgeDdexU8N3vghCELPVoUWbZ2PA8G69ip4bvfBCEIWerQos2zseB4N17FTw3e+CEIQs9WhRZtnY8Dwbr2Knhu98EIQhZ6tCizbOx4Hg3XsVPDd74IQhCz1aFFm2djwPBuvYqeG73wQhCFnq0KLNs7HgeDdexU8N3vghCELPVoUWbZ2PA8G69ip4bvfBCEIWerQos2zseB4N17FTw3e+CEIQs9WhRZtnY8Dwbr2Knhu98EIQhZ6tCizbOx4Hg3XsVPDd74IQhCz1aFFm2djwPBuvYqeG73wQhCFnq0KLNs7HgeDdexU8N3vghCELPVoUWbZ2PA8G69ip4bvfBCEIWerQos2zseB4N17FTw3e+CEIQs9WhRZtnY8Dwbr2Knhu98EIQhZ6tCizbOx5BuvYqeG73wQhCFnq0KLNs7HkG69ip4bvfBCEIWerQos2zseB4N17FTw3e+CEIQs9WhRZtnY8g3XsVPDd74IQhCz1aFFm2djwPBuvYqeG73wQhCFnq0KLNs7HgeDdexU8N3vghCELPVoUWbZ2PA8G69ip4bvfBCEIWerQos2zseB4N17FTw3e+CEIQs9WhRZtnY8Dwbr2Knhu98EIQhZ6tCizbOx4Hg3XsVPDd74IQhCz1aFFm2djwPBuvYqeG73wQhCFnq0KLNs7HgeDdexU8N3vghCELPVoUWbZ2PA8G69ip4bvfBCEIWerQos2zseB4N17FTw3e+CEIQs9WhRZtnY8Dwbr2Knhu98EIQhZ6tCizbOx4Hg3XsVPDd74IQhCz1aFFm2djwPBuvYqeG73wQhCFnq0KLNs7HgeDdexU8N3vghCELPVoUWbZ2PA8G69ip4bvfBCEIWerQos2zseB4N17FTw3e+CEIQs9WhRZtnY8g3XsVPDd74IQhCz1aFFm2djyDdexU8N3vghCELPVoUWbZ2PIN17FTw3e+CEIQs9WhRZtnY8Dwbr2Knhu98EIQhZ6tCizbOx5BuvYqeG73wQhCFnq0KLNs7HgeDdexU8N3vghCELPVoUWbZ2PA8G69ip4bvfBCEIWerQos2zseB4N17FTw3e+CEIQs9WhRZtnY8Dwbr2Knhu98EIQhZ6tCizbOx4Hg3XsVPDd74IQhCz1aFFm2djwPBuvYqeG73wQhCFnq0KLNs7HgeDdexU8N3vghCELPVoUWbZ2PA8G69ip4bvfBCEIWerQos2zseB4N17FTw3e+CEIQs9WhRZtnY8Dwbr2Knhu98EIQhZ6tCizbOx4Hg3XsVPDd74IQhCz1aFFm2djwPBuvYqeG73wQhCFnq0KLNs7HgeDdexU8N3vghCELPVoUWbZ2PA8G69ip4bvfBCEIWerQos2zseB4N17FTw3e+CEIQs9WhRZtnYxjwbr2Knhu38ELAhZ6tCizbQYx4N17FTw3b+YEIQs9WhRZtoMYxm69ip4bvfMCEIWerQos20GMYzdexU8N2vghCFoVaFFm2ixjwJW/097+G0sXN7YhCELPVoUWbaLGMYpzf3mef/4JppNNNPfwzNXH1f8A0S9FLYhCwWerQos20GMYxjK4PaRF/Nv+f9CzqWdS7qX9S3qW9S3qW9S3qW9S3qW9S3qW9S3qW9S3qW9S3qW9S3qW9S3qW9S3qW9S3qW9S3qW9S3qW9S3qW9S3qW9S3qW9S3qWdS3qW9S3qW9S3qW9S3qW9S3qW9S3qW9S3qW9S3qW9S3qW9S3qW9S3qW9S3qW9S3qW9S3qW9S3qW9S3qW9S3qW9S7qW9S3qW9S3qW9S3qW9S3qW9S3qW9S3qW9S3qW9S3qW9S3qW9S3qW9S3qW9S3qW9S3qW9S3qW9S3qW9S3qW9S3qW9S3qW9S3qW9S3qW9S3qW9S3qW9S3qW9S3qW9S3qW9S3qW9S3qW9S3qW9S3qW9S3qW9S3qW9S3qW9S3qW9S3qW9S3qW9S/qXdSzqXdBR7BUNzLq2xCELBZ6tCizbSY8GQNEEEEEEEEEEEEEEEEEEEEEEEEEEEEEEEEEEEEEEEEEEEEEEEEEEEEEEEEEEEEEEEEEEEEEEEEEEEEEEEEEEEEEEEEEEEEEEEEEEEEEEEEEEEEEEEEEEEEEEEEEEEEEEEEEEEEEEEEEEEEEEEEEEEEECQkJCQhC0atCizbTeEEEEEEEEEEEEEEEEEEEEEEEEEEEEEEEEEEEEEEEEEEEEEEEEEEEEEEEEEEEEEEEEEEEEEEEEEEEEEEEEEEEEEEEEEEEEEEEEEEEEEEEEEEEEEEEEEEEEEEEEEEEEEEEEEEEEEEEEEEEEEEEEEEEEEEEEEEZFpVaFFm2rBBBBBBBBBBBBBBBBBBBBBBBBBBBBBBBBBBBBBBBBBBBBBBBBBBBBBBBBBBBBBBBBBBBBBBBBBBBBBBBBBBBBBBBBBBBBBBBBBBBBBBBBBBBBBBBBBBBBBBBBBBBBBBBBBBBBBBBBBBBBBBBBBBBBBBBBBBGrVoUWbasEYQQQQQQQQQQQQQQQQQQQQQQQQQQQQQQQQQQQQQQQQQQQQQQQQQQQQQQQQQQQQQQQQQQQQQQQQQQQQQQQQQQQQQQQQQQQQQQQQQQQQQQQQQQQQQQQQQQQQQQQQQQQQQQQQQQQQQQQQQQQQQQQQQQQQQQQRq1aFFm3+DBBBBBBBBBBBBBBBBBBBBBBBBBBBBBBBBBBBBBBBBBBBBBBBBBBBBBBBBBBBBBBBBBBBBBBBBBBBBBBBBBBBBBBBBBBBBBBBBBBBBBBBBBBBBBBBBBBBBBBBBBBBBBBBBBBBBBBBBBBBBBBBBBBBH+BVoUWbf4C8LRrVaFFm3jSrQos28aVaFFm3jSrQos28aVaFFm3jSrQX8s2IZDIZDIZDIZDIZDIZDIZDIZDIZDIZDIZDIZDIZDIZDIZDIZDIZDIZDIZDIZDIZDIZDIZDIZDIZDIZDIZDIZDIZDIZDIZDIZDIZDIZDIZDIZDIZDIZDIZDIZDIZDIZDIZDIZDIZDIZDIZDIZDIZDIZDIZDIZDIZDIZDIZDIZDIZDIZDIZDIZDIZDIZDIZDIZDIZDIZDIZDIZDIZDIZDIZDIZDIZDIZDIZDIZDIZDIZDIZDIZDIZDIZDIZDIZDIZDIZDIZDIZDIZDIYjnL/AP/aAAwDAQACAAMAAAAQ84AAAAAAAAAAAAAAAAAAAAAAAAAAAAAAAAAAAAAAAAAAAAAAAAAAAAAAAAAAAAAAAAAAAAAAAAAAAAAAAAAAAAAAAAAR888oAAAAAAAAAAAAAAAAAAAAAAAAAAAAAAAAAAAAAAAAAAAAAAAAAAAAAAAAAAAAAAAAAAAAAAAAAAAAAAAAAAAAAAAAAB888oAAAAAAAAAAAAAAAAAAAAAAAAAAAAAAAAAAAAAAAAAAAAAAAAAAAAAAAAAAAAAAAAAAAAAAAAAAAAAAAAAAAAAAAAAB888oAAAAAAAAAAAAAAAAAAAAAAAAAAAAAAAAAAAAAAAAAAAAAAAAAAAAAAAAAAAAAAAAAAAAAAAAAAAAAAAAAAAAAAAAAB888oAAAAAAAAAAAAAAAAAAAAAAAAAAAAAAAAAAAAAAAAAAAAAAAAAAAAAAAAAAAAAAAAAAAAAAAAAAAAAAAAAAAAAAAAAB888oAAAAMMMMMMMMMMMMMMMMMMMMMMMMMMMMMMMMMMMMMMMMMMMMMMMMMMMMMMMMMMMMMMMMMMMMMMMMMMMMMMMMMMMIAB888oAAAEAASTzzzzzzzzzzzzzzzzzzzzzzzzzzzzzzzzzzzzzzzzzzzzzzzzzzzzzzzzzzzzzzzzzzzzzzzzzzjpAAAoAB888oAAAIUMhAAACABAAAAJAJAFHAEMPNNNNNNNNNNNNNNNNNNNNNNNNNNNNNNNNNNNNNNNNNNNNNNdIAAHJEPJADA8goAB888oAAEU8WAX+QpHSJAAEhAmAMwLFjA88888888888888888888888888888888888888888888888oAFoLAw2ADtEAoAB888oAAAU0gAQDgjQwAAABBAxATaASywxxxxxxxxxxxxxxxxxxxxxxxxxxxxxxxxxxxxxxxxxxxxxx1jAChAAwzADKMAoAB888oAAAY+YIAAAAAAAAAAAAAAAAAAAAAAAAAAAAAAAAAAAAAAAAAAAAAAAAAAAAAAAAAAAAAAAAAAAAAAAAAAAARcuIoAB888oAAAsGKU8888888888888888888888888888888888888888888888888888888888888888888888888888uoKooAB888oAAAgmnU8888888888888888888888888888888888888888888888888888888888888888888888888888uE+goAB888oAAAAWXU8888888888888888888888888888888888888888888888888888888888888888888888888888+W/AoAB888oAAAAWXU8888888888888888888888888888888888888888888888888888888888888888888888888888+W/AoAB888oAAAAWXU8888888888888888888888888888888888888888888888888888888888888888888888888888+X/AoAB888oAAAAWXU8888888888888888888888888888888888888888888888888888888888888888888888888888+W/AoAB888oAAAAWXU8888888888888888888888888888888888888888888888888888888888888888888888888888+W/AoAB888oAAAAXXU8888888888888888888888888888888888888888888888888888888888888888888888888888+D/AAKAAfPPKAAAAFl1PPPPPPPPPPPPPPPPPPPPPPPPPPPPPPPPPPPPPPPPPPPPPPPPPPPPPPPPPPPPPPPPPPPPPPPPPPPPPlvwKAAfPPKAAAAFl1PPPPPPPPPPPPPPPPPPPPPPPPPPPPPPPPPPPPPPPPPPPPPPPPPPPPPPPPPPPPPPPPPPPPPPPPPPPPPlvwKAAfPPKAAAAFl1PPPPPPPPPPPPPPPPPPPPPPPPPPPPPPPPPPPPPPPPPPPPPPPPPPPPPPPPPPPPPPPPPPPPPPPPPPPPPl/wKAAfPPKAAAAVl1PPPPPPPPPPPPPPPPPPPPPPPPPPPPPPPPPPPPPPPPPPPPPPPPPPPPPPPPPPPPPPPPPPPPPPPPPPPPPlvwKAAfPPKAAAAFl1PPPPPPPPPPPPPPPPPPPPPPPPPPPPPPPPPPPPPPPPPPPPPPPPPPPPPPPPPPPPPPPPPPPPPPPPPPPPPlvwKAAfPPKAAAAFl1PPPPPPPPPPPPPPPPPPPPPPPPPPPPPPPPPPPPPPPPPPPPPPPPPPPPPPPPPPPPPPPPPPPPPPPPPPPPPlvwKAAfPPKAAAAFl1PPPPPPPPPPPPPPPPPPPPPPPPPPPPPPPPPPPPPPPPPPPPPPPPPPPPPPPPPPPPPPPPPPPPPPPPPPPPPlvwKAAfPPKAAAAFl1PPPPPPPPPPPPPPPPPPPPPPPPPPPPPPPPPPPPPPPPPPPPPPPPPPPPPPPPPPPPPPPPPPPPPPPPPPPPPlvwKAAfPPKAAAAFl1PPPPPPPPPPPPPPPPPPPPPPPPPPPPPPPPPPPPPPPPPPPPPPPPPPPPPPPPPPPPPPPPPPPPPPPPPPPPPh/wKAAfPPKAAAAFl1PPPPPPPPPPPPPPPPPPPPPPPPPPPPPPPPPPPPPPPPPPPPPPPPPPPPPPPPPPPPPPPPPPPPPPPPPPPPPlvwKAAfPPKAAAAFl1PPPPPPPPPPPPPPPPPPPPPPPPPPPPPPPPPPPPPPPPPPPPPPPPPPPPPPPPPPPPPPPPPPPPPPPPPPPPPlvwKAAfPPKAAAAFl1PPPPPPPPPPPPPPPPPPPPPPPPPPPPPPPPPPPPPPPPPPPPPPPPPPPPPPPPPPPPPPPPPPPPPPPPPPPPPlvwKAAfPPKAAAAFl1PPPPPPPPPPPPPPPPPPPPPPPPPPPPPPPPPPPPPPPPPPPPPPPPPPPPPPPPPPPPPPPPPPPPPPPPPPPPPlvwKAAfPPKAAAAFl1PPPPPPPPPPPPPPPPPPPPPPPPPPPPPPPPPPPPPPPPPPPPPPPPPPPPPPPPPPPPPPPPPPPPPPPPPPPPPl/wACgAHzzygAAABZdTzzzzzzzzzzzzzzzzzzzzzzzzzzzzzzzzzzzzzzzzzzzzzzzzzzzzzzzzzzzzzzzzzzzzzzzzzzzz5b8CgAHzzygAAABZdTzzzzzzzzzzzzzzzzzzzzzzzzzzzzzzzzzzzzzzzzzzzzzzzzzzzzzzzzzzzzzzzzzzzzzzzzzzzz5b8CgAHzzygAAABZdTzzzzzzzzzzzzzzzzzzzzzzzzzzzzzzzzzzzzzzzzzzzzzzzzzzzzzzzzzzzzzzzzzzzzzzzzzzzz5b8CgAHzzygAAABZdTzzzzzzzzzzzzzzzzzzzzzzzzzzzzzzzzzzzzzzzzzzzzzzzzzzzzzzzzzzzzzzzzzzzzzzzzzzzz5b8CgAHzzygAAABZdTzzzzzzzzzzzzzzzzzzzzzzzzzzzzzzzzzzzzzzzzzzzzzzzzzzzzzzzzzzzzzzzzzzzzzzzzzzzz5b8CgAHzzygAAABZdTzzzzzzzzzzzzzzzzzzzzzzzzzzzzzzzzzzzzzzzzzzzzzzzzzzzzzzzzzzzzzzzzzzzzzzzzzzzz5b8CgAHzzygAAABZdTzzzzzzzzzzzzzzzzzzzzzzzzzzzzzzzzzzzzzzzzzzzzzzzzzzzzzzzzzzzzzzzzzzzzzzzzzzzz5b8CgAHzzygAAABZdTzzzzzzzzzzzzzzzzzzzzzzzzzzzzzzzzzzzzzzzzzzzzzzzzzzzzzzzzzzzzzzzzzzzzzzzzzzzz5b8CgAHzzygAAABZdTzzzzzzzzzzzzzzzzzzzzzzzzzzzzzzzzzzzzzzzzzzzzzzzzzzzzzzzzzzzzzzzzzzzzzzzzzzzz5b8CgAHzzygAAAFZdTzzzzzzzzzzzzzzzzzzzzzzzzzzzzzzzzzzzzzzzzzzzzzzzzzzzzzzzzzzzzzzzzzzzzzzzzzzzz5b8CgAHzzygAAABZdTzzzzzzzzzzzzzzzzzzzzzzzzzzzzzzzzzzzzzzzzzzzzzzzzzzzzzzzzzzzzzzzzzzzzzzzzzzzz5b8CgAHzzygAAABZdTzzzzzzzzzzzzzzzzzzzzzzzzzzzzzzzzzzzzzzzzzzzzzzzzzzzzzzzzzzzzzzzzzzzzzzzzzzzz5b8CgAHzzygAAABZdTzzzzzzzzzzzzzzzzzzzzzzzzzzzzzzzzzzzzzzzzzzzzzzzzzzzzzzzzzzzzzzzzzzzzzzzzzzzz5b8CgAHzzygAAABZdTzzzzzzzzzzzzzzzzzzzzzzzzzzzzzzzzzzzzzzzzzzzzzzzzzzzzzzzzzzzzzzzzzzzzzzzzzzzz5P8AAoAB888oAAAAWXU8888888888888888888888888888888888888888888888888888888888888888888888888888+H/AoAB888oAAAAWXU8888888888888888888888888888888888888888888888888888888888888888888888888888+W/AoAB888oAAAAWXU8888888888888888888888888888888888888888888888888888888888888888888888888888+X/AoAB888oAAAAWXU8888888888888888888888888888888888888888888888888888888888888888888888888888+U/AoAB888oAAAAWXU8888888888888888888888888888888888888888888888888888888888888888888888888888+W/AoAB888oAAAAWXU8888888888888888888888888888888888888888888888888888888888888888888888888888+W/AoAB888oAAAIafU8888888888888888888888888888888888888888888888888888888888888888888888888888uEyIoAB888oAAAsiSU8888888888888888888888888888888888888888888888888888888888888888888888888888usagoAB888oAAAQ+EQ88888888888888888888888888888888888888888888888888888888888888888888888888884k0IoAB888oAAAYcw/Ft37zzzzzzzzzzzzzzzz37zzzzzzzzzzzzzzzz/AM8888888888888889+888888888888888854c/NgIKAAfPPKAAALLBLvBOccccccccccccccccccccccccccccccccccccccccccccccccccccccccccccccccccccccYHEArOJAAAfPPKAAAJpGBIJHvvvvvvvvvvvvvvvvvvvvvvvvvvvvvvvvvvvvvvvvvvvvvvvvvvvvvvvvvvvvvvvvvvvvvvqtFIFMCAAAfPPKAAAAAMAAAAAAAAAAAAAAAAAAAAAAAAAAAAAAAAAAAAAAAAAAAAAAAAAAAAAAAAAAAAAAAAAAAAAAAAAAAEIMABAAAAfPPKAAAAAAAAAAAAAAAAAAAAAAAAAAAAAAAAAAAAAAAAAAAAAAAAAAAAAAAAAAAAAAAAAAAAAAAAAAAAAAAAAAAAAAAAAAfPPKAAAAAAAAAAAAAAAAAAAAAAAAAAAAAAAAAAAAAAAAAAAAAAAAAAAAAAAAAAAAAAAAAAAAAAAAAAAAAAAAAAAAAAAAAAfPPPAAAAAAAAAAAAAAAAAAAAAAAAAAAAAAAAAAAAAAAAAAAAAAAAAAAAAAAAAAAAAAAAAAAAAAAAAAAAAAAAAAAAAAAAAHfPP/8QAJxEAAwABAwIGAgMAAAAAAAAAAAERECExQVCBIEBRYGHwcZChwNH/2gAIAQMBAT8Q/R5VVJEREREREREREREREREREREREREREREREREREREREREREREREREREREREREREREREREREREREREREREREREREREREREREREREREREREGp0Cbgmnn5EdQ/wD/AP8A/wD/AP7Uy2lmoqw/JW/caT/FG3RfDgQZHwdr/hxunoM3tcs7bCRrPlybwDSuX6Z2emOTYI3EVUZbOobcU3EosdhYe3k5v13167/zjn0+98JGhv3jbxpTDVJlI98IIIIIIIIIIIIIIIIIIIIIIIIIIIIIIIIIIIIIIIIIIIIIIIGuGr4ITD29vT2/oHNVVVVVVVVVVVVVVVVVVVVVVVVVVVVVNV7N4PIycL6LVVVVVVVVVVVVfRqqqqqqqqqqqqq/0fVVf//EACURAAICAwACAgICAwAAAAAAAAARATEwYGEQISBBUYGh8EBQcf/aAAgBAgEBPxAr16vXq9er16vXq9er+coMMMMMMMMMMMMMMMMMMMMMMMMMMMMMMMMMMMMMMMMMMMMMMMMMMMMMMMMMMMMMMMMMMMMMMMMMMMMRLxV/40RM0TKPM+6gmcXAwwwwwwwwwwwwwwwwwwwwwwwwwwwwwwwwwwwwwwwwwwwwwwxEJ8xKa8t+BT4tirwSmJzFn3Hsga9JT+0RD7XX2SISj7P2iL33+ScwzZeaOL83HvyuTCkqO32Ip/2C3iIZ/ImXL8evyT/3xbFXh6jxEPrf1+K/jwv1n/f18Ile/My/ESiZj6jxPsmcUQjHHHHHHHHHHHHHHHHHHHHHHHHHHHHHHHHHHHHHHHHHHHHHHHEeRPv4Jl+LYq/jGo04K/jBGnUkk4K9UpJJwV6pSSTgr1SkknBXqlJJOCvVKSScFeqUkk4K9UpJJwV6pSSTgr1SkknBXqlJJOCvVKSScFeqUkk4K9UpJJwV6pSSTgr1SkknBXqlJJOCvVKSScFeqUkk4K9UpJJwV6pSSTgr1SkknBXqlJJOCvVKSScFeqUkk4K9UpJJwV6pSSTgr1SkknBXqlJJOCvVKSScFeqUkk4K9UpJJwV6pSSTgr1SkknBXqlJJOCvVKSScFeqUkk4K9UpJJwV6pSSTgr1SkknBXqlJJOCvVKSScFeqUkk4K/jBGnUkk4K/jHiWWm+9sVfzmIn1JxOJxOJxOJxOJxOJxOJxOJxOJxOJxOJxOJxOJxOJxOJxOJxOJxOJxOJxOJxOJxOJxOJxOJxOJxOJxOJxOJxOJxOJxOJxOJxOJxOJxOJxOJxOJxOJxF/WOvExjGMYxjGMYxjGMYxjGMYxjGMYxjGMYxjGMYxjGMYxjGMYxjGMYxjGMYxjGMfl4q8LGMYxjGMYxjGMYxjGMYxjGMYxjGMYxjGMYxjGMYxjGMYxjGMYxjGMYxjGMYxjHkr16vXq9er13//xAAsEAACAAUCBwEBAQEAAwEBAAAAARExYXHxIPAQIUBBcKGxUTCRgVBg0cHh/9oACAEBAAE/EOLlCY1isVisVisVisVisVisVisVisVisVisVisVisVisVisVisVisVisVisVisVisVisVisVisVisVisVisVisVisVisVisVisVisVisVisVisVisVisVisVisVisVisVisVisVisVisVisVisVisVisVisVisVisVisVisVisVisVisVisVisVisVisVisVisVisVisVisVisVisVisVisVisVisVisVisVisVisVisVisVisVisVisVisVisVisVisVisVisVisVisViC8/HiZPjxMnx4mT48TJ8eJk+PEyfHiZPjxMnx4mT48TJ6JMSJEiRIkSJEiRIkSJEiRIkSJEiRIkSJEiRIkSJEiRIkSJEiRIkSJEiRIkSJEiRIkSJEiRIkSJEiRIkSJEiRIkSJEiRIkSJEiRIkSJEiRIkSJEiRIkSJEiRIkSJEiRIkSJEiRIkSJEiRIkSJEiRIkSJEiRIkSJEiRIkSJEiRIkSJEiRIkSJEiRIkSJEiRIkSJHVJ6ZKW9WH/AB+kqlwvptzNuZtzNuZtzNuZtzNuZtzNuZtzNuZtzNuZtzNuZtzNuZtzNuZtzNuZtzNuZtzNuZtzNuZtzNuZtzNuZtzNuZtzNuZtzNuZtzNuZtzNuZtzNuZtzNuZtzNuZtzNuZtzNuZtzNuZtzNuZtzNuZtzNuZtzNuZtzNuZtzNuZtzNuZtzNuZtzNuZtzNuZtzNuZtzNuZtzNuZtzNuZtzNuZtzNuZtzNuZtzNuZtzNuZtzNuZtzNuZtzNuZtzNuZtzNuZtzNuZtzNuZtzNuZtzNuZtzNuZtzNuZtzNuZtzNuZtzNuZtzNuZtzNuZtzNuZtzNuZtzNuZtzNuZtzNuZtzNuZtzNuZtzNuZtzNuZtzNuZtzNuZtzNuZtzNuY7QNc98iaUBEGiOtaZPQJehsaop0F6VkJJEkSSUElJeGXZKQqJ/joMFNkfjRHUtMnoktjY2+wliEONW+b9/8Ah1MX1T/2BSlKUpSlKUpSlKUpSlKUpSlKUpSlKUpSlKUpSlKUpSlKUpSlKUpSlKUpSlKUpSlKUpSlKUpSlKUpSlKU97S6RSpD2OT5AQhcVIWmT/dLGRGxifJdCkraG0lFkl+twE01FNNfq4vkubgdori2kotpL9bFzUU4r9X8G0k22klzbfYV5YGRT0QkeFotvx6WMlJRP+DW/wC3noakVUj5XFoRoRFvkkKiFWkrCgwpNKjYXtwmaW2v+f8Ar7Sag0ONDJzaSdtUYeKaCi4Kg1qLaqrDbW5Lag/zipshFtySMbMTMTEQxoc1DQ0Fv7CZETIiELTJ6BLYxsbI8lxSVuKBIxVTsv8ARwaW+UX/AASFoST5j5P40Ry4dE+1BHMySMP0jNOnZCWwv3sYuWEihY8VEh+vshzcZy9BIRGku6+R+NEjgJTU2km20kpt9h4EoI5N/gIvqwR20QaJLbT/AOnNwmuTpv8Aj4pfKMVpfr7eyA8hd8UZJfnDk9YuQTX3qMk85EU6cUPdS8rsnvl7JRIqpvm8fBJIZcQpgVc2mpSFJeQuvxw5/wDsCFygnyf90owrRY4JIg+qNN/Juu7Dx3puLSYhNPk0+5iv/wAMV/8Ahiv/AMF7Sl82kKP+aJdvYTGEyIhC0yf7JYx8GGyRdCkrcUktJKl3ii1/gnHmMWlzBPxttw9nPIa5wtxbNy5hGzaJQrvBxfFE0Fja/I84e9SWSCQ/D/8AgltnOkP1KumHgTkkpt+IR9XhyCX6/T4qLinK/YOI/wCik/XNcGzqAedVL9Q3NYsvkuSh+8VfuaTJrIsNQI12ztMbn4rn+jKbVgb/ACbbsJ5GSHJP/f8A2BDdLsiehT5JSQUIuIoRwn8m67sIkISSUEkuSFhYSSQS4ratCNRaDVmZYZ4Z4RrXi40FtDQQk6iYwhCFpk/3SxjGGI8l0KStocA6KCbu3Yfy6MFJn7Dv/wB4tDzOaSihTc0SjJcXV8ItJGK3YX+cKBBH+w/hzGc4qb/orJ1BLk9CekHLXJ/XXRch2MxMDRCRH9oF/oiakR41G/3Q5Yopcmv1Cy9NlFMo3NJ7E9SgiSaqhkqIbRm//wAX/r7O2y/WTQmi9DUqFkVIFBR7/wDBt5yFH/EFpmhIXFJHtHQwwwnO5Ty5VjoeCIwwwpicFpk/3S+CQYYb5LoUlv8Awz7m5ptIheUdHE2iNojaI2iNojaI2iNojaI2iNojaI2iNojaI2iNojaI2iNojaI2iNojaI2iNojaI2iNojaI2iNojaI2iNojaI2iNojaI2iNojaI2iNojaI2iNojaI2iNojaI2iNojaI2iNojaI2iNojaI2iNojaI2iNojaI2iNojaI2iNojaI2iNojaI2iNojaI2iNojaI2iNojaI2iNojaI2iNojaI2iNojaI2iNohEOZH9Y5zD7LsujaH/QMMMLiWmT/dLlxXGG+S6FJbw23sDDDi41pk/wB0vgYccb5LoUB+X4YIwRgjBGCMEYIwRgjBGCMEYIwRgjBGCMEYIwRgjBGCMEYIwRgjBGCMEYIwRgjBGCMEYIwRgjBGCMEYIwRgjBGCMEYIwRgjBGCMEYIwRgjBGCMEYIwRgjBGCMEYIwRgjBGCMEYIwRgjBGCMEYIwRgjBGCMEYIwRgjBGCMEYIwRgjBGCMEYIwRgjBGCMEYIwRgjBGCMEYIwRgjBGCMEYIwRgjBGCMEYIwRgjBGCMEYIwRgjBGCMEYIwRgjBGCMEYIwRgjBGCMEYIwRgjBGCMEYIwRgjBESRprnMg4+mLTJ/ul6Tb/wAhIt4bkvNx+GbgUhaZP90vS7f+y+ki3huW8X483ApC0yf7pehsN/5PpIt4b++pwpC0yegSlJOCQfofSRbw39dH+0mFIWmT0CUpJxH6H0kW8N/XT9MKQtMnoEpSQ7yQfofSRbw39dXxSFpk9AlKScR+h9JFvDf10/TCkLTJ6BKUk4z9D6SLeG/rp+mFIWmT0CUpId/A/Q+ki3hv66fphSFpk9AlKScMg/Q+ki3hv66fphSFpk9AlKSHeSD9D6SLeG/rp+mFIWmT0CUpId5IP0PpIt4b+un6YUhaZPQJSknBIP0PpIt4b+un6YUhaZPQJSkh3kg/Q+ki3hv66fphSFpk9AlKSHeSD9T6SLeG/rp+mFIWmT0CUpId5IP0PpIt4b+un6YUhaZPQJSkh3kg/Q+ki3hv66fphSFpk9AlKSHeSD9T6SLeG/rq+KQtMnoEpSQ7yQfofSRbw39dP0wpC0yegSlJDvJB+h9JFvDf10/TCkLTJ6BKUkO8kH6H0kW8N/XT9MKQtMnoEpSQ7yQfofSRbw39dP0wpC0yegSlJDvJB+p9JFvDf10f7SYUhaZPQpJOM/U+ki3hv66P9hMKQtMnoEpSTiP0PpIt4b+uj/YTCkLTJ6BKUk4JB+h9JFvDf10/TCkLTJ6BKUk4j9D6SLeG/rp+mFIWmT0CUpJxH6H0kW8N/XT9MKQtMnoEpSThkH6H0kW8N/XT9MKQtMnoEpSQ7yQfofSRbw39dP0wpC0yegSlJOGQfofSRbw39dP0wpC0yegSlJOGQfofSRbw39dXxSFpk9AlKScMg/Q+ki3hv66fphSFpk9AlKSHeSD9D6SLeG/rq+KQtMnoEpSQ7yQfofSRbw39dXxSFpk9AlKSHeSD9D6SLeG/rp+mFIWmT0CUpId5IP0PpIt4b+un6YUhaZPQJSkh3kg/Q+ki3hv66fphSFpk9AlKSHeSD9D6SLeG/rp+mFIWmT0CUpId5IP0PpIt4b+un6YUhaZPQJSkh3kg/Q+ki3hv66fphSFpk9AlKSHeSD9D6SLeG/rp+mFIWmT0CUpId5IP0PpIt4b+un6YUhaZPQJSkh3kg/Q+ki3hv66P9pMKQtMnoEpSTiP0PpIt4b+uj/YTCkLTJ6BKUkO4kH6H0kW8N/XT9MKQtMnoEpSQ7+B+h9JFvDf11fFIWmT0CUpJxH6H0kW8N/XV8UhaZPQJSknDIP0PpIt4b+un6YUhaZPQJSkh3kg/Q+ki3hv66fphSFpk9AlKScMg/Q+ki3hv66fphSFpk9AlKScMg/Q+ki3hv66vikLTJ6BKUk4ZB+h9JFvDf10/TCkLTJ6BKUkO8kH6H0kW8N/XT9MKQtMnoEpSThkH6H0kW8N/XT9MKQtMnoEpSQ7yQfqfSRbw39dP0wpC0yegSlJDvJB+p9JFvDf11fFIWmT0CUpId5IP0PpIt4b+un6YUhaZPQJSkh3kg/Q+ki3hv66fphSFpk9AlKSHeSD9D6SLeG/rp+mFIWmT0CUpId5IP0PpIt4b+un6YUhaZPQJSkh3kg/Q+ki3hv66fphSFpk9AlKSHeSD9D6SLeG/ro/2EwpC0yehSSHeSD9T6SLeG/ro/wBpMKQtMnoEpSQ7iQfofSRbw39dH+3gUhaZPQJSknEfofSRbw39dP0wpC0yegSlJOI/Q+ki3hv66fphSFpk9AlKSHeSD9D6SLeG/rp+mFIWmT0CUpJxH6H0kW8N/XV8UhaZPQJSkh38D9D6SLeG/rp+mFIWmT0CUpId/A/Q+ki3hv66fphSFpk9AlKScMg/Q+ki3hv66fphSFpk9AlKSHeSD9D6SLeG/rp+mFIWmT0CUpJwyD9D6SLeG/rp+mFIWmT0CUpJwyD9D6SLeG/rp+mFIWmT0CUpId5IP0PpIt4b+un6YUhaZPQJSknDIP0PpIt4b+un6YUhaZPQJSkh3kg/Q+ki3hv66fphSFpk9AlKSHfwP0PpIt4b+un6YUhaZPQJSkh3kg/Q+ki3hv66fphSFpk9AlISHeSD9D6SLeG/rp+mFIWmT0CUpId5IP0PpIt4b+un6YUhaZPQJSkh3kg/Q+ki3hv66fphSFpk9AlKSHeSD9D6SLeG/ro/2EwpC0yehSS8Z+h9JFvDf3FdMKQtMn+6Xwy8Zr/J9JFvDf1FOPPwIWmT/dLJOOpD/J9JFvDct5pq5aZP90vgXlwqNf5PpIt4b++j8guC0yf7pY+FRRG04cmP1jDsTkn+p+G4iBf8/Nh/iX+ii8xdAtMn+6XIc+FBBCBDhj/63d/z/RTYIpHFNeGXR6J8/m36/wAqGCGb3dsUQQXEtMn+6XwSCCCCC5QM5f8Aj3X/AATVd6tyX+Nhsu8I/wBhF+wb/oIgRAiBECIEQIgXAuBcC4FwLgXAuBcC4FwLgXAuBcC4FwLgXAuBcC4FwLgXAuBcC4ERIgRAiBECIEQLgXAuBcC4FwLgXAuBcC4FwLgXAuBcC4FwLgXAuBcC4FwLgXAuBcCP9hECIEQIgRAiBEC4FwLgXAuBcC4FwLgXAuBcC4FwLgXAuBcC4FwLgXAuBcC4FwLgXAiBECIEQIgRAiBcC4FwLgXAuBcC4FwLgXAuBcC4FwLgXAuBcC4FwLgXAuBcC4FwLgXATfoIv2Cb9gnfcTmmutNowXoZKGMWbEEE4FPiWmT/AHSxjEEGhB8Aww9D3l5eXl5eXl5eXl5eXl5eXl5eXl5eXl5eXl5eXl5eXl5fo95eXl5eXl5eXl5eXl5eXl5eXl5eXl5eXl5eXl5eXl5eX8e8vLy8vLy8vLy8vLy8vLy8vLy8vLy8vLy8vLy8vLy8vL+PeXl5eXl5eXl5eXl5eXl5eXl5eXl5eXl5eXl5eXl5eXl5eIorTAEEEELgtMn+6WPg0INDDDDDD8If/wD/AP8A/wD/AP8A/wD/AP8A/wD/AP8A/wD/AP8A/wD/AOiqeBBBISEhBCQhapP90vixoaH+B0DD4mwsLCwsLCwsLCwsLCzT1hYWFhYWFhYWFhYWFhYWFhYWFnBYWFhYWFhYWFhYWFuj2FhYWFhYWFhYWFhYWFhYWFhYWcFhYWFhYWFhYWFhYWaPYWFhYWFhYWFhYWFhYWFhYWFhYWFhYWFhYWFhYWFhYWaesLCwsLCwsLCwsLCwsLCwsLCwsLBBcBcgggkJCQkLgtUn+6XwgNDRBDDEOCDiWlpYWlhYWFhYWFhYWFhYWFhYWFhYWFhYWFhYWFhYWFun7S0sLCwsLCwsLCwsLCwsLCwsLCwsLCwsLCwsLCwsLNP2lpYWFhYWFhYWFhYWFhYWFhYWFhYWFhYWFhYWFhYWaftLSwtLCwsLCwsLCwsLCwsLCwsLCwsLCwsLCwsLCwsLP4eEEEEhCQkIWuT/AHS0QEMZAgNEBLwkAAAAAAAAAAAAAAAAAAAAAAAAQg4IcxIgQEhLitcnoksgQoNECAnIgQoQoQoQoQoQoQoQoQoQoQoQoQoQoQoQoQoQoQoQoQoQoQoQoQoQoQoQoQoQoQoQoQoQoQoQoQoQoQoQoQoQoQoQoQoQoQoQoQoQoQoQoQoQoQoQoQoQoQoQoQoQoQoQoQoQoQoQoQoQoQoQoQoQoQoQoQoQoQoQoQoQoQoQoQoQoQoQoQoQoQoQoQoQoQoQoQoQoQoQoQoQoQoQoQoQoQoQoQoQoQoQoQoQoQoQoQoQoQoQoQoQoQoQoQoQoQoQoQoQoQoQoQoQoQoQoQoQoQoQoQoQoQoQoQIEBrmIQoQIcV/CT0yYEPDq/hJ8eJk+PEyfHiZPjxMn+DnCQ0ikUikUikUikUikUikUikUikUikUikUikUikUikUikUikUikUikUikUikUikUikUikUikUikUikUikUikUikUikUikUikUikUikUikUikUikUikUikUikUikUikUikUikUikUikUikUikUikUikUikUikUikUikUikUikUikUikUikUikUikUikUikUikUikUikUikUikUikUikUikUikUikUikUikUikUikUikUikUikUikUikUikUikUikUikUikUikUikUikUiC8tP8A/9k=;clipPath=inset(9% 8.33% 10% 8%);" vertex="1" parent="1">
          <mxGeometry x="-1050" y="-10" width="974" height="628.63" as="geometry" />
        </mxCell>
        <mxCell id="-JUYCa4vQB_ef3A6vfml-2" value="" style="shape=image;verticalLabelPosition=bottom;labelBackgroundColor=default;verticalAlign=top;aspect=fixed;imageAspect=0;image=data:image/jpeg,/9j/4AAQSkZJRgABAQAAAQABAAD/2wBDAAUDBAQEAwUEBAQFBQUGBwwIBwcHBw8LCwkMEQ8SEhEPERETFhwXExQaFRERGCEYGh0dHx8fExciJCIeJBweHx7/2wBDAQUFBQcGBw4ICA4eFBEUHh4eHh4eHh4eHh4eHh4eHh4eHh4eHh4eHh4eHh4eHh4eHh4eHh4eHh4eHh4eHh4eHh7/wgARCAPoBdwDASIAAhEBAxEB/8QAGwABAAMBAQEBAAAAAAAAAAAAAAECAwUGBAf/xAAaAQEBAQEBAQEAAAAAAAAAAAAAAwECBAYF/9oADAMBAAIQAxAAAAH9lA4nb4nWcNC05QJQJQJQJQJQJQJQJQJQJQJQJQJQJQJQJQJQJQJQJQJQJQJQJQJQJQJQJQJQJQJQJQJQJQJQJQJQJQJQJQJQJQJQJQJQJQJQJQJQJQJQJQJQJQJQJQJQJQJQJQJQJQJQJQJQJQJQJQJQJQJQJQJQJQJQJQJQJQJQJQJQJQJQJQJQJQJQJRJ7ceeoADidvidZwhaYAAAAAAAAAAAAAAAAAAAAAAAAAAAAAAAAAAAAAAAAAAAAAAAAAAAAAAAAAAAAAAAAAAAAAAAAAAAAAAAAAAAAAAACYk9uPPUABxO3xOs4QtMAAAAAAAAAAAAAAAAAAAAAAAAAAAAAAAAAAAAAAAAAAAAAAAAAAAAAAAAAAAAAAAAAAAAAAAAAAAAAAAAAAAAAAABMSe3HnqAA4nb4nWcIWmAAAAAAAAAAAAAAAAAAAAAAAAAAAAAAAAAAAAAAAAAAAAAAAAAAAAAAAAAAAAAAAAAAAAAAAAAAAAAAAAAAAAAAAAmJPbjz1AAcTt8TrOELTAAAAAAAAAAAAAAAAAAAAAAAAAAAAAAAAAAAAAAAAAAAAAAAAAAAAAAAAAAAAAAAAAAAAAAAAAAAAAAAAAAAAAAAATEntx56gAOJ2+J1nCFpgAAECUCUCUCUCUCUCUCUCUCUCUCUCUCUCUCUCUCUCUCUCUCUCUCUCUCUCUCUCUCUCUCUCUCUCUCUCUCUCUCUCUCUCUCUCUCUCUCUCUCUCUCUCUCUCUCUCUCUCUCUCUCUCUCUCUCUCUCUCUCUCUCUCUCUCUCUCUCUCUCUCUCUCUSAJiT2489QAHE7fE6zhC0wABAAIJ327XO8t1GOW6g5bqDluoOW6g5bqDluoOW6g5bqDluoOW6g5bqDluoOW6g5bqDluoOW6g5bqDluoOW6g5bqDluoOW6g5bqDluoOW6g5bqDluoOW6g5bqDluoOW6g5bqDluoOW6g5bqDluoOW6g5bqDluoOW6g5bqDluoOW6g5bqDluoOW6g5bqDluoOW6g5bqDluoOW6g5bqDluoOW6g5bqDluoOW6g5bqDluoOW6g5bqDluoOW6g5bqDluoOW6g5bqDluoOW6g5bqDluoOW6g5bqDl59geYd/gdYQ1IAExIAmJPbjz1AAcTt8TrOELTAAQCEExA9LqcaDQAAwGgYDQAACtmA0rZgNGDN3x7moaAt9Vud+R9WuPgfePgfePgfePgfePgfePgfePgfePgfePgfePgfePgfePgfePgfePgfePgfePgfePgfePgfePgfePgfePgfePgfePgfePgfePgfePgfePgfePgfePgfePgfePgfePgfePgfePgfePgfePgfePgfePgfePgfePgfePgfePgfePgfePgfePgfePgfePgr0RzX1fL1gaAI+Rn2KXBDZYGbsNC4a43Z5TOXNZ7yUCZiRMSAJiT2489QAHE7fE6zhC0wBAiaiECFT1w46Za/Jz352cX5313r5x093yfxTSflf1ujVl9T+Fx2b8n5r0Vsdv2vpA67AfB9fzbn12MA3495+bc+0ZueM67mnw/d8B975Prw3w+jN+jl9Xk87p93M6Otxx0AAAAAAAAAAAAAAAAAAAAAAAAAAAAAAAAAAAAAAAAAAAAAA+H7vj6zEd8j52b/E+7Xy/VE4ENoxbm1vn1xqGuT1uQzlWzt3l0C0xImJAExJ7ceeoADidvidZwhaYCJgVtUitqEQrr2In0Bzp6CfoCnnwnZ5qB6Z/FP2JQCtwAGOxlLgDfl+oYDXw/cZ8d/pANWqx0Y+LfjrX5N2t2DG7AbsBuwG7AbsBuwG7AbsBuwG7AbsBuwG7AbsBuwG7AbsBuwG7AbsBuwG7AbsBuwG7AbsBuwG7AbsBuwG7AbsBuwG7AbsBuwG7AbsBuwG7AbsBuwG7AbsBuwG7Cpv8E165Do5fUMw3AGokfI+tufJtqwDXH7HGZybZ37y9qWLTEiYkATEntx56gAOJ2+J1nCFpgImBWYK0tQik117QmfUJEJEJEJEJEJEJEJEJEJEJEJEJEJEJEJEJEJEJEJEJEJEJEJEJEJEJEJEJEJEJEJEJEJEJEJEJEJEJEJEJEJEJEJEJEJEJEJEJEJEJEJEJEJEJEJEJEJEJEJEJEJEJEJEJEJEJEJEJEJEJEJEJEJEJEJEcXt8Tc49s795pfO+LzWwmJAExJ7ceeoADidvidZwhaYCJgiJqVpfMrS1NfpA81QAAAAAAAAAAAAAAAAAAAAAAAAAAAAAAAAAAAAAAAAAAAAAAAAAAAAAAAAAAAAAAAAAAAAAAAAAAAHm/Sea6zzumWl56Xz0xa1bCYkATEntx56gAOJ2+J1nCFpgImCK2qUpfMpS+ev0oeaoAAAAAAAAAAAAAAAAAAAAAAAAAAAAAAAAAAAAAAAAAAAAAAAAAAAAAAAAAAAAAAAAAAAAAAAAAAADzXpfM9Z53TO956XpfF7VsJiQBMSe3HnqAA4nb4nWcIWmAiYIrapTPTMpnpnr9KHmqAAAAAAAAAAAAAAAAAAAAAAAAAAAAAAAAAAAAAAAAAAAAAAAAAAAAAAAAAAAAAAAAAAAAAAAAAAAA8z6bzPWedvS956XpfF7VsJiQBMSe3HnqAA4nb4nWcIWmAiYIrapTPTMpnpnr9KHmqAAAAAAAAAAAAAAAAAAAAAAAAAAAAAAAAAAAAAAAAAAAAAAAAAAAAAAAAAAAAAAAAAAAAAAAAAAAA8z6bzPWedvS956XpfF7VsJiQBMSe3HnqAA4nb4nWcIWmAiYIrapTPTMpnpnr9KHmqAAAAAAAAAAAAAAAAAAAAAAAAAAAAAAAAAAAAAAAAAAAAAAAAAAAAAAAAAAAAAAAAAAAAAAAAAAAA8z6bzPWedvS956XpfF7VsJiQBMSe3HnqAA4nb4nWcIWmAiYIrapTPTMpnpnr9KHmqAAAAAAAAAAAAAAAAAAAAAAAAAAAAAAAAAAAAAAAAAAAAAAAAAAAAAAAAAAAAAAAAAAAAAAAAAAAA8z6bzPWedvS956XpfF7VsJiQBMSe3HnqAA4nb4nWcIWmAiYIrapTPTMpnpnr9KHmqAAAAAAAAAAAAAAAAAAAAAAAAAAAAAAAAAAAAAAAAAAAAAAAAAAAAAAAAAAAAAAAAAAAAAAAAAAAA8z6bzPWedvS956XpfF7VsJiQBMSe3HnqAA4nb4nWcIWmAiYIrapTPTMpnpnr9KHmqAAAAAAAAAAAAAAAAAAAAAAAAAAAAAAAAAAAAAAAAAAAAAAAAAAAAAAAAAAAAAAAAAAAAAAAAAAAA8z6bzPWed0z0vO96Xxe1bCYkATEntx56gAOJ2+J1nCFpgImCK2qUz0zKZ6Z6/Sh5qgAAAAAAAAAAAAAAAAAAAAAAAAAAAAAAAAAAAAAAAAAAAAAAAAAAAAAAAAAAAAAAAAAAAAAAAAAAAPM+m8z1nnb0veel6Xxe1bCYkATEntx56gAOJ2+J1nCFpgImCK2qUz0zKZ6Z6/Sh5qgAAAAAAAAAAAAAAAAAAAAAAAAAAAAAAAAAAAAAAAAAAAAAAAAAAAAAAAAAAAAAAAAAAAAAAAAAAAPM+m8z1nnb0veel6Xxe1bCYkATEntx56gAOJ2+J1nCFpgImCK2qUz0zKZ6Z6/Sh5qgAAAAAAAAAAAAAAAAAAAAAAAAAAAAAAAAAAAAAAAAAAAAAAAAAAAAAAAAAAAAAAAAAAAAAAAAAAAPM+m8z1nnb0veel6Xxe1bCYkATEntx56gAOJ2+J1nCFpgImCK2qUz0zKZ6Z6/Sh5qgAAAAAAAAAAAAAAAAAAAAAAAAAAAAAAAAAAAAAAAAAAAAAAAAAAAAAAAAAAAAAAAAAAAAAAAAAAAPM+m8z1nnb0veel6Xxe1bCYkATEntx56gAOJ2+J1nCFpgImCK2qUz0zKZ6Z6/Sh5qgAAAAAAAAAAAAAAAAAAAAAAAAAAAAAAAAAAAAAAAAAAAAAAAAAAAAAAAAAAAAAAAAAAAAAAAAAAAPM+m8z1nnb0veel6Xxe1bCYkATEntx56gAOJ2+J1nCFpgImCK2qUz0zKZ6Z6/Sh5qgAAAAAAAAAAAAAAAAAAAAAAAAAAAAAAAAAAAAAAAAAAAAAAAAAAAAAAAAAAAAAAAAAAAAAAAAAAAPM+m8z1nnb0veel6Xxe1bCYkATEntx56gAOJ2+J1nCFpgImCK2qUz0zKZ6Z6/Sh5qgAAAAAAAAAAAAAAAAAAAAAAAAAAAAAAAAAAAAAAAAAAAAAAAAAAAAAAAAAAAAAAAAAAAAAAAAAAAPM+m8z1nnb0veel6Xxe1bCYkATEntx56gAOJ2+J1nCFpgImCK2qUz0zKZ6Z6/Sh5qgAAAAAAAAAAAAAAAAAAAAAAAAAAAAAAAAAAAAAAAAAAAAAAAAAAAAAAAAAAAAAAAAAAAAAAAAAAAPM+m8z1nnb0veel6Xxe1bCYkATEntx56gAOJ2+J1nCFpgImCK2qUz0zKZ6Z6/Sh5qgAAAAAAAAAAAAAAAAAAAAAAAAAAAAAAAAAAAAAAAAAAAAAAAAAAAAAAAAAAAAAAAAAAAAAAAAAAAPM+m8z1nndM73npel8XtWwmJAExJ7ceeoADidvidZwhaYCJgitqlM9Mymemev0oeaoAAAAAAAAAAAAAAAAAAAAAAAAAAAAAAAAAAAAAAAAAAAAAAAAAAAAAAAAAAAAAAAAAAAAAAAAAAADzPpvM9Z529L3npel8XtWwmJAExJ7ceeoADidvidZwhaYCJgitqlM9Mymemev0oeaoAAAAAAAAAAAAAAAAAAAAAAAAAAAAAAAAAAAAAAAAAAAAAAAAAAAAAAAAAAAAAAAAAAAAAAAAAAADzPpvM9Z529L3npel8XtWwmJAExJ7ceeoADidvidZwhaYCJgitqlM9Mymemev0oeaoAAAAAAAAAAAAAAAAAAAAAAAAAAAAAAAAAAAAAAAAAAAAAAAAAAAAAAAAAAAAAAAAAAAAAAAAAAADzPpvM9Z529L3npel8XtWwmJAExJ7ceeoADidvidZwhaYCJgitqlM9Mymemev0oeaoAAAAAAAAAAAAAAAAAAAAAAAAAAAAAAAAAAAAAAAAAAAAAAAAAAAAAAAAAAAAAAAAAAAAAAAAAAADzPpvM9Z529L3npel8XtWwmJAExJ7ceeoADidvidZwhaYCJgitqlM9Mymemev0oeaoAAAAAAAAAAAAAAAAAAAAAAAAAAAAAAAAAAAAAAAAAAAAAAAAAAAAAAAAAAAAAAAAAAAAAAAAAAADzPpvM9Z529L3npel8XtWwmJAExJ7ceeoADidvidZwhaYCJgitqlM9Mymemev0oeaoAAAAAAAAAAAAAAAAAAAAAAAAAAAAAAAAAAAAAAAAAAAAAAAAAAAAAAAAAAAAAAAAAAAAAAAAAAADzPpvM9Z529L3npel8XtWwmJAExJ7ceeoADidvidZwhaYCJgitqlM9Mymemev0oeaoAAAAAAAAAAAAAAAAAAAAAAAAAAAAAAAAAAAAAAAAAAAAAAAAAAAAAAAAAAAAAAAAAAAAAAAAAAADzPpvM9Z529L3npel8XtWwmJAExJ7ceeoADidvidZwhaYCJgitqlM9Mymemev0oeaoAAAAAAAAAAAAAAAAAAAAAAAAAAAAAAAAAAAAAAAAAAAAAAAAAAAAAAAAAAAAAAAAAAAAAAAAAAADzPpvM9Z529L3npel8XtWwmJAExJ7ceeoADidvidZwhaYCJgitqlM9Mymemev0oeaoAAAAAAAAAAAAAAAAAAAAAAAAAAAAAAAAAAAAAAAAAAAAAAAAAAAAAAAAAAAAAAAAAAAAAAAAAAADzPpvM9Z529L3npel8XtWwmJAExJ7ceeoADidvidZwhaYCJgitqlM9Mymemev0oeaoAAAAAAAAAAAAAAAAAAAAAAAAAAAAAAAAAAAAAAAAAAAAAAAAAAAAAAAAAAAAAAAAAAAAAAAAAAADzPpvM9Z529L3npel8XtWwmJAExJ7ceeoADidvidZwhaYCJgitqlM9Mymemev0oeaoAAAAAAAAAAAAAAAAAAAAAAAAAAAAAAAAAAAAAAAAAAAAAAAAAAAAAAAAAAAAAAAAAAAAAAAAAAADzPpvM9Z529L3npel8XtWwmJAExJ7ceeoADidvidZwhaYCJgitqlM9Mymemev0oeaoAAAAAAAAAAAAAAAAAAAAAAAAAAAAAAAAAAAAAAAAAAAAAAAAAAAAAAAAAAAAAAAAAAAAAAAAAAADzPpvM9Z529L3npel8XtWwmJAExJ7ceeoADidvidZwhaYCJgitqlM9Mymemev0oeaoAAAAAAAAAAAAAAAAAAAAAAAAAAAAAAAAAAAAAAAAAAAAAAAAAAAAAAAAAAAAAAAAAAAAAAAAAAADzPpvM9Z529L3npel8XtWwmJAExJ7ceeoADidvidZwhaYCJgitqlM9Mymemev0oeaoAAAAAAAAAAAAAAAAAAAAAAAAAAAAAAAAAAAAAAAAAAAAAAAAAAAAAAAAAAAAAAAAAAAAAAAAAAADzPpvM9Z529L3npel8XtWwmJAExJ7ceeoADidvidZwhaYCJgitqlM9Mymemev0oeaoAAAAAAAAAAAAAAAAAAAAAAAAAAAAAAAAAAAAAAAAAAAAAAAAAAAAAAAAAAAAAAAAAAAAAAAAAAADzPpvM9Z529L3npel8XtWwmJAExJ7ceeoADidvidZwhaYCJgitqlM9Mymemev0oeaoAAAAAAAAAAAAAAAAAAAAAAAAAAAAAAAAAAAAAAAAAAAAAAAAAAAAAAAAAAAAAAAAAAAAAAAAAAADzPpvM9Z529L3npel8XtWwmJAExJ7ceeoADidvidZwhaYCJgitqlM9Mymemev0oeaoAAAAAAAAAAAAAAAAAAAAAAAAAAAAAAAAAAAAAAAAAAAAAAAAAAAAAAAAAAAAAAAAAAAAAAAAAAADzPpvM9Z529L3npel8XtWwmJAExJ7ceeoADidvidZwhaYCJgitqlM9Mymemev0oeaoAAAAAAAAAAAAAAAAAAAAAAAAAAAAAAAAAAAAAAAAAAAAAAAAAAAAAAAAAAAAAAAAAAAAAAAAAAADzPpvM9Z529L3npel8XtWwmJAExJ7ceeoADidvidZwhaYCJgitqlM9Mymemev0oeaoAAAAAAAAAAAAAAAAAAAAAAAAAAAAAAAAAAAAAAAAAAAAAAAAAAAAAAAAAAAAAAAAAAAAAAAAAAADzPpvM9Z529NLzvel8XtWwmJAExJ7ceeoADidvidZwhaYCJgitqlM9Mymemev0oeaoAAAAAAAAAAAAAAAAAAAAAAAAAAAAAAAAAAAAAAAAAAAAAAAAAAAAAAAAAAAAAAAAAAAAAAAAAAADzPpvM9Z53TO956XpfF7VsJiQBMSe3HnqAA4nb4nWcIWmAiYIrapTPTMpnpnr9KHmqAAAAAAAAAAAAAAAAAAAAAAAAAAAAAAAAAAAAAAAAAAAAAAAAAAAAAAAAAAAAAAAAAAAAAAAAAAAA8z6bzPWedvS956XpfF7VsJiQBMSe3HnqAA4nb4nWcIWmAiYIrapTPTMpnpnr9KHmqAAAAAAAAAAAAAAAAAAAAAAAAAAAAAAAAAAAAAAAAAAAAAAAAAAAAAAAAAAAAAAAAAAAAAAAAAAAA8z6bzPWedvS956XpfF7VsJiQBMSe3HnqAA4nb4nWcIWmAiYIrapTPTMpnpnr9KHmqAAAAAAAAAAAAAAAAAAAAAAAAAAAAAAAAAAAAAAAAAAAAAAAAAAAAAAAAAAAAAAAAAAAAAAAAAAAA8z6bzPWedvS956XpfF7VsJiQBMSe3HnqAA4nb4nWcIWmAiYIrapTPTMpnpnr9KHmqAAAAAAAAAAAAAAAAAAAAAAAAAAAAAAAAAAAAAAAAAAAAAAAAAAAAAAAAAAAAAAAAAAAAAAAAAAAA8z6bzPWedvS956XpfF7VsJiQBMSe3HnqAA4nb4nWcIWmAiYIrapTPTMpnpnr9KHmqAAAAAAAAAAAAAAAAAAAAAAAAAAAAAAAAAAAAAAAAAAAAAAAAAAAAAAAAAAAAAAAAAAAAAAAAAAAA8z6bzPWedvS956XpfF7VsJiQBMSe3HnqAA4nb4nWcIWmAiYIrapTPShnnpTX6SPNUAAAAAAAAAAAAAAAAAAAAAAAAAAAAAAAAAAAAAAAAAAAAAAAAAAAAAAAAAAAAAAAAAAAAAAAAAAAB5r0vmus85pS953vW+LWrYTEgCYk9uPPUABxO3xOs4QtMBEwRW1SlNKGdNKa/Rx5qgAAAAAAAAAAAAAAAAAAAAAAAAAAAAAAAAAAAAAAAAAAAAAAAAAAAAAAAAAAAAAAAAAAAAAAAAAAAPN+k831nnNKXvO96aYm0SJiQBMSe3HnqAA4nb4nWcIWmAiYFL1KU0oUppTXvfo8j66FA50AAAAAAAAAAAAAAAAAAAAAAAAAAAAAAAAAAAAAAAAAAAAAAAAAAAAAAAAAAAAAAAAAAAAAAAAAAB5PveKpzW8Wrxa9bYtMSJiQBMSe3HnqAA4nb4nWcIWmAiYFZgil6lK6V1n9fzVx3589XN9E85B6N5yD0jzcno3nB6N5wejecHo3nB6N5wejecHo3nB6N5wejecHo3nB6N5wejecHo3nB6N5wejecHo3nB6N5yD0jzcno3nB6N5wejecHo3nB6N5wejecHo3nB6N5wejecHo3nB6N5wejecHo3nB6N5wejecHo3nB6N5sekecHo3nB6N5wejecHo3nB6N5wejecHo3nB6N5wejecHo3nB6N5wejecHo3nB6N5wejecHo3nIPSPNyejecHo3nB6N5wejecHo3nB6N5wejecHo3nB6N5wejecHo3nB6N5wejecHo3nB6N5wejecHo582PST5uT0fz8WxJbrFk4taJJmJExIAmJPbjz1AAcTt8TrOELTARMERMEJgrF6lIvBnGkapGkGbQZtBm0GbQZtBm0GbQZtBm0GbQZtBm0GbQZtBm0GbQZtBm0GbQZtBm0GbQZtBm0GbQZtBm0GbQZtBm0GbQZtBm0GbQZtBm0GbQZtBm0GbQZtBm0GbQZtBm0GbQZtBm0GbQZtBm0GbQZtBm0GbQZtBm0GbQZtBm0GbQZtBm0GbQZtBm0GbQZtBm0GbQZtBnN5KLis2kiZnEWSJSJCQAJiT2489QAHE7fE6zhC0wETBCYwTGoiREWgqsKLwVi4ouKLii4ouKLii4ouKLii4ouKLii4ouKLii4ouKLii4ouKLii4ouKLii4ouKLii4ouKLii4ouKLii4ouKLii4ouKLii4ouKLii4ouKLii4ouKLii4ouKLii4ouKLii4ouKLii4ouKLii4ouKLii4ouKLii4ouKLii4ouKTaSi4qsImQSCQmJAAExJ7ceeoADidvidZwhaYCJgAAhIiLCsyISISISISISISISISISISISISISISISISISISISISISISISISISISISISISISISISISISISISISISISISISISISISISISISISISISISISISISISISISISISISISISISISISISISISISISISISISISKzIhIAAkAACYk9uPPUABxO3xOs4QtMAAAAAAAAAAAAAAAAAAAAAAAAAAAAAAAAAAAAAAAAAAAAAAAAAAAAAAAAAAAAAAAAAAAAAAAAAAAAAAAAAAAAAAABMSe3HnqAA4nb4nWcIWmAAAAAAAAAAAAAAAAAAAAAAAAAAAAAAAAAAAAAAAAAAAAAAAAAAAAAAAAAAAAAAAAAAAAAAAAAAAAAAAAAAAAAAAAmJPbjz1AAcQ6zhi0wAAAAAAAAAAAAAAAAAAAAAAAAAAAAAAAAAAAAAAAAAAAAAAAAAAAAAAAAAAAAAAAAAAAAAAAAAAAAAAAAAAAAAAAAPbjz1A//xAAqEAACAQIHAAICAgMBAQAAAAAAATACBQMQEhMUFXAEESAhQGAiMVAyM//aAAgBAQABBQLO6eaKC6+aKC6+aKC6+aKC6+aKC6+aKC6+aKC6+aKC6+aKC6+aKC6+aKC6+aKC6zYeFXWcQ4hxDiHEOIcQ4hxDiHEOIcQ4hxDiHEOIcQ4hxDiHEOIcQ4hxDiHEOIcQ4hxDiHEOIcQ4hxDiHEOIcQ4hxDiHEOIcQ4hxDiHEOIcQ4hxDiHEOIcQ4hxDiHEOIcQ4hxDiHEOIcQ4hxDiHEOIcQ4hxDiHEOIcQ4hxDiHEOIcQ4hxDiHEOIcQ4hxDiHEOIcQ4hxDiHEOIcQ4hxDiHEOIcQ4hxDiHEOIcQ4hxDiHEOIcQ4hxDiHEOIcQ4hxDiHEOIcQ4hxDiHEOIcQ4hxDiHEOIcQq+LWh/acigusvxcLW/GcbCWJS0041BdZcKnTh/8AG+maajTUaajTUaajTUaajTUaajTUaajTUaajTUaajTUaajTUaajTUaajTUaajTUaajTUaajTUaajTUaajTUaajTUaajTUaajTUaajTUaajTUaajTUaajTUaajTUaajTUaajTUaajTUaajTUaajTUaajTUaajTUaajTUaajTUaajTUaajTUaajTUaajTUaajTUaajTUaajTUaajTUaajTUaajTUaajTUaajTUaajTUaajTUaaj6f8T51P1iRqC6/8NNNZpp/jiYtFBvMw66a1+FFH0V10UKjEor/sFdH5N/S5GGUVKunPdwjdwjdwimqmr8LhIoLr/Axa1h4eJiV4lWFiV4dVFSroqf0m2yltC/arq0UV11VvDrqodL1U/k28eqlKlZ4tDVWFWsSnLEq0UfHo+kY60PPBX+VT+qfi4SxV8nApVODXuYX9fxF9Vfg39L9458X/AOGeig0UGigSS/C4SKC6/wAD5dLq+Pl8al04GJ+6MqP1T8hfeDlgrThfjiU66MCrT+OJWqKcCh68vkr7wMN6qD5VFTXx6KkssEqX2sDF458v5VDw/j6Vg/1/F/8AedNf+X7x2f6zf7WwjZRsooo0fhcZFBdf4OL8TDreF8Wih5VYaZThpZ1/HpqeHgU0v88XDWJTRq0Z7f3i/hprwnvMwlias6X9P/ZUlUKmlLBwXhYv9eqf0n+3niYeJu4brf4v/X18g+vkH18gw9f4XKRQXX/p01Ok3TdRuo3UbqN1G6jdRuo3UbqN1G6jdRuo3UbqN1G6jdRuo3UbqN1G6jdRuo3UbqN1G6jdRuo3UbqN1G6jdRuo3UbqN1G6jdRuo3UbqN1G6jdRuo3UbqN1G6jdRuo3UbqN1G6jdRuo3UbqN1G6jdRuo3UbqN1G6jdRuo3UbqN1G6jdRuo3UbqN1G6jdRuo3UbqN1G6jdRuo3UbqN1DxRtv+Hc5FBdfKLnIoLrC/H7pIoLrC/H73IoLr5Re5FBdY347fM1CoLrCxj8dvkigusLGPx2+SKC6wvJ+O3yRQXWFjH47fJFBdYXk/Hb5IoLrC8n47fJFBdYXk/Hb5IoLrC8n47fJFBdYXk/Hb5IoLrCxj8dvkigusLyfjt8kUF1heT8dvkigusLyfjt8kUF1heT8dvkigusLyfjt8kUF1heT8dvkigusLyfjt8kUF1heT8dvkigusLyfjt8kUF1heT8dvkigusLyfjt8kUF1hYx+O3yRQXWFjH47fJFBdYWMfjt8kUF1hYx+O3yRQXWF5Px2+SKC6wvJ+O3yRQXWF5Px2+SKC6wvJ+O3yRQXWF5Px2+SKC6wvJ+O3yRQXWF5Px2+SKC6wvJ+O3yRQXWF5Px2+SKC6wvJ+O3yRQXWF5Px2+SKC6wvJ+O3yRQXWF5Px2+SKC6wvJ+O3yRQXWF5Px2+SKC6wvJ+O3yRQXWFjH47fJFBdYWMfjt8kUF1heT8dvkigusLGPx2+SKC6wvJ+O3yRQXWF5Px2+SKC6wvJ+O3yRQXWF5Px2+SKC6wvJ+O3yRQXWF5Px2+SKC6wvJ+O3yRQXWF5Px2+SKC6wvJ+O3yRQXWF5Px2+SKC6wvJ+O3yRQXWF5Px2+SKC6wvJ+O3yRQXWF5Px2+SKC6wvJ+O3yRQXWF5Px2+SKC6wsY/Hb5IoLrCxj8dvkigusLGPx2+SKC6wvJ+O3yRQXWFjH47fJFBdYXk/Hb5IoLrC8n47fJFBdYXk/Hb5IoLrC8n47fJFBdYXk/Hb5IoLrC8n47fJFBdYXk/Hb5IoLrC8n47fJFBdYXk/Hb5IoLrC8n47fJFBdYXk/Hb5IoLrC8n47fJFBdYXk/Hb5IoLrC8n47fJFBdYXk/Hb5IoLrG/Hb5moVBdY347fBRqC6+UXsUaguvlF7kUF1kZ8avcwPGrxXq+RGoLrLbvlbNXjPy/k0/HoqbqqjUF1mwPk42AK6M7U7U7U7U7Y7Y7Y7Y7Y7Y7Y7Y7Y7Y7Y7Y7Y7Y7Y7Y7Y7Y7Y7Y7Y7Y7Y7Y7Y7Y7Y7Y7Y7Y7Y7Y7Y7Y7Y7Y7Y7Y7Y7Y7Y7Y7Y7Y7Y7Y7Y7Y7Y7Y7Y7Y7Y7Y7Y7Y7Y7Y7Y7Y7Y7Y7Y7Y7Y7Y7Y7Y7Y7Y7U7Y7Y7Y7Y7Y7Y7Y7Y7Y7Y7Y7Y7Y7Y7Y7Y7Y7Y7Y7Y7Y7Y7Y7Y7Y7Y7Y7Y7Y7Y7Y7Y7Y7Y7Y7Y7Y7Y7Y7Y7Y7Y7Y7Y7Y7Y7Y7Y7Y7Y7Y7Y7Y7Y7Y7Y7Y7Y7Y7Y7Y7Y7Y7Y7Y7Y7Y7Y7Y7Y7Y7U7U7U7QxLljVFTdVUiguvmiguvmiguvmiguvmiguvmiguvmiguvmiguvmiguvmiguvmiguvmigunmi/H//xAAlEQADAQEBAAIBBAIDAAAAAAAAARExYDACEgMQEyFAFCAiQVD/2gAIAQMBAT8BHnPPOeec88555zzznnnPPP7UIQhCEIQhCEIQhCEIQhCEIQhCEIQhCEIQhCEIQhCE/qPPD8SXy+aXyw/b+P1+s/gfx+P7v1/6p9VIfn/4r5fU+/yv2v8AJ8G38U34v9EMW/8AoP8ApvPH/L/N9fr9v4/T975yX9P8b8X2+09afwUpSlKUpSlKUpSlKUpSlKUpSlKUpSlKUpSlKUpSlH/Tec885R55POUeeTzlHnk85R55POUeeTzlHnk85R55POUeeTzlHnk85R55POUeeTzlHnk85R55POUeeTzlHnk85R55POUeeTzlHnk85R55POUeeTzlHnk85R55POUeeTzlHnk85R55POUeeTzlHnk85R55POUeeTzlHnk85R55POUeeTzlHnk85R55POUeeTzlHnk85R55POUeeTzlHnk85R55POUeeTzlHnk85R55POUeeTz/AHXG/J+TzwpWVlZWVlZWVlZWVlZWVlZWVlZWVlZWVlZWVlZWVlZWVlZWVlZSsrKysrKysrKysrKysrKysrKysrKysrKysrKysrKysrKysrKysvm8555zzznnnPPOeec7/8QAJBEAAQUBAQACAgIDAAAAAAAAAAECERIxYDAQIRMgA0EUQFD/2gAIAQIBAT8BG7zzd55u883eebvPN3nm7+8kkkkkkkkkkkkkkkkkkkkkkkkkkkkkkkkkkkkkkkkkkkkkkkkkkkkkkkkkkkkkkkkkkkkkkkkkkkk+bd/14+ZJLFixYsWLFixYsWLFixYsWLFixYsWLFixYsWLFixYsWLFixYsWLFixYsT8x8x8p5N3wdhKzJ/I5yfxqqbB+R1rT9iOd+K39wWWZG/affyn6/0J8KJn0LMff8A0G/Ofsnk3fH8bZmPj/E/htav38fhZMx6wfZBBBBBBBBBBBBBBBBBBBBBBBBBBBBBBBBBBBBBBBBBBBBBBAifCLH6T8p5N3lE3ybvKM3ybvKM3ybvKM3ybvKM3ybvKM3ybvKM3ybvKM3ybvKM3ybvKM3ybvKM3ybvKM3ybvKM3ybvKM3ybvKM3ybvKM3ybvKM3ybvKM3ybvKM3ybvKM3ybvKM3ybvKM3ybvKM3ybvKM3ybvKM3ybvKM3ybvKM3ybvKM3ybvKM3ybvKM3ybvKM3ybvKM3ybvKM3ybvKM3ybvKM3ybvKM3ybvKM3ybvKM3ybvKM3ybvKM3ybvKM3ybvKM3ybvKM3ybvKM3ybvKM3ybv7uSONYn9+Td8KIUQohRCiFEKIUQohRCiFEKIUQohRCiFEKIUQohRCiFEKIUQohRCiFEKIUQohRCiFEKIUQohRCiFEKIUQohRCiFEKIUQohRCiFEKIUQohRCiFEKIUQohRCiFEKIUQohRCiFEKIUQohVPNu883eebvPN3nm7zzd53/8QANBAAAQEHBAAEBQMFAAMAAAAAAAEDMTIzgaGiAhFAcBIgIVEQEyJBkTBgYSNCUHGSUmKx/9oACAEBAAY/Avizr14zr14zr14zr14zr14zr14zr14zr14zr14zr14zr14zr14zr+t6J6e5HYjsR2I7EdiOxHYjsR2I7EdiOxHYjsR2I7EdiOxHYjsR2I7EdiOxHYjsR2I7EdiOxHYjsR2I7EdiOxHYjsR2I7EdiOxHYjsR2I7EdiOxHYjsR2I7EdiOxHYjsR2I7EdiOxHYjsR2I7EdiOxHYjsR2I7EdiOxHYjsR2I7EdiOxHYjsR2I7EdiOxHYjsR2I7EdiOxHYjsR2I7EdiOxHYjsR2I7EdiOxHYjsR2I7EdiOxHYjsR2I7EdiOxHYjsR2I7EdiOxHYjsR2I7EdiOxHYjsR2I7EdiOxHYjsR2I7EdiOxHYjsR2I7EdiOxHYjsR2I7EdiOxHY+lU1GypsvFZ1/V8WqFOmv5+ymy8RnX9XTp/w7hyjlHKOUco5RyjlHKOUco5RyjlHKOUco5RyjlHKOUco5RyjlHKOUco5RyjlHKOUco5RyjlHKOUco5RyjlHKOUco5RyjlHKOUco5RyjlHKOUco5RyjlHKOUco5RyjlHKOUco5RyjlHKOUco5RyjlHKOUco5RyjlHKOUco5RyjlHKOUco7iJq904jOv+D3Rd08i7K7y+r/AGQ9WOvY30r5fV5vr1In+z6NaL+4N0825/d+DxI7yTNJM0kzSfSqL5NHEZ14C61+xvqU30rQTUn3Nz1PQ3F1exvqU3RRNSffz+HT6M0evubI7yfNZRfdPc3T8fFdXsePV669X3+HztP2i/nyqvsfPbfUup38HzWSeDXp9fQ06/dP3LupuvozS5p8kGn8EGn8EGn8HoiJ5NHEZ14GpE+OhFfsL8UF2+OlF8y6d9tz5OtNtSO/ny+LUK11em/2+OoRU9vh4tPtsqHi1r9S/FRU9z5Db6dodXuatDJfEqvVPsaE0rumz/3I03220m6+jL/75o2n/RG0/wCiNp/0PVf9r5NHEZ14O+lfCeJV8S/H2Pf47p9Juv1fobK/7KJ413XyePWu+0KeX+mni0f+J6Mde54mi7f+vk3+HqiKbJpRKC+DV/SX+32/b+/l1fT4tCrvtu8+pn4U/wB+X0Imf4Imf4Imf4PrXTTyaK8RnX/J+g4co5RyjlHKOUco5RyjlHKOUco5RyjlHKOUco5RyjlHKOUco5RyjlHKOUco5RyjlHKOUco5RyjlHKOUco5RyjlHKOUco5RyjlHKOUco5RyjlHKOUco5RyjlHKOUco5RyjlHKOUco5RyjlHKOUco5RyjlHKOUco5RyjlHKOUco5RyjlHKeiHrw2deIzr1QzrxGdeqGdeIzr1QyrxGdeqGVeIzr1QyrxGdeqGVeIzr1QyrxGdeqGVeIzr1QyrxGdeqGVeIzr1QyrxGdeqGVeIzr1QyrxGdeqGVeIzr1QyrxGdeqGVeIzr1QyrxGdeqGVeIzr1QyrxGdeqGVeIzr1QyrxGdeqGVeIzr1QyrxGdeqGVeIzr1QyrxGdeqGVeIzr1QyrxGdeqGVeIzr1QyrxGdeqGVeIzr1QyrxGdeqGVeIzr1QyrxGdeqGVeIzr1QyrxGdeqGVeIzr1QyrxGdeqGVeIzr1QyrxGdeqGVeIzr1QyrxGdeqGVeIzr1QyrxGdeqGVeIzr1QyrxGdeqGVeIzr1QyrxGdeqGVeIzr1QyrxGdeqGVeIzr1QyrxGdeqGVeIzr1QyrxGdeqGVeIzr1QyrxGdeqGVeIzr1QyrxGdeqGVeIzr1QyrxGdeqGVeIzr1QyrxGdeqGVeIzr1QyrxGdeqGVeIzr1QyrxGdeqGVeIzr1QyrxGdeqGVeIzr1QyrxGdeqGVeIzr1QyrxGdeqGVeIzr1QyrxGdeqGVeIzr1QyrxGdeqGVeIzr1QyrxGdeqGVeIzr1QyrxGdeqGVeIzr1QyrxGdeqGVeIzr1QyrxGdeqGVeIzr1QyrxGdeqGVeIzr1QyrxGdeqGVeIzr1QyrxGdeqGVeIzr+ro1+6dN6dCf2pxGdf1fl64Ft0176lcgurUu6rxGdf1ttGr6fZT1Y5EjIkZEjIkZEjIkZEjIkZEjIkZEjIkZEjIkZEjIkZEjIkZEjIkZEjIkZEjIkZEjIkZEjIkZEjIkZEjIkZEjIkZEjIkZEjIkZEjIkZEjIkZEjIkZEjIkZEjIkZEjIkZEjIkZEjIkZEjIkZEjIkZEjIkZEjIkZEjIkZEjIkZEjIkZEjIkZEjIkZEjIkZEjIkZEjIkZEjIkZEjIkZEjIkZEjIkZEjIkZEjIkZEjIkZEjIkZEjIkZEjIkZEjIkZEjIkZEjIkZEjIkZEjIkZEjIkZEjIkZEjIkZEjIkZEjIkZEjIkZEjIkZEjIkZEjIkZEjIkZEjIkZEjIkZEjIkZEjIkZEjIkZEjIkZEjIkZEjIkZEjIkZEjIkZEjIkZG2jTp0XPFqVVXis69eM69eM69eM69eM69eM69eM69eM69eM69eM69eM69eM69c//xAAsEAACAQIGAwEBAAEEAwEAAAAAAREx8BAgMEFR8XBxgSFhQGCRweFQobHR/9oACAEBAAE/IcX/ACzYlkslkslkslkslkslkslkslkslkslkslkslkslkslkslkslkslkslkslkslkslkslkslkslkslkslkslkslkslkslkslkslkslkslkslkslkslkslkslkslkslkslkslkslkslkslkslkslkslkslkslkslkslkslkslkslkslkslkslkslkslkslkslkslkslkslkslkslkslkslkslkslkslkslkslkslkslkslkslkslkslkslkslkslkslkslkslkslkslksljOdCizbxpVoUWbeNKtCizbxpVoUWbeNKtCizbxpVoUWbeNKtCizbxpVoUWbeNKtCizbxpVoUWbeNKtCizbxpVoUWba378XJQTR+rP88LkkkkkkkkkkkkkkkkkkkkkkkkkkkkkkkkkkkkkkkkkkkkkkkkkkkkkkkkkkkkkkkkkkkkkkkkkkklE/wKCtNI2erVoUWbaq4r+HLKU8MxZ/ig5qhpw9SrQos21UKNl/4dPo3+x0R0R0R0R0R0R0R0R0R0R0R0R0R0R0R0R0R0R0R0R0R0R0R0R0R0R0R0R0R0R0R0R0R0R0R0R0R0R0R0R0R0R0R0R0R0R0R0R0R0R0R0R0R0R0R0R0R0R0R0R0R0R0R0R0R0R0R0R0R0R0R0R0R0R0R0R0R0R0R0R0R0R0R0R0R0R0R0R0R0R0R0R0R0R0Q0VZf4kCf2+alWhRZtqb5ff+FGkzdZGyIbaHG2WJTttT9GRfqPKD9eueVkX64QlZ/QhR/6P/Vm/wDUC4h/eMyntRKcNQKrFtJNtwkdwdwdwLW4WsPJ/wAmpVoUWbam+SgIlOSZd/zZCU9/djKQySSbbD2WGst8GgTcUw2H6AfzZH1aWzF0Ak53Z7/6GQkrhKLK4H/dvwx/k4/rwbYRy4bfhbBfqlUeMkuBDmiSQeX7kdEHtJOD/En4FH7f6gkV9yoYyEqs/T9KJXof/d/9xqoeSEIf+lRZP+fBaVWhRZtpPCf3J+yjX7/tj+DafoRoLFYT4Hq1VxfVEZv31yIayQ2iiZWdn5/9GUc6V4/uLVVWJE0c8Dw9uf6SJnIEo4WL/qCHtEhi0+KfiEJCQh+IIia1hN/9QP8A+mR7U6PX6JQxof4r0F+KEJJISSX8xSRfqnjIjGFI0p39Mn/P/wAYrRq0KLNtJjN8rS47qlQX2FUmixZSmGUv9YzwbPihLhsqTTQpQT4CohG61km5ZfQWWfc1+uX6vRP+fxoGW/YUJKLJHhNJKoJoWcNSPyU6pCHirLd/P9PpmDNje+R1y4gA+hSl+RLLKX4naTsB2A7AQpzHtDJa+CELBZ6tCizbQYxjNzb/AMN/AcCTd/8AUAAAAAAAAAAAAAAAAAAAAAAAAAAAAAAAAAAAAAAAAAAAAAAAAAAAAAAAAAAAAAAAB/2I9lv8Ox8EIWCz1aFFm2gxjGbm3hu58EIWCz1aFFm2g8DGbkOKMh8Mh8Mh8Mh8Mh8Mh8Mh8Mh8Mh8Mh8Mh8Mh8Mh8Mh8Mh8Mh8Mh8Mh8Mh8Mh8Mh8Mh8Mh8Mh8Mh8Mh8Mh8Mh8Mh8Mh8Mh8Mh8Mh8Mh8Mh8Mh8Mh8Mh8Mh8Mh8Mh8Mh8Mh8Mh8Mh8Mh8Mh8Mh8Mh8Mh8Mh8Mh8Mh8Mh8Mh8Mh8Mh8Mh8Mh8Mh8Mh8Mh8Mh8Mh8Mh8Mh8Mh8Mh8Mh8Mh8Mh8Mh8Mh8Mh8Mh8Mh8Mh8Mh8Mh8Mh8Mh8Mh8Mh8Mh8Mh8Mh8Mh8Mh8Mh8Mh8Mh8Mh8Mh8Mh8Mh8Mh8Mh8Mh8Mh8Mh8Mh8Mh8Mh8Mh8Mh8Mh8Mh8Mh8Mh8Mh8Mh8Mh8Mh8Mh8Mh8Mh8Mh8Mh8Mh8Mh8Mh8Mh8Mh8Mh8Mh8Mh8Mh8Mh8Mh8Mh8Mh8Mh8Mh8Mh8Mh8Mh8Mh8Mh8Mh8Mh8Mh8Mh8Mh8Mh8Mh8Mh8Mh8Mh8Mh8Mh8Mh8Mh8Mh8Mh8M/NnAhCELPVoUWbaDwMZuvYqeG73wQhCFnq0KLNtBjGM3QqeG7/wAEIQhZ6tCizbQYx4N17FTw3b+CFgQs9WhRZtnY8g3XsVPDd74IQhCz1aFFm2djyDdexU8N3vghCELPVoUWbZ2PA8G69ip4bvfBCEIWerQos2zseQbr2Knhu98EIQhZ6tCizbOx4Hg3XsVPDd74IQhCz1aFFm2djwPBuvYqeG73wQhCFnq0KLNs7HgeDdexU8N3vghCELPVoUWbZ2PA8G69ip4bvfBCEIWerQos2zseB4N17FTw3e+CEIQs9WhRZtnY8g3XsVPDd74IQhCz1aFFm2djwPBuvYqeG73wQhCFnq0KLNs7HgeDdexU8N3vghCELPVoUWbZ2PA8G69ip4bvfBCEIWerQos2zseB4N17FTw3e+CEIQs9WhRZtnY8Dwbr2Knhu98EIQhZ6tCizbOx4Hg3XsVPDd74IQhCz1aFFm2djwPBuvYqeG73wQhCFnq0KLNs7HgeDdexU8N3vghCELPVoUWbZ2PA8G69ip4bvfBCEIWerQos2zseB4N17FTw3e+CEIQs9WhRZtnY8Dwbr2Knhu98EIQhZ6tCizbOx5BuvYqeG73wQhCFnq0KLNs7HkG69ip4bvfBCEIWerQos2zseQbr2Knhu98EIQhZ6tCizbOx5BuvYqeG73wQhCFnq0KLNs7HgeDdexU8N3vghCELPVoUWbZ2PA8G69ip4bvfBCEIWerQos2zseB4N17FTw3e+CEIQs9WhRZtnY8Dwbr2Knhu98EIQhZ6tCizbOx4Hg3XsVPDd74IQhCz1aFFm2djwPBuvYqeG73wQhCFnq0KLNs7HgeDdexU8N3vghCELPVoUWbZ2PA8G69ip4bvfBCEIWerQos2zseB4N17FTw3e+CEIQs9WhRZtnY8Dwbr2Knhu98EIQhZ6tCizbOx4Hg3XsVPDd74IQhCz1aFFm2djwPBuvYqeG73wQhCFnq0KLNs7HgeDdexU8N3vghCELPVoUWbZ2PA8G69ip4bvfBCEIWerQos2zseB4N17FTw3e+CEIQs9WhRZtnY8Dwbr2Knhu98EIQhZ6tCizbOx5BuvYqeG73wQhCFnq0KLNs7HkG69ip4bvfBCEIWerQos2zseB4N17FTw3e+CEIQs9WhRZtnY8g3XsVPDd74IQhCz1aFFm2djwPBuvYqeG73wQhCFnq0KLNs7HgeDdexU8N3vghCELPVoUWbZ2PA8G69ip4bvfBCEIWerQos2zseB4N17FTw3e+CEIQs9WhRZtnY8Dwbr2Knhu98EIQhZ6tCizbOx4Hg3XsVPDd74IQhCz1aFFm2djwPBuvYqeG73wQhCFnq0KLNs7HgeDdexU8N3vghCELPVoUWbZ2PA8G69ip4bvfBCEIWerQos2zseB4N17FTw3e+CEIQs9WhRZtnY8Dwbr2Knhu98EIQhZ6tCizbOx4Hg3XsVPDd74IQhCz1aFFm2djwPBuvYqeG73wQhCFnq0KLNs7HgeDdexU8N3vghCELPVoUWbZ2PA8G69ip4bvfBCEIWerQos2zseB4N17FTw3e+CEIQs9WhRZtnY8g3XsVPDd74IQhCz1aFFm2djyDdexU8N3vghCELPVoUWbZ2PIN17FTw3e+CEIQs9WhRZtnY8Dwbr2Knhu98EIQhZ6tCizbOx5BuvYqeG73wQhCFnq0KLNs7HgeDdexU8N3vghCELPVoUWbZ2PA8G69ip4bvfBCEIWerQos2zseB4N17FTw3e+CEIQs9WhRZtnY8Dwbr2Knhu98EIQhZ6tCizbOx4Hg3XsVPDd74IQhCz1aFFm2djwPBuvYqeG73wQhCFnq0KLNs7HgeDdexU8N3vghCELPVoUWbZ2PA8G69ip4bvfBCEIWerQos2zseB4N17FTw3e+CEIQs9WhRZtnY8Dwbr2Knhu98EIQhZ6tCizbOx4Hg3XsVPDd74IQhCz1aFFm2djwPBuvYqeG73wQhCFnq0KLNs7HgeDdexU8N3vghCELPVoUWbZ2PA8G69ip4bvfBCEIWerQos2zseB4N17FTw3e+CEIQs9WhRZtnYxjwbr2Knhu38ELAhZ6tCizbQYx4N17FTw3b+YEIQs9WhRZtoMYxm69ip4bvfMCEIWerQos20GMYzdexU8N2vghCFoVaFFm2ixjwJW/097+G0sXN7YhCELPVoUWbaLGMYpzf3mef/4JppNNNPfwzNXH1f8A0S9FLYhCwWerQos20GMYxjK4PaRF/Nv+f9CzqWdS7qX9S3qW9S3qW9S3qW9S3qW9S3qW9S3qW9S3qW9S3qW9S3qW9S3qW9S3qW9S3qW9S3qW9S3qW9S3qW9S3qW9S3qW9S3qWdS3qW9S3qW9S3qW9S3qW9S3qW9S3qW9S3qW9S3qW9S3qW9S3qW9S3qW9S3qW9S3qW9S3qW9S3qW9S3qW9S3qW9S7qW9S3qW9S3qW9S3qW9S3qW9S3qW9S3qW9S3qW9S3qW9S3qW9S3qW9S3qW9S3qW9S3qW9S3qW9S3qW9S3qW9S3qW9S3qW9S3qW9S3qW9S3qW9S3qW9S3qW9S3qW9S3qW9S3qW9S3qW9S3qW9S3qW9S3qW9S3qW9S3qW9S3qW9S3qW9S3qW9S/qXdSzqXdBR7BUNzLq2xCELBZ6tCizbSY8GQNEEEEEEEEEEEEEEEEEEEEEEEEEEEEEEEEEEEEEEEEEEEEEEEEEEEEEEEEEEEEEEEEEEEEEEEEEEEEEEEEEEEEEEEEEEEEEEEEEEEEEEEEEEEEEEEEEEEEEEEEEEEEEEEEEEEEEEEEEEEEEEEEEEEEECQkJCQhC0atCizbTeEEEEEEEEEEEEEEEEEEEEEEEEEEEEEEEEEEEEEEEEEEEEEEEEEEEEEEEEEEEEEEEEEEEEEEEEEEEEEEEEEEEEEEEEEEEEEEEEEEEEEEEEEEEEEEEEEEEEEEEEEEEEEEEEEEEEEEEEEEEEEEEEEEEEEEEEEEZFpVaFFm2rBBBBBBBBBBBBBBBBBBBBBBBBBBBBBBBBBBBBBBBBBBBBBBBBBBBBBBBBBBBBBBBBBBBBBBBBBBBBBBBBBBBBBBBBBBBBBBBBBBBBBBBBBBBBBBBBBBBBBBBBBBBBBBBBBBBBBBBBBBBBBBBBBBBBBBBBBBGrVoUWbasEYQQQQQQQQQQQQQQQQQQQQQQQQQQQQQQQQQQQQQQQQQQQQQQQQQQQQQQQQQQQQQQQQQQQQQQQQQQQQQQQQQQQQQQQQQQQQQQQQQQQQQQQQQQQQQQQQQQQQQQQQQQQQQQQQQQQQQQQQQQQQQQQQQQQQQQQRq1aFFm3+DBBBBBBBBBBBBBBBBBBBBBBBBBBBBBBBBBBBBBBBBBBBBBBBBBBBBBBBBBBBBBBBBBBBBBBBBBBBBBBBBBBBBBBBBBBBBBBBBBBBBBBBBBBBBBBBBBBBBBBBBBBBBBBBBBBBBBBBBBBBBBBBBBBBH+BVoUWbf4C8LRrVaFFm3jSrQos28aVaFFm3jSrQos28aVaFFm3jSrQX8s2IZDIZDIZDIZDIZDIZDIZDIZDIZDIZDIZDIZDIZDIZDIZDIZDIZDIZDIZDIZDIZDIZDIZDIZDIZDIZDIZDIZDIZDIZDIZDIZDIZDIZDIZDIZDIZDIZDIZDIZDIZDIZDIZDIZDIZDIZDIZDIZDIZDIZDIZDIZDIZDIZDIZDIZDIZDIZDIZDIZDIZDIZDIZDIZDIZDIZDIZDIZDIZDIZDIZDIZDIZDIZDIZDIZDIZDIZDIZDIZDIZDIZDIZDIZDIZDIZDIZDIZDIZDIYjnL/AP/aAAwDAQACAAMAAAAQ84AAAAAAAAAAAAAAAAAAAAAAAAAAAAAAAAAAAAAAAAAAAAAAAAAAAAAAAAAAAAAAAAAAAAAAAAAAAAAAAAAAAAAAAAAR888oAAAAAAAAAAAAAAAAAAAAAAAAAAAAAAAAAAAAAAAAAAAAAAAAAAAAAAAAAAAAAAAAAAAAAAAAAAAAAAAAAAAAAAAAAB888oAAAAAAAAAAAAAAAAAAAAAAAAAAAAAAAAAAAAAAAAAAAAAAAAAAAAAAAAAAAAAAAAAAAAAAAAAAAAAAAAAAAAAAAAAB888oAAAAAAAAAAAAAAAAAAAAAAAAAAAAAAAAAAAAAAAAAAAAAAAAAAAAAAAAAAAAAAAAAAAAAAAAAAAAAAAAAAAAAAAAAB888oAAAAAAAAAAAAAAAAAAAAAAAAAAAAAAAAAAAAAAAAAAAAAAAAAAAAAAAAAAAAAAAAAAAAAAAAAAAAAAAAAAAAAAAAAB888oAAAAMMMMMMMMMMMMMMMMMMMMMMMMMMMMMMMMMMMMMMMMMMMMMMMMMMMMMMMMMMMMMMMMMMMMMMMMMMMMMMMMMMMIAB888oAAAEAASTzzzzzzzzzzzzzzzzzzzzzzzzzzzzzzzzzzzzzzzzzzzzzzzzzzzzzzzzzzzzzzzzzzzzzzzzzzjpAAAoAB888oAAAIUMhAAACABAAAAJAJAFHAEMPNNNNNNNNNNNNNNNNNNNNNNNNNNNNNNNNNNNNNNNNNNNNNNdIAAHJEPJADA8goAB888oAAEU8WAX+QpHSJAAEhAmAMwLFjA88888888888888888888888888888888888888888888888oAFoLAw2ADtEAoAB888oAAAU0gAQDgjQwAAABBAxATaASywxxxxxxxxxxxxxxxxxxxxxxxxxxxxxxxxxxxxxxxxxxxxxx1jAChAAwzADKMAoAB888oAAAY+YIAAAAAAAAAAAAAAAAAAAAAAAAAAAAAAAAAAAAAAAAAAAAAAAAAAAAAAAAAAAAAAAAAAAAAAAAAAAARcuIoAB888oAAAsGKU8888888888888888888888888888888888888888888888888888888888888888888888888888uoKooAB888oAAAgmnU8888888888888888888888888888888888888888888888888888888888888888888888888888uE+goAB888oAAAAWXU8888888888888888888888888888888888888888888888888888888888888888888888888888+W/AoAB888oAAAAWXU8888888888888888888888888888888888888888888888888888888888888888888888888888+W/AoAB888oAAAAWXU8888888888888888888888888888888888888888888888888888888888888888888888888888+X/AoAB888oAAAAWXU8888888888888888888888888888888888888888888888888888888888888888888888888888+W/AoAB888oAAAAWXU8888888888888888888888888888888888888888888888888888888888888888888888888888+W/AoAB888oAAAAXXU8888888888888888888888888888888888888888888888888888888888888888888888888888+D/AAKAAfPPKAAAAFl1PPPPPPPPPPPPPPPPPPPPPPPPPPPPPPPPPPPPPPPPPPPPPPPPPPPPPPPPPPPPPPPPPPPPPPPPPPPPPlvwKAAfPPKAAAAFl1PPPPPPPPPPPPPPPPPPPPPPPPPPPPPPPPPPPPPPPPPPPPPPPPPPPPPPPPPPPPPPPPPPPPPPPPPPPPPlvwKAAfPPKAAAAFl1PPPPPPPPPPPPPPPPPPPPPPPPPPPPPPPPPPPPPPPPPPPPPPPPPPPPPPPPPPPPPPPPPPPPPPPPPPPPPl/wKAAfPPKAAAAVl1PPPPPPPPPPPPPPPPPPPPPPPPPPPPPPPPPPPPPPPPPPPPPPPPPPPPPPPPPPPPPPPPPPPPPPPPPPPPPlvwKAAfPPKAAAAFl1PPPPPPPPPPPPPPPPPPPPPPPPPPPPPPPPPPPPPPPPPPPPPPPPPPPPPPPPPPPPPPPPPPPPPPPPPPPPPlvwKAAfPPKAAAAFl1PPPPPPPPPPPPPPPPPPPPPPPPPPPPPPPPPPPPPPPPPPPPPPPPPPPPPPPPPPPPPPPPPPPPPPPPPPPPPlvwKAAfPPKAAAAFl1PPPPPPPPPPPPPPPPPPPPPPPPPPPPPPPPPPPPPPPPPPPPPPPPPPPPPPPPPPPPPPPPPPPPPPPPPPPPPlvwKAAfPPKAAAAFl1PPPPPPPPPPPPPPPPPPPPPPPPPPPPPPPPPPPPPPPPPPPPPPPPPPPPPPPPPPPPPPPPPPPPPPPPPPPPPlvwKAAfPPKAAAAFl1PPPPPPPPPPPPPPPPPPPPPPPPPPPPPPPPPPPPPPPPPPPPPPPPPPPPPPPPPPPPPPPPPPPPPPPPPPPPPh/wKAAfPPKAAAAFl1PPPPPPPPPPPPPPPPPPPPPPPPPPPPPPPPPPPPPPPPPPPPPPPPPPPPPPPPPPPPPPPPPPPPPPPPPPPPPlvwKAAfPPKAAAAFl1PPPPPPPPPPPPPPPPPPPPPPPPPPPPPPPPPPPPPPPPPPPPPPPPPPPPPPPPPPPPPPPPPPPPPPPPPPPPPlvwKAAfPPKAAAAFl1PPPPPPPPPPPPPPPPPPPPPPPPPPPPPPPPPPPPPPPPPPPPPPPPPPPPPPPPPPPPPPPPPPPPPPPPPPPPPlvwKAAfPPKAAAAFl1PPPPPPPPPPPPPPPPPPPPPPPPPPPPPPPPPPPPPPPPPPPPPPPPPPPPPPPPPPPPPPPPPPPPPPPPPPPPPlvwKAAfPPKAAAAFl1PPPPPPPPPPPPPPPPPPPPPPPPPPPPPPPPPPPPPPPPPPPPPPPPPPPPPPPPPPPPPPPPPPPPPPPPPPPPPl/wACgAHzzygAAABZdTzzzzzzzzzzzzzzzzzzzzzzzzzzzzzzzzzzzzzzzzzzzzzzzzzzzzzzzzzzzzzzzzzzzzzzzzzzzz5b8CgAHzzygAAABZdTzzzzzzzzzzzzzzzzzzzzzzzzzzzzzzzzzzzzzzzzzzzzzzzzzzzzzzzzzzzzzzzzzzzzzzzzzzzz5b8CgAHzzygAAABZdTzzzzzzzzzzzzzzzzzzzzzzzzzzzzzzzzzzzzzzzzzzzzzzzzzzzzzzzzzzzzzzzzzzzzzzzzzzzz5b8CgAHzzygAAABZdTzzzzzzzzzzzzzzzzzzzzzzzzzzzzzzzzzzzzzzzzzzzzzzzzzzzzzzzzzzzzzzzzzzzzzzzzzzzz5b8CgAHzzygAAABZdTzzzzzzzzzzzzzzzzzzzzzzzzzzzzzzzzzzzzzzzzzzzzzzzzzzzzzzzzzzzzzzzzzzzzzzzzzzzz5b8CgAHzzygAAABZdTzzzzzzzzzzzzzzzzzzzzzzzzzzzzzzzzzzzzzzzzzzzzzzzzzzzzzzzzzzzzzzzzzzzzzzzzzzzz5b8CgAHzzygAAABZdTzzzzzzzzzzzzzzzzzzzzzzzzzzzzzzzzzzzzzzzzzzzzzzzzzzzzzzzzzzzzzzzzzzzzzzzzzzzz5b8CgAHzzygAAABZdTzzzzzzzzzzzzzzzzzzzzzzzzzzzzzzzzzzzzzzzzzzzzzzzzzzzzzzzzzzzzzzzzzzzzzzzzzzzz5b8CgAHzzygAAABZdTzzzzzzzzzzzzzzzzzzzzzzzzzzzzzzzzzzzzzzzzzzzzzzzzzzzzzzzzzzzzzzzzzzzzzzzzzzzz5b8CgAHzzygAAAFZdTzzzzzzzzzzzzzzzzzzzzzzzzzzzzzzzzzzzzzzzzzzzzzzzzzzzzzzzzzzzzzzzzzzzzzzzzzzzz5b8CgAHzzygAAABZdTzzzzzzzzzzzzzzzzzzzzzzzzzzzzzzzzzzzzzzzzzzzzzzzzzzzzzzzzzzzzzzzzzzzzzzzzzzzz5b8CgAHzzygAAABZdTzzzzzzzzzzzzzzzzzzzzzzzzzzzzzzzzzzzzzzzzzzzzzzzzzzzzzzzzzzzzzzzzzzzzzzzzzzzz5b8CgAHzzygAAABZdTzzzzzzzzzzzzzzzzzzzzzzzzzzzzzzzzzzzzzzzzzzzzzzzzzzzzzzzzzzzzzzzzzzzzzzzzzzzz5b8CgAHzzygAAABZdTzzzzzzzzzzzzzzzzzzzzzzzzzzzzzzzzzzzzzzzzzzzzzzzzzzzzzzzzzzzzzzzzzzzzzzzzzzzz5P8AAoAB888oAAAAWXU8888888888888888888888888888888888888888888888888888888888888888888888888888+H/AoAB888oAAAAWXU8888888888888888888888888888888888888888888888888888888888888888888888888888+W/AoAB888oAAAAWXU8888888888888888888888888888888888888888888888888888888888888888888888888888+X/AoAB888oAAAAWXU8888888888888888888888888888888888888888888888888888888888888888888888888888+U/AoAB888oAAAAWXU8888888888888888888888888888888888888888888888888888888888888888888888888888+W/AoAB888oAAAAWXU8888888888888888888888888888888888888888888888888888888888888888888888888888+W/AoAB888oAAAIafU8888888888888888888888888888888888888888888888888888888888888888888888888888uEyIoAB888oAAAsiSU8888888888888888888888888888888888888888888888888888888888888888888888888888usagoAB888oAAAQ+EQ88888888888888888888888888888888888888888888888888888888888888888888888888884k0IoAB888oAAAYcw/Ft37zzzzzzzzzzzzzzzz37zzzzzzzzzzzzzzzz/AM8888888888888889+888888888888888854c/NgIKAAfPPKAAALLBLvBOccccccccccccccccccccccccccccccccccccccccccccccccccccccccccccccccccccccYHEArOJAAAfPPKAAAJpGBIJHvvvvvvvvvvvvvvvvvvvvvvvvvvvvvvvvvvvvvvvvvvvvvvvvvvvvvvvvvvvvvvvvvvvvvvqtFIFMCAAAfPPKAAAAAMAAAAAAAAAAAAAAAAAAAAAAAAAAAAAAAAAAAAAAAAAAAAAAAAAAAAAAAAAAAAAAAAAAAAAAAAAAAEIMABAAAAfPPKAAAAAAAAAAAAAAAAAAAAAAAAAAAAAAAAAAAAAAAAAAAAAAAAAAAAAAAAAAAAAAAAAAAAAAAAAAAAAAAAAAAAAAAAAAfPPKAAAAAAAAAAAAAAAAAAAAAAAAAAAAAAAAAAAAAAAAAAAAAAAAAAAAAAAAAAAAAAAAAAAAAAAAAAAAAAAAAAAAAAAAAAfPPPAAAAAAAAAAAAAAAAAAAAAAAAAAAAAAAAAAAAAAAAAAAAAAAAAAAAAAAAAAAAAAAAAAAAAAAAAAAAAAAAAAAAAAAAAHfPP/8QAJxEAAwABAwIGAgMAAAAAAAAAAAERECExQVCBIEBRYGHwcZChwNH/2gAIAQMBAT8Q/R5VVJEREREREREREREREREREREREREREREREREREREREREREREREREREREREREREREREREREREREREREREREREREREREREREREREREREREGp0Cbgmnn5EdQ/wD/AP8A/wD/AP7Uy2lmoqw/JW/caT/FG3RfDgQZHwdr/hxunoM3tcs7bCRrPlybwDSuX6Z2emOTYI3EVUZbOobcU3EosdhYe3k5v13167/zjn0+98JGhv3jbxpTDVJlI98IIIIIIIIIIIIIIIIIIIIIIIIIIIIIIIIIIIIIIIIIIIIIIIGuGr4ITD29vT2/oHNVVVVVVVVVVVVVVVVVVVVVVVVVVVVVNV7N4PIycL6LVVVVVVVVVVVVfRqqqqqqqqqqqqq/0fVVf//EACURAAICAwACAgICAwAAAAAAAAARATEwYGEQISBBUYGh8EBQcf/aAAgBAgEBPxAr16vXq9er16vXq9er+coMMMMMMMMMMMMMMMMMMMMMMMMMMMMMMMMMMMMMMMMMMMMMMMMMMMMMMMMMMMMMMMMMMMMMMMMMMMMRLxV/40RM0TKPM+6gmcXAwwwwwwwwwwwwwwwwwwwwwwwwwwwwwwwwwwwwwwwwwwwwwwxEJ8xKa8t+BT4tirwSmJzFn3Hsga9JT+0RD7XX2SISj7P2iL33+ScwzZeaOL83HvyuTCkqO32Ip/2C3iIZ/ImXL8evyT/3xbFXh6jxEPrf1+K/jwv1n/f18Ile/My/ESiZj6jxPsmcUQjHHHHHHHHHHHHHHHHHHHHHHHHHHHHHHHHHHHHHHHHHHHHHHHEeRPv4Jl+LYq/jGo04K/jBGnUkk4K9UpJJwV6pSSTgr1SkknBXqlJJOCvVKSScFeqUkk4K9UpJJwV6pSSTgr1SkknBXqlJJOCvVKSScFeqUkk4K9UpJJwV6pSSTgr1SkknBXqlJJOCvVKSScFeqUkk4K9UpJJwV6pSSTgr1SkknBXqlJJOCvVKSScFeqUkk4K9UpJJwV6pSSTgr1SkknBXqlJJOCvVKSScFeqUkk4K9UpJJwV6pSSTgr1SkknBXqlJJOCvVKSScFeqUkk4K9UpJJwV6pSSTgr1SkknBXqlJJOCvVKSScFeqUkk4K/jBGnUkk4K/jHiWWm+9sVfzmIn1JxOJxOJxOJxOJxOJxOJxOJxOJxOJxOJxOJxOJxOJxOJxOJxOJxOJxOJxOJxOJxOJxOJxOJxOJxOJxOJxOJxOJxOJxOJxOJxOJxOJxOJxOJxOJxOJxF/WOvExjGMYxjGMYxjGMYxjGMYxjGMYxjGMYxjGMYxjGMYxjGMYxjGMYxjGMYxjGMfl4q8LGMYxjGMYxjGMYxjGMYxjGMYxjGMYxjGMYxjGMYxjGMYxjGMYxjGMYxjGMYxjHkr16vXq9er13//xAAsEAACAAUCBwEBAQEAAwEBAAAAARExYXHxIPAQIUBBcKGxUTCRgVBg0cHh/9oACAEBAAE/EOLlCY1isVisVisVisVisVisVisVisVisVisVisVisVisVisVisVisVisVisVisVisVisVisVisVisVisVisVisVisVisVisVisVisVisVisVisVisVisVisVisVisVisVisVisVisVisVisVisVisVisVisVisVisVisVisVisVisVisVisVisVisVisVisVisVisVisVisVisVisVisVisVisVisVisVisVisVisVisVisVisVisVisVisVisVisVisVisVisVisVisViC8/HiZPjxMnx4mT48TJ8eJk+PEyfHiZPjxMnx4mT48TJ6JMSJEiRIkSJEiRIkSJEiRIkSJEiRIkSJEiRIkSJEiRIkSJEiRIkSJEiRIkSJEiRIkSJEiRIkSJEiRIkSJEiRIkSJEiRIkSJEiRIkSJEiRIkSJEiRIkSJEiRIkSJEiRIkSJEiRIkSJEiRIkSJEiRIkSJEiRIkSJEiRIkSJEiRIkSJEiRIkSJEiRIkSJEiRIkSJHVJ6ZKW9WH/AB+kqlwvptzNuZtzNuZtzNuZtzNuZtzNuZtzNuZtzNuZtzNuZtzNuZtzNuZtzNuZtzNuZtzNuZtzNuZtzNuZtzNuZtzNuZtzNuZtzNuZtzNuZtzNuZtzNuZtzNuZtzNuZtzNuZtzNuZtzNuZtzNuZtzNuZtzNuZtzNuZtzNuZtzNuZtzNuZtzNuZtzNuZtzNuZtzNuZtzNuZtzNuZtzNuZtzNuZtzNuZtzNuZtzNuZtzNuZtzNuZtzNuZtzNuZtzNuZtzNuZtzNuZtzNuZtzNuZtzNuZtzNuZtzNuZtzNuZtzNuZtzNuZtzNuZtzNuZtzNuZtzNuZtzNuZtzNuZtzNuZtzNuZtzNuZtzNuZtzNuZtzNuZtzNuZtzNuZtzNuY7QNc98iaUBEGiOtaZPQJehsaop0F6VkJJEkSSUElJeGXZKQqJ/joMFNkfjRHUtMnoktjY2+wliEONW+b9/8Ah1MX1T/2BSlKUpSlKUpSlKUpSlKUpSlKUpSlKUpSlKUpSlKUpSlKUpSlKUpSlKUpSlKUpSlKUpSlKUpSlKUpSlKU97S6RSpD2OT5AQhcVIWmT/dLGRGxifJdCkraG0lFkl+twE01FNNfq4vkubgdori2kotpL9bFzUU4r9X8G0k22klzbfYV5YGRT0QkeFotvx6WMlJRP+DW/wC3noakVUj5XFoRoRFvkkKiFWkrCgwpNKjYXtwmaW2v+f8Ar7Sag0ONDJzaSdtUYeKaCi4Kg1qLaqrDbW5Lag/zipshFtySMbMTMTEQxoc1DQ0Fv7CZETIiELTJ6BLYxsbI8lxSVuKBIxVTsv8ARwaW+UX/AASFoST5j5P40Ry4dE+1BHMySMP0jNOnZCWwv3sYuWEihY8VEh+vshzcZy9BIRGku6+R+NEjgJTU2km20kpt9h4EoI5N/gIvqwR20QaJLbT/AOnNwmuTpv8Aj4pfKMVpfr7eyA8hd8UZJfnDk9YuQTX3qMk85EU6cUPdS8rsnvl7JRIqpvm8fBJIZcQpgVc2mpSFJeQuvxw5/wDsCFygnyf90owrRY4JIg+qNN/Juu7Dx3puLSYhNPk0+5iv/wAMV/8Ahiv/AMF7Sl82kKP+aJdvYTGEyIhC0yf7JYx8GGyRdCkrcUktJKl3ii1/gnHmMWlzBPxttw9nPIa5wtxbNy5hGzaJQrvBxfFE0Fja/I84e9SWSCQ/D/8AgltnOkP1KumHgTkkpt+IR9XhyCX6/T4qLinK/YOI/wCik/XNcGzqAedVL9Q3NYsvkuSh+8VfuaTJrIsNQI12ztMbn4rn+jKbVgb/ACbbsJ5GSHJP/f8A2BDdLsiehT5JSQUIuIoRwn8m67sIkISSUEkuSFhYSSQS4ratCNRaDVmZYZ4Z4RrXi40FtDQQk6iYwhCFpk/3SxjGGI8l0KStocA6KCbu3Yfy6MFJn7Dv/wB4tDzOaSihTc0SjJcXV8ItJGK3YX+cKBBH+w/hzGc4qb/orJ1BLk9CekHLXJ/XXRch2MxMDRCRH9oF/oiakR41G/3Q5Yopcmv1Cy9NlFMo3NJ7E9SgiSaqhkqIbRm//wAX/r7O2y/WTQmi9DUqFkVIFBR7/wDBt5yFH/EFpmhIXFJHtHQwwwnO5Ty5VjoeCIwwwpicFpk/3S+CQYYb5LoUlv8Awz7m5ptIheUdHE2iNojaI2iNojaI2iNojaI2iNojaI2iNojaI2iNojaI2iNojaI2iNojaI2iNojaI2iNojaI2iNojaI2iNojaI2iNojaI2iNojaI2iNojaI2iNojaI2iNojaI2iNojaI2iNojaI2iNojaI2iNojaI2iNojaI2iNojaI2iNojaI2iNojaI2iNojaI2iNojaI2iNojaI2iNojaI2iNojaI2iNojaI2iNohEOZH9Y5zD7LsujaH/QMMMLiWmT/dLlxXGG+S6FJbw23sDDDi41pk/wB0vgYccb5LoUB+X4YIwRgjBGCMEYIwRgjBGCMEYIwRgjBGCMEYIwRgjBGCMEYIwRgjBGCMEYIwRgjBGCMEYIwRgjBGCMEYIwRgjBGCMEYIwRgjBGCMEYIwRgjBGCMEYIwRgjBGCMEYIwRgjBGCMEYIwRgjBGCMEYIwRgjBGCMEYIwRgjBGCMEYIwRgjBGCMEYIwRgjBGCMEYIwRgjBGCMEYIwRgjBGCMEYIwRgjBGCMEYIwRgjBGCMEYIwRgjBGCMEYIwRgjBGCMEYIwRgjBGCMEYIwRgjBGCMEYIwRgjBESRprnMg4+mLTJ/ul6Tb/wAhIt4bkvNx+GbgUhaZP90vS7f+y+ki3huW8X483ApC0yf7pehsN/5PpIt4b++pwpC0yegSlJOCQfofSRbw39dH+0mFIWmT0CUpJxH6H0kW8N/XT9MKQtMnoEpSQ7yQfofSRbw39dXxSFpk9AlKScR+h9JFvDf10/TCkLTJ6BKUk4z9D6SLeG/rp+mFIWmT0CUpId/A/Q+ki3hv66fphSFpk9AlKScMg/Q+ki3hv66fphSFpk9AlKSHeSD9D6SLeG/rp+mFIWmT0CUpId5IP0PpIt4b+un6YUhaZPQJSknBIP0PpIt4b+un6YUhaZPQJSkh3kg/Q+ki3hv66fphSFpk9AlKSHeSD9T6SLeG/rp+mFIWmT0CUpId5IP0PpIt4b+un6YUhaZPQJSkh3kg/Q+ki3hv66fphSFpk9AlKSHeSD9T6SLeG/rq+KQtMnoEpSQ7yQfofSRbw39dP0wpC0yegSlJDvJB+h9JFvDf10/TCkLTJ6BKUkO8kH6H0kW8N/XT9MKQtMnoEpSQ7yQfofSRbw39dP0wpC0yegSlJDvJB+p9JFvDf10f7SYUhaZPQpJOM/U+ki3hv66P9hMKQtMnoEpSTiP0PpIt4b+uj/YTCkLTJ6BKUk4JB+h9JFvDf10/TCkLTJ6BKUk4j9D6SLeG/rp+mFIWmT0CUpJxH6H0kW8N/XT9MKQtMnoEpSThkH6H0kW8N/XT9MKQtMnoEpSQ7yQfofSRbw39dP0wpC0yegSlJOGQfofSRbw39dP0wpC0yegSlJOGQfofSRbw39dXxSFpk9AlKScMg/Q+ki3hv66fphSFpk9AlKSHeSD9D6SLeG/rq+KQtMnoEpSQ7yQfofSRbw39dXxSFpk9AlKSHeSD9D6SLeG/rp+mFIWmT0CUpId5IP0PpIt4b+un6YUhaZPQJSkh3kg/Q+ki3hv66fphSFpk9AlKSHeSD9D6SLeG/rp+mFIWmT0CUpId5IP0PpIt4b+un6YUhaZPQJSkh3kg/Q+ki3hv66fphSFpk9AlKSHeSD9D6SLeG/rp+mFIWmT0CUpId5IP0PpIt4b+un6YUhaZPQJSkh3kg/Q+ki3hv66P9pMKQtMnoEpSTiP0PpIt4b+uj/YTCkLTJ6BKUkO4kH6H0kW8N/XT9MKQtMnoEpSQ7+B+h9JFvDf11fFIWmT0CUpJxH6H0kW8N/XV8UhaZPQJSknDIP0PpIt4b+un6YUhaZPQJSkh3kg/Q+ki3hv66fphSFpk9AlKScMg/Q+ki3hv66fphSFpk9AlKScMg/Q+ki3hv66vikLTJ6BKUk4ZB+h9JFvDf10/TCkLTJ6BKUkO8kH6H0kW8N/XT9MKQtMnoEpSThkH6H0kW8N/XT9MKQtMnoEpSQ7yQfqfSRbw39dP0wpC0yegSlJDvJB+p9JFvDf11fFIWmT0CUpId5IP0PpIt4b+un6YUhaZPQJSkh3kg/Q+ki3hv66fphSFpk9AlKSHeSD9D6SLeG/rp+mFIWmT0CUpId5IP0PpIt4b+un6YUhaZPQJSkh3kg/Q+ki3hv66fphSFpk9AlKSHeSD9D6SLeG/ro/2EwpC0yehSSHeSD9T6SLeG/ro/wBpMKQtMnoEpSQ7iQfofSRbw39dH+3gUhaZPQJSknEfofSRbw39dP0wpC0yegSlJOI/Q+ki3hv66fphSFpk9AlKSHeSD9D6SLeG/rp+mFIWmT0CUpJxH6H0kW8N/XV8UhaZPQJSkh38D9D6SLeG/rp+mFIWmT0CUpId/A/Q+ki3hv66fphSFpk9AlKScMg/Q+ki3hv66fphSFpk9AlKSHeSD9D6SLeG/rp+mFIWmT0CUpJwyD9D6SLeG/rp+mFIWmT0CUpJwyD9D6SLeG/rp+mFIWmT0CUpId5IP0PpIt4b+un6YUhaZPQJSknDIP0PpIt4b+un6YUhaZPQJSkh3kg/Q+ki3hv66fphSFpk9AlKSHfwP0PpIt4b+un6YUhaZPQJSkh3kg/Q+ki3hv66fphSFpk9AlISHeSD9D6SLeG/rp+mFIWmT0CUpId5IP0PpIt4b+un6YUhaZPQJSkh3kg/Q+ki3hv66fphSFpk9AlKSHeSD9D6SLeG/ro/2EwpC0yehSS8Z+h9JFvDf3FdMKQtMn+6Xwy8Zr/J9JFvDf1FOPPwIWmT/dLJOOpD/J9JFvDct5pq5aZP90vgXlwqNf5PpIt4b++j8guC0yf7pY+FRRG04cmP1jDsTkn+p+G4iBf8/Nh/iX+ii8xdAtMn+6XIc+FBBCBDhj/63d/z/RTYIpHFNeGXR6J8/m36/wAqGCGb3dsUQQXEtMn+6XwSCCCCC5QM5f8Aj3X/AATVd6tyX+Nhsu8I/wBhF+wb/oIgRAiBECIEQIgXAuBcC4FwLgXAuBcC4FwLgXAuBcC4FwLgXAuBcC4FwLgXAuBcC4ERIgRAiBECIEQLgXAuBcC4FwLgXAuBcC4FwLgXAuBcC4FwLgXAuBcC4FwLgXAuBcCP9hECIEQIgRAiBEC4FwLgXAuBcC4FwLgXAuBcC4FwLgXAuBcC4FwLgXAuBcC4FwLgXAiBECIEQIgRAiBcC4FwLgXAuBcC4FwLgXAuBcC4FwLgXAuBcC4FwLgXAuBcC4FwLgXATfoIv2Cb9gnfcTmmutNowXoZKGMWbEEE4FPiWmT/AHSxjEEGhB8Aww9D3l5eXl5eXl5eXl5eXl5eXl5eXl5eXl5eXl5eXl5eXl5fo95eXl5eXl5eXl5eXl5eXl5eXl5eXl5eXl5eXl5eXl5eX8e8vLy8vLy8vLy8vLy8vLy8vLy8vLy8vLy8vLy8vLy8vL+PeXl5eXl5eXl5eXl5eXl5eXl5eXl5eXl5eXl5eXl5eXl5eIorTAEEEELgtMn+6WPg0INDDDDDD8If/wD/AP8A/wD/AP8A/wD/AP8A/wD/AP8A/wD/AP8A/wD/AOiqeBBBISEhBCQhapP90vixoaH+B0DD4mwsLCwsLCwsLCwsLCzT1hYWFhYWFhYWFhYWFhYWFhYWFnBYWFhYWFhYWFhYWFuj2FhYWFhYWFhYWFhYWFhYWFhYWcFhYWFhYWFhYWFhYWaPYWFhYWFhYWFhYWFhYWFhYWFhYWFhYWFhYWFhYWFhYWaesLCwsLCwsLCwsLCwsLCwsLCwsLBBcBcgggkJCQkLgtUn+6XwgNDRBDDEOCDiWlpYWlhYWFhYWFhYWFhYWFhYWFhYWFhYWFhYWFhYWFun7S0sLCwsLCwsLCwsLCwsLCwsLCwsLCwsLCwsLCwsLNP2lpYWFhYWFhYWFhYWFhYWFhYWFhYWFhYWFhYWFhYWaftLSwtLCwsLCwsLCwsLCwsLCwsLCwsLCwsLCwsLCwsLP4eEEEEhCQkIWuT/AHS0QEMZAgNEBLwkAAAAAAAAAAAAAAAAAAAAAAAAQg4IcxIgQEhLitcnoksgQoNECAnIgQoQoQoQoQoQoQoQoQoQoQoQoQoQoQoQoQoQoQoQoQoQoQoQoQoQoQoQoQoQoQoQoQoQoQoQoQoQoQoQoQoQoQoQoQoQoQoQoQoQoQoQoQoQoQoQoQoQoQoQoQoQoQoQoQoQoQoQoQoQoQoQoQoQoQoQoQoQoQoQoQoQoQoQoQoQoQoQoQoQoQoQoQoQoQoQoQoQoQoQoQoQoQoQoQoQoQoQoQoQoQoQoQoQoQoQoQoQoQoQoQoQoQoQoQoQoQoQoQoQoQoQoQoQoQoQoQoQoQoQoQoQoQoQoQIEBrmIQoQIcV/CT0yYEPDq/hJ8eJk+PEyfHiZPjxMn+DnCQ0ikUikUikUikUikUikUikUikUikUikUikUikUikUikUikUikUikUikUikUikUikUikUikUikUikUikUikUikUikUikUikUikUikUikUikUikUikUikUikUikUikUikUikUikUikUikUikUikUikUikUikUikUikUikUikUikUikUikUikUikUikUikUikUikUikUikUikUikUikUikUikUikUikUikUikUikUikUikUikUikUikUikUikUikUikUikUikUikUikUiC8tP8A/9k=;clipPath=inset(9% 8.33% 10% 8%);" vertex="1" parent="1">
          <mxGeometry x="-1046" y="740" width="960.62" height="620" as="geometry" />
        </mxCell>
        <mxCell id="7DrSCTP9Omp0nFNi4ejy-89" style="edgeStyle=orthogonalEdgeStyle;rounded=0;orthogonalLoop=1;jettySize=auto;html=1;exitX=0.75;exitY=1;exitDx=0;exitDy=0;" edge="1" parent="1" source="-JUYCa4vQB_ef3A6vfml-3" target="7DrSCTP9Omp0nFNi4ejy-1">
          <mxGeometry relative="1" as="geometry" />
        </mxCell>
        <mxCell id="7DrSCTP9Omp0nFNi4ejy-90" value="&lt;font style=&quot;font-size: 26px;&quot;&gt;Planner&lt;/font&gt;" style="edgeLabel;html=1;align=center;verticalAlign=middle;resizable=0;points=[];" connectable="0" vertex="1" parent="7DrSCTP9Omp0nFNi4ejy-89">
          <mxGeometry x="-0.1381" y="6" relative="1" as="geometry">
            <mxPoint as="offset" />
          </mxGeometry>
        </mxCell>
        <mxCell id="-JUYCa4vQB_ef3A6vfml-3" value="" style="rounded=0;whiteSpace=wrap;html=1;fillColor=#FFFFFF;" vertex="1" parent="1">
          <mxGeometry x="-1046" y="60" width="970" height="560" as="geometry" />
        </mxCell>
        <mxCell id="-JUYCa4vQB_ef3A6vfml-4" value="&lt;font color=&quot;#ffffff&quot; style=&quot;font-size: 26px;&quot;&gt;&lt;span style=&quot;&quot;&gt;Course Planner&lt;/span&gt;&lt;br style=&quot;&quot;&gt;&lt;font style=&quot;font-size: 21px;&quot;&gt;Course Management&lt;/font&gt;&lt;/font&gt;&lt;font style=&quot;font-size: 21px;&quot;&gt;&lt;font color=&quot;#ffffff&quot; style=&quot;font-size: 21px;&quot;&gt; Software for UoG&lt;/font&gt;&lt;br&gt;&lt;/font&gt;" style="text;html=1;align=center;verticalAlign=middle;whiteSpace=wrap;rounded=0;fillColor=#1A1A1A;" vertex="1" parent="1">
          <mxGeometry x="-1046" y="60" width="970" height="90" as="geometry" />
        </mxCell>
        <mxCell id="-JUYCa4vQB_ef3A6vfml-6" value="&lt;p style=&quot;&quot; data-sourcepos=&quot;89:1-89:184&quot; dir=&quot;auto&quot;&gt;The &lt;code&gt;coursesMacro.xslm&lt;/code&gt; file contains a program that when a user enters their completed courses, they can get a highlighted list of acceptable courses that they can take next semester.&lt;/p&gt;" style="text;html=1;align=center;verticalAlign=middle;whiteSpace=wrap;rounded=0;strokeColor=none;strokeWidth=0;" vertex="1" parent="1">
          <mxGeometry x="-934.69" y="240" width="732" height="30" as="geometry" />
        </mxCell>
        <mxCell id="-JUYCa4vQB_ef3A6vfml-13" value="&lt;b&gt;Download - Winx64, 1.0.0&lt;/b&gt;" style="rounded=1;whiteSpace=wrap;html=1;fillColor=#C20430;strokeColor=#82b366;fontColor=#FFFFFF;" vertex="1" parent="1">
          <mxGeometry x="-640.9699999999999" y="550" width="155.94" height="30" as="geometry" />
        </mxCell>
        <mxCell id="-JUYCa4vQB_ef3A6vfml-15" value="&lt;ol style=&quot;border-color: var(--border-color); text-align: left;&quot; data-sourcepos=&quot;93:1-98:0&quot; dir=&quot;auto&quot;&gt;&lt;li style=&quot;border-color: var(--border-color);&quot; data-sourcepos=&quot;93:1-93:27&quot;&gt;Open&amp;nbsp;&lt;code style=&quot;border-color: var(--border-color);&quot;&gt;coursesMacro.xslm&lt;/code&gt;&lt;br style=&quot;border-color: var(--border-color);&quot;&gt;&lt;/li&gt;&lt;li style=&quot;border-color: var(--border-color);&quot; data-sourcepos=&quot;94:1-94:19&quot;&gt;Open &quot;input&quot; tab&lt;/li&gt;&lt;li style=&quot;border-color: var(--border-color);&quot; data-sourcepos=&quot;95:1-95:73&quot;&gt;Enter course codes of completed courses in column &quot;A&quot; under the header&lt;/li&gt;&lt;li style=&quot;border-color: var(--border-color);&quot; data-sourcepos=&quot;96:1-96:12&quot;&gt;Click Run&lt;/li&gt;&lt;li style=&quot;border-color: var(--border-color);&quot; data-sourcepos=&quot;97:1-98:0&quot;&gt;Browse highlighted courses in spreadsheet&lt;/li&gt;&lt;/ol&gt;" style="text;html=1;strokeColor=none;fillColor=#fdb826;align=center;verticalAlign=middle;whiteSpace=wrap;rounded=1;shadow=0;" vertex="1" parent="1">
          <mxGeometry x="-793.69" y="280" width="455" height="90" as="geometry" />
        </mxCell>
        <mxCell id="-JUYCa4vQB_ef3A6vfml-16" value="&lt;div style=&quot;&quot;&gt;&lt;ol style=&quot;border-color: var(--border-color);&quot; data-sourcepos=&quot;93:1-98:0&quot; dir=&quot;auto&quot;&gt;&lt;li style=&quot;border-color: var(--border-color);&quot; data-sourcepos=&quot;93:1-93:27&quot;&gt;Currently don&#39;t recognize credit amounts as prerequisite ie. 12 credits including ZOO*1000&lt;br style=&quot;border-color: var(--border-color);&quot;&gt;&lt;/li&gt;&lt;li style=&quot;border-color: var(--border-color);&quot; data-sourcepos=&quot;94:1-94:19&quot;&gt;Some prerequisites have irregular format that may cause them not to be highlighted&lt;br&gt;&lt;/li&gt;&lt;li style=&quot;border-color: var(--border-color);&quot; data-sourcepos=&quot;95:1-95:73&quot;&gt;Restrictions are currently not taken into account when determining eligible courses, please manually verify eligibility after running!&lt;/li&gt;&lt;/ol&gt;&lt;/div&gt;" style="text;html=1;strokeColor=none;fillColor=#fdb826;align=left;verticalAlign=middle;whiteSpace=wrap;rounded=1;fontColor=#000000;" vertex="1" parent="1">
          <mxGeometry x="-871.69" y="450" width="610" height="80" as="geometry" />
        </mxCell>
        <mxCell id="-JUYCa4vQB_ef3A6vfml-17" value="&lt;p style=&quot;&quot; data-sourcepos=&quot;89:1-89:184&quot; dir=&quot;auto&quot;&gt;&lt;br&gt;&lt;/p&gt;&lt;p data-sourcepos=&quot;89:1-89:184&quot; dir=&quot;auto&quot;&gt;Open &quot;input&quot; tabEnter course codes of completed courses in column &quot;A&quot; under the headerClick RunBrowse highlighted courses in spreadsheet&lt;br&gt;&lt;/p&gt;&lt;p data-sourcepos=&quot;89:1-89:184&quot; dir=&quot;auto&quot;&gt;&lt;b&gt;Limitations&lt;/b&gt;:&amp;nbsp;&lt;/p&gt;&lt;p data-sourcepos=&quot;89:1-89:184&quot; dir=&quot;auto&quot;&gt;&lt;br&gt;&lt;/p&gt;" style="text;html=1;align=center;verticalAlign=middle;whiteSpace=wrap;rounded=0;strokeColor=none;strokeWidth=0;" vertex="1" parent="1">
          <mxGeometry x="-991.69" y="380" width="845" height="60" as="geometry" />
        </mxCell>
        <mxCell id="-JUYCa4vQB_ef3A6vfml-18" value="&lt;font style=&quot;font-size: 26px;&quot; color=&quot;#ffffff&quot;&gt;image&lt;/font&gt;" style="text;html=1;align=center;verticalAlign=middle;whiteSpace=wrap;rounded=0;fillColor=#1A1A1A;" vertex="1" parent="1">
          <mxGeometry x="-1044.19" y="800" width="954.19" height="90" as="geometry" />
        </mxCell>
        <mxCell id="-JUYCa4vQB_ef3A6vfml-19" value="" style="shape=flexArrow;endArrow=classic;html=1;rounded=0;entryX=0.5;entryY=0;entryDx=0;entryDy=0;fillColor=#000000;" edge="1" parent="1" target="-JUYCa4vQB_ef3A6vfml-2">
          <mxGeometry width="50" height="50" relative="1" as="geometry">
            <mxPoint x="-567.69" y="620" as="sourcePoint" />
            <mxPoint x="-567.69" y="720" as="targetPoint" />
          </mxGeometry>
        </mxCell>
        <mxCell id="-JUYCa4vQB_ef3A6vfml-20" value="&lt;font style=&quot;font-size: 26px;&quot;&gt;API&lt;/font&gt;" style="text;html=1;strokeColor=none;fillColor=none;align=center;verticalAlign=middle;whiteSpace=wrap;rounded=0;" vertex="1" parent="1">
          <mxGeometry x="-636" y="650" width="435.94" height="50" as="geometry" />
        </mxCell>
        <mxCell id="-JUYCa4vQB_ef3A6vfml-21" value="&lt;a href=&quot;https://cis3760f23-10.socs.uoguelph.ca/&quot;&gt;https://cis3760f23-10.socs.uoguelph.ca/&lt;/a&gt;" style="text;html=1;strokeColor=none;fillColor=none;align=center;verticalAlign=middle;whiteSpace=wrap;rounded=0;" vertex="1" parent="1">
          <mxGeometry x="-794.19" y="10" width="588.19" height="30" as="geometry" />
        </mxCell>
        <mxCell id="-JUYCa4vQB_ef3A6vfml-22" value="&lt;div&gt;https://cis3760f23-10.socs.uoguelph.ca/readme.html&lt;/div&gt;" style="text;html=1;strokeColor=none;fillColor=none;align=center;verticalAlign=middle;whiteSpace=wrap;rounded=0;fontColor=#000000;" vertex="1" parent="1">
          <mxGeometry x="-830.13" y="760" width="588.19" height="30" as="geometry" />
        </mxCell>
        <mxCell id="7DrSCTP9Omp0nFNi4ejy-1" value="" style="shape=image;verticalLabelPosition=bottom;labelBackgroundColor=default;verticalAlign=top;aspect=fixed;imageAspect=0;image=data:image/jpeg,/9j/4AAQSkZJRgABAQAAAQABAAD/2wBDAAUDBAQEAwUEBAQFBQUGBwwIBwcHBw8LCwkMEQ8SEhEPERETFhwXExQaFRERGCEYGh0dHx8fExciJCIeJBweHx7/2wBDAQUFBQcGBw4ICA4eFBEUHh4eHh4eHh4eHh4eHh4eHh4eHh4eHh4eHh4eHh4eHh4eHh4eHh4eHh4eHh4eHh4eHh7/wgARCAPoBdwDASIAAhEBAxEB/8QAGwABAAMBAQEBAAAAAAAAAAAAAAECAwUGBAf/xAAaAQEBAQEBAQEAAAAAAAAAAAAAAwECBAYF/9oADAMBAAIQAxAAAAH9lA4nb4nWcNC05QJQJQJQJQJQJQJQJQJQJQJQJQJQJQJQJQJQJQJQJQJQJQJQJQJQJQJQJQJQJQJQJQJQJQJQJQJQJQJQJQJQJQJQJQJQJQJQJQJQJQJQJQJQJQJQJQJQJQJQJQJQJQJQJQJQJQJQJQJQJQJQJQJQJQJQJQJQJQJQJQJQJQJQJQJQJQJQJRJ7ceeoADidvidZwhaYAAAAAAAAAAAAAAAAAAAAAAAAAAAAAAAAAAAAAAAAAAAAAAAAAAAAAAAAAAAAAAAAAAAAAAAAAAAAAAAAAAAAAAACYk9uPPUABxO3xOs4QtMAAAAAAAAAAAAAAAAAAAAAAAAAAAAAAAAAAAAAAAAAAAAAAAAAAAAAAAAAAAAAAAAAAAAAAAAAAAAAAAAAAAAAAABMSe3HnqAA4nb4nWcIWmAAAAAAAAAAAAAAAAAAAAAAAAAAAAAAAAAAAAAAAAAAAAAAAAAAAAAAAAAAAAAAAAAAAAAAAAAAAAAAAAAAAAAAAAmJPbjz1AAcTt8TrOELTAAAAAAAAAAAAAAAAAAAAAAAAAAAAAAAAAAAAAAAAAAAAAAAAAAAAAAAAAAAAAAAAAAAAAAAAAAAAAAAAAAAAAAAATEntx56gAOJ2+J1nCFpgAAECUCUCUCUCUCUCUCUCUCUCUCUCUCUCUCUCUCUCUCUCUCUCUCUCUCUCUCUCUCUCUCUCUCUCUCUCUCUCUCUCUCUCUCUCUCUCUCUCUCUCUCUCUCUCUCUCUCUCUCUCUCUCUCUCUCUCUCUCUCUCUCUCUCUCUCUCUCUCUCUCUCUCUSAJiT2489QAHE7fE6zhC0wABAAIJ327XO8t1GOW6g5bqDluoOW6g5bqDluoOW6g5bqDluoOW6g5bqDluoOW6g5bqDluoOW6g5bqDluoOW6g5bqDluoOW6g5bqDluoOW6g5bqDluoOW6g5bqDluoOW6g5bqDluoOW6g5bqDluoOW6g5bqDluoOW6g5bqDluoOW6g5bqDluoOW6g5bqDluoOW6g5bqDluoOW6g5bqDluoOW6g5bqDluoOW6g5bqDluoOW6g5bqDluoOW6g5bqDluoOW6g5bqDluoOW6g5bqDluoOW6g5bqDl59geYd/gdYQ1IAExIAmJPbjz1AAcTt8TrOELTAAQCEExA9LqcaDQAAwGgYDQAACtmA0rZgNGDN3x7moaAt9Vud+R9WuPgfePgfePgfePgfePgfePgfePgfePgfePgfePgfePgfePgfePgfePgfePgfePgfePgfePgfePgfePgfePgfePgfePgfePgfePgfePgfePgfePgfePgfePgfePgfePgfePgfePgfePgfePgfePgfePgfePgfePgfePgfePgfePgfePgfePgfePgfePgr0RzX1fL1gaAI+Rn2KXBDZYGbsNC4a43Z5TOXNZ7yUCZiRMSAJiT2489QAHE7fE6zhC0wBAiaiECFT1w46Za/Jz352cX5313r5x093yfxTSflf1ujVl9T+Fx2b8n5r0Vsdv2vpA67AfB9fzbn12MA3495+bc+0ZueM67mnw/d8B975Prw3w+jN+jl9Xk87p93M6Otxx0AAAAAAAAAAAAAAAAAAAAAAAAAAAAAAAAAAAAAAAAAAAAAA+H7vj6zEd8j52b/E+7Xy/VE4ENoxbm1vn1xqGuT1uQzlWzt3l0C0xImJAExJ7ceeoADidvidZwhaYCJgVtUitqEQrr2In0Bzp6CfoCnnwnZ5qB6Z/FP2JQCtwAGOxlLgDfl+oYDXw/cZ8d/pANWqx0Y+LfjrX5N2t2DG7AbsBuwG7AbsBuwG7AbsBuwG7AbsBuwG7AbsBuwG7AbsBuwG7AbsBuwG7AbsBuwG7AbsBuwG7AbsBuwG7AbsBuwG7AbsBuwG7AbsBuwG7AbsBuwG7AbsBuwG7Cpv8E165Do5fUMw3AGokfI+tufJtqwDXH7HGZybZ37y9qWLTEiYkATEntx56gAOJ2+J1nCFpgImBWYK0tQik117QmfUJEJEJEJEJEJEJEJEJEJEJEJEJEJEJEJEJEJEJEJEJEJEJEJEJEJEJEJEJEJEJEJEJEJEJEJEJEJEJEJEJEJEJEJEJEJEJEJEJEJEJEJEJEJEJEJEJEJEJEJEJEJEJEJEJEJEJEJEJEJEJEJEJEJEJEJEcXt8Tc49s795pfO+LzWwmJAExJ7ceeoADidvidZwhaYCJgiJqVpfMrS1NfpA81QAAAAAAAAAAAAAAAAAAAAAAAAAAAAAAAAAAAAAAAAAAAAAAAAAAAAAAAAAAAAAAAAAAAAAAAAAAAHm/Sea6zzumWl56Xz0xa1bCYkATEntx56gAOJ2+J1nCFpgImCK2qUpfMpS+ev0oeaoAAAAAAAAAAAAAAAAAAAAAAAAAAAAAAAAAAAAAAAAAAAAAAAAAAAAAAAAAAAAAAAAAAAAAAAAAAADzXpfM9Z53TO956XpfF7VsJiQBMSe3HnqAA4nb4nWcIWmAiYIrapTPTMpnpnr9KHmqAAAAAAAAAAAAAAAAAAAAAAAAAAAAAAAAAAAAAAAAAAAAAAAAAAAAAAAAAAAAAAAAAAAAAAAAAAAA8z6bzPWedvS956XpfF7VsJiQBMSe3HnqAA4nb4nWcIWmAiYIrapTPTMpnpnr9KHmqAAAAAAAAAAAAAAAAAAAAAAAAAAAAAAAAAAAAAAAAAAAAAAAAAAAAAAAAAAAAAAAAAAAAAAAAAAAA8z6bzPWedvS956XpfF7VsJiQBMSe3HnqAA4nb4nWcIWmAiYIrapTPTMpnpnr9KHmqAAAAAAAAAAAAAAAAAAAAAAAAAAAAAAAAAAAAAAAAAAAAAAAAAAAAAAAAAAAAAAAAAAAAAAAAAAAA8z6bzPWedvS956XpfF7VsJiQBMSe3HnqAA4nb4nWcIWmAiYIrapTPTMpnpnr9KHmqAAAAAAAAAAAAAAAAAAAAAAAAAAAAAAAAAAAAAAAAAAAAAAAAAAAAAAAAAAAAAAAAAAAAAAAAAAAA8z6bzPWedvS956XpfF7VsJiQBMSe3HnqAA4nb4nWcIWmAiYIrapTPTMpnpnr9KHmqAAAAAAAAAAAAAAAAAAAAAAAAAAAAAAAAAAAAAAAAAAAAAAAAAAAAAAAAAAAAAAAAAAAAAAAAAAAA8z6bzPWedvS956XpfF7VsJiQBMSe3HnqAA4nb4nWcIWmAiYIrapTPTMpnpnr9KHmqAAAAAAAAAAAAAAAAAAAAAAAAAAAAAAAAAAAAAAAAAAAAAAAAAAAAAAAAAAAAAAAAAAAAAAAAAAAA8z6bzPWed0z0vO96Xxe1bCYkATEntx56gAOJ2+J1nCFpgImCK2qUz0zKZ6Z6/Sh5qgAAAAAAAAAAAAAAAAAAAAAAAAAAAAAAAAAAAAAAAAAAAAAAAAAAAAAAAAAAAAAAAAAAAAAAAAAAAPM+m8z1nnb0veel6Xxe1bCYkATEntx56gAOJ2+J1nCFpgImCK2qUz0zKZ6Z6/Sh5qgAAAAAAAAAAAAAAAAAAAAAAAAAAAAAAAAAAAAAAAAAAAAAAAAAAAAAAAAAAAAAAAAAAAAAAAAAAAPM+m8z1nnb0veel6Xxe1bCYkATEntx56gAOJ2+J1nCFpgImCK2qUz0zKZ6Z6/Sh5qgAAAAAAAAAAAAAAAAAAAAAAAAAAAAAAAAAAAAAAAAAAAAAAAAAAAAAAAAAAAAAAAAAAAAAAAAAAAPM+m8z1nnb0veel6Xxe1bCYkATEntx56gAOJ2+J1nCFpgImCK2qUz0zKZ6Z6/Sh5qgAAAAAAAAAAAAAAAAAAAAAAAAAAAAAAAAAAAAAAAAAAAAAAAAAAAAAAAAAAAAAAAAAAAAAAAAAAAPM+m8z1nnb0veel6Xxe1bCYkATEntx56gAOJ2+J1nCFpgImCK2qUz0zKZ6Z6/Sh5qgAAAAAAAAAAAAAAAAAAAAAAAAAAAAAAAAAAAAAAAAAAAAAAAAAAAAAAAAAAAAAAAAAAAAAAAAAAAPM+m8z1nnb0veel6Xxe1bCYkATEntx56gAOJ2+J1nCFpgImCK2qUz0zKZ6Z6/Sh5qgAAAAAAAAAAAAAAAAAAAAAAAAAAAAAAAAAAAAAAAAAAAAAAAAAAAAAAAAAAAAAAAAAAAAAAAAAAAPM+m8z1nnb0veel6Xxe1bCYkATEntx56gAOJ2+J1nCFpgImCK2qUz0zKZ6Z6/Sh5qgAAAAAAAAAAAAAAAAAAAAAAAAAAAAAAAAAAAAAAAAAAAAAAAAAAAAAAAAAAAAAAAAAAAAAAAAAAAPM+m8z1nnb0veel6Xxe1bCYkATEntx56gAOJ2+J1nCFpgImCK2qUz0zKZ6Z6/Sh5qgAAAAAAAAAAAAAAAAAAAAAAAAAAAAAAAAAAAAAAAAAAAAAAAAAAAAAAAAAAAAAAAAAAAAAAAAAAAPM+m8z1nnb0veel6Xxe1bCYkATEntx56gAOJ2+J1nCFpgImCK2qUz0zKZ6Z6/Sh5qgAAAAAAAAAAAAAAAAAAAAAAAAAAAAAAAAAAAAAAAAAAAAAAAAAAAAAAAAAAAAAAAAAAAAAAAAAAAPM+m8z1nndM73npel8XtWwmJAExJ7ceeoADidvidZwhaYCJgitqlM9Mymemev0oeaoAAAAAAAAAAAAAAAAAAAAAAAAAAAAAAAAAAAAAAAAAAAAAAAAAAAAAAAAAAAAAAAAAAAAAAAAAAADzPpvM9Z529L3npel8XtWwmJAExJ7ceeoADidvidZwhaYCJgitqlM9Mymemev0oeaoAAAAAAAAAAAAAAAAAAAAAAAAAAAAAAAAAAAAAAAAAAAAAAAAAAAAAAAAAAAAAAAAAAAAAAAAAAADzPpvM9Z529L3npel8XtWwmJAExJ7ceeoADidvidZwhaYCJgitqlM9Mymemev0oeaoAAAAAAAAAAAAAAAAAAAAAAAAAAAAAAAAAAAAAAAAAAAAAAAAAAAAAAAAAAAAAAAAAAAAAAAAAAADzPpvM9Z529L3npel8XtWwmJAExJ7ceeoADidvidZwhaYCJgitqlM9Mymemev0oeaoAAAAAAAAAAAAAAAAAAAAAAAAAAAAAAAAAAAAAAAAAAAAAAAAAAAAAAAAAAAAAAAAAAAAAAAAAAADzPpvM9Z529L3npel8XtWwmJAExJ7ceeoADidvidZwhaYCJgitqlM9Mymemev0oeaoAAAAAAAAAAAAAAAAAAAAAAAAAAAAAAAAAAAAAAAAAAAAAAAAAAAAAAAAAAAAAAAAAAAAAAAAAAADzPpvM9Z529L3npel8XtWwmJAExJ7ceeoADidvidZwhaYCJgitqlM9Mymemev0oeaoAAAAAAAAAAAAAAAAAAAAAAAAAAAAAAAAAAAAAAAAAAAAAAAAAAAAAAAAAAAAAAAAAAAAAAAAAAADzPpvM9Z529L3npel8XtWwmJAExJ7ceeoADidvidZwhaYCJgitqlM9Mymemev0oeaoAAAAAAAAAAAAAAAAAAAAAAAAAAAAAAAAAAAAAAAAAAAAAAAAAAAAAAAAAAAAAAAAAAAAAAAAAAADzPpvM9Z529L3npel8XtWwmJAExJ7ceeoADidvidZwhaYCJgitqlM9Mymemev0oeaoAAAAAAAAAAAAAAAAAAAAAAAAAAAAAAAAAAAAAAAAAAAAAAAAAAAAAAAAAAAAAAAAAAAAAAAAAAADzPpvM9Z529L3npel8XtWwmJAExJ7ceeoADidvidZwhaYCJgitqlM9Mymemev0oeaoAAAAAAAAAAAAAAAAAAAAAAAAAAAAAAAAAAAAAAAAAAAAAAAAAAAAAAAAAAAAAAAAAAAAAAAAAAADzPpvM9Z529L3npel8XtWwmJAExJ7ceeoADidvidZwhaYCJgitqlM9Mymemev0oeaoAAAAAAAAAAAAAAAAAAAAAAAAAAAAAAAAAAAAAAAAAAAAAAAAAAAAAAAAAAAAAAAAAAAAAAAAAAADzPpvM9Z529L3npel8XtWwmJAExJ7ceeoADidvidZwhaYCJgitqlM9Mymemev0oeaoAAAAAAAAAAAAAAAAAAAAAAAAAAAAAAAAAAAAAAAAAAAAAAAAAAAAAAAAAAAAAAAAAAAAAAAAAAADzPpvM9Z529L3npel8XtWwmJAExJ7ceeoADidvidZwhaYCJgitqlM9Mymemev0oeaoAAAAAAAAAAAAAAAAAAAAAAAAAAAAAAAAAAAAAAAAAAAAAAAAAAAAAAAAAAAAAAAAAAAAAAAAAAADzPpvM9Z529L3npel8XtWwmJAExJ7ceeoADidvidZwhaYCJgitqlM9Mymemev0oeaoAAAAAAAAAAAAAAAAAAAAAAAAAAAAAAAAAAAAAAAAAAAAAAAAAAAAAAAAAAAAAAAAAAAAAAAAAAADzPpvM9Z529L3npel8XtWwmJAExJ7ceeoADidvidZwhaYCJgitqlM9Mymemev0oeaoAAAAAAAAAAAAAAAAAAAAAAAAAAAAAAAAAAAAAAAAAAAAAAAAAAAAAAAAAAAAAAAAAAAAAAAAAAADzPpvM9Z529L3npel8XtWwmJAExJ7ceeoADidvidZwhaYCJgitqlM9Mymemev0oeaoAAAAAAAAAAAAAAAAAAAAAAAAAAAAAAAAAAAAAAAAAAAAAAAAAAAAAAAAAAAAAAAAAAAAAAAAAAADzPpvM9Z529L3npel8XtWwmJAExJ7ceeoADidvidZwhaYCJgitqlM9Mymemev0oeaoAAAAAAAAAAAAAAAAAAAAAAAAAAAAAAAAAAAAAAAAAAAAAAAAAAAAAAAAAAAAAAAAAAAAAAAAAAADzPpvM9Z529L3npel8XtWwmJAExJ7ceeoADidvidZwhaYCJgitqlM9Mymemev0oeaoAAAAAAAAAAAAAAAAAAAAAAAAAAAAAAAAAAAAAAAAAAAAAAAAAAAAAAAAAAAAAAAAAAAAAAAAAAADzPpvM9Z529L3npel8XtWwmJAExJ7ceeoADidvidZwhaYCJgitqlM9Mymemev0oeaoAAAAAAAAAAAAAAAAAAAAAAAAAAAAAAAAAAAAAAAAAAAAAAAAAAAAAAAAAAAAAAAAAAAAAAAAAAADzPpvM9Z529L3npel8XtWwmJAExJ7ceeoADidvidZwhaYCJgitqlM9Mymemev0oeaoAAAAAAAAAAAAAAAAAAAAAAAAAAAAAAAAAAAAAAAAAAAAAAAAAAAAAAAAAAAAAAAAAAAAAAAAAAADzPpvM9Z529NLzvel8XtWwmJAExJ7ceeoADidvidZwhaYCJgitqlM9Mymemev0oeaoAAAAAAAAAAAAAAAAAAAAAAAAAAAAAAAAAAAAAAAAAAAAAAAAAAAAAAAAAAAAAAAAAAAAAAAAAAADzPpvM9Z53TO956XpfF7VsJiQBMSe3HnqAA4nb4nWcIWmAiYIrapTPTMpnpnr9KHmqAAAAAAAAAAAAAAAAAAAAAAAAAAAAAAAAAAAAAAAAAAAAAAAAAAAAAAAAAAAAAAAAAAAAAAAAAAAA8z6bzPWedvS956XpfF7VsJiQBMSe3HnqAA4nb4nWcIWmAiYIrapTPTMpnpnr9KHmqAAAAAAAAAAAAAAAAAAAAAAAAAAAAAAAAAAAAAAAAAAAAAAAAAAAAAAAAAAAAAAAAAAAAAAAAAAAA8z6bzPWedvS956XpfF7VsJiQBMSe3HnqAA4nb4nWcIWmAiYIrapTPTMpnpnr9KHmqAAAAAAAAAAAAAAAAAAAAAAAAAAAAAAAAAAAAAAAAAAAAAAAAAAAAAAAAAAAAAAAAAAAAAAAAAAAA8z6bzPWedvS956XpfF7VsJiQBMSe3HnqAA4nb4nWcIWmAiYIrapTPTMpnpnr9KHmqAAAAAAAAAAAAAAAAAAAAAAAAAAAAAAAAAAAAAAAAAAAAAAAAAAAAAAAAAAAAAAAAAAAAAAAAAAAA8z6bzPWedvS956XpfF7VsJiQBMSe3HnqAA4nb4nWcIWmAiYIrapTPTMpnpnr9KHmqAAAAAAAAAAAAAAAAAAAAAAAAAAAAAAAAAAAAAAAAAAAAAAAAAAAAAAAAAAAAAAAAAAAAAAAAAAAA8z6bzPWedvS956XpfF7VsJiQBMSe3HnqAA4nb4nWcIWmAiYIrapTPShnnpTX6SPNUAAAAAAAAAAAAAAAAAAAAAAAAAAAAAAAAAAAAAAAAAAAAAAAAAAAAAAAAAAAAAAAAAAAAAAAAAAAB5r0vmus85pS953vW+LWrYTEgCYk9uPPUABxO3xOs4QtMBEwRW1SlNKGdNKa/Rx5qgAAAAAAAAAAAAAAAAAAAAAAAAAAAAAAAAAAAAAAAAAAAAAAAAAAAAAAAAAAAAAAAAAAAAAAAAAAAPN+k831nnNKXvO96aYm0SJiQBMSe3HnqAA4nb4nWcIWmAiYFL1KU0oUppTXvfo8j66FA50AAAAAAAAAAAAAAAAAAAAAAAAAAAAAAAAAAAAAAAAAAAAAAAAAAAAAAAAAAAAAAAAAAAAAAAAAAB5PveKpzW8Wrxa9bYtMSJiQBMSe3HnqAA4nb4nWcIWmAiYFZgil6lK6V1n9fzVx3589XN9E85B6N5yD0jzcno3nB6N5wejecHo3nB6N5wejecHo3nB6N5wejecHo3nB6N5wejecHo3nB6N5wejecHo3nB6N5yD0jzcno3nB6N5wejecHo3nB6N5wejecHo3nB6N5wejecHo3nB6N5wejecHo3nB6N5wejecHo3nB6N5sekecHo3nB6N5wejecHo3nB6N5wejecHo3nB6N5wejecHo3nB6N5wejecHo3nB6N5wejecHo3nIPSPNyejecHo3nB6N5wejecHo3nB6N5wejecHo3nB6N5wejecHo3nB6N5wejecHo3nB6N5wejecHo582PST5uT0fz8WxJbrFk4taJJmJExIAmJPbjz1AAcTt8TrOELTARMERMEJgrF6lIvBnGkapGkGbQZtBm0GbQZtBm0GbQZtBm0GbQZtBm0GbQZtBm0GbQZtBm0GbQZtBm0GbQZtBm0GbQZtBm0GbQZtBm0GbQZtBm0GbQZtBm0GbQZtBm0GbQZtBm0GbQZtBm0GbQZtBm0GbQZtBm0GbQZtBm0GbQZtBm0GbQZtBm0GbQZtBm0GbQZtBm0GbQZtBm0GbQZtBnN5KLis2kiZnEWSJSJCQAJiT2489QAHE7fE6zhC0wETBCYwTGoiREWgqsKLwVi4ouKLii4ouKLii4ouKLii4ouKLii4ouKLii4ouKLii4ouKLii4ouKLii4ouKLii4ouKLii4ouKLii4ouKLii4ouKLii4ouKLii4ouKLii4ouKLii4ouKLii4ouKLii4ouKLii4ouKLii4ouKLii4ouKLii4ouKLii4ouKTaSi4qsImQSCQmJAAExJ7ceeoADidvidZwhaYCJgAAhIiLCsyISISISISISISISISISISISISISISISISISISISISISISISISISISISISISISISISISISISISISISISISISISISISISISISISISISISISISISISISISISISISISISISISISISISISISISISISISISKzIhIAAkAACYk9uPPUABxO3xOs4QtMAAAAAAAAAAAAAAAAAAAAAAAAAAAAAAAAAAAAAAAAAAAAAAAAAAAAAAAAAAAAAAAAAAAAAAAAAAAAAAAAAAAAAAABMSe3HnqAA4nb4nWcIWmAAAAAAAAAAAAAAAAAAAAAAAAAAAAAAAAAAAAAAAAAAAAAAAAAAAAAAAAAAAAAAAAAAAAAAAAAAAAAAAAAAAAAAAAmJPbjz1AAcQ6zhi0wAAAAAAAAAAAAAAAAAAAAAAAAAAAAAAAAAAAAAAAAAAAAAAAAAAAAAAAAAAAAAAAAAAAAAAAAAAAAAAAAAAAAAAAAPbjz1A//xAAqEAACAQIHAAICAgMBAQAAAAAAATACBQMQEhMUFXAEESAhQGAiMVAyM//aAAgBAQABBQLO6eaKC6+aKC6+aKC6+aKC6+aKC6+aKC6+aKC6+aKC6+aKC6+aKC6+aKC6+aKC6zYeFXWcQ4hxDiHEOIcQ4hxDiHEOIcQ4hxDiHEOIcQ4hxDiHEOIcQ4hxDiHEOIcQ4hxDiHEOIcQ4hxDiHEOIcQ4hxDiHEOIcQ4hxDiHEOIcQ4hxDiHEOIcQ4hxDiHEOIcQ4hxDiHEOIcQ4hxDiHEOIcQ4hxDiHEOIcQ4hxDiHEOIcQ4hxDiHEOIcQ4hxDiHEOIcQ4hxDiHEOIcQ4hxDiHEOIcQ4hxDiHEOIcQ4hxDiHEOIcQ4hxDiHEOIcQ4hxDiHEOIcQ4hxDiHEOIcQ4hxDiHEOIcQq+LWh/acigusvxcLW/GcbCWJS0041BdZcKnTh/8AG+maajTUaajTUaajTUaajTUaajTUaajTUaajTUaajTUaajTUaajTUaajTUaajTUaajTUaajTUaajTUaajTUaajTUaajTUaajTUaajTUaajTUaajTUaajTUaajTUaajTUaajTUaajTUaajTUaajTUaajTUaajTUaajTUaajTUaajTUaajTUaajTUaajTUaajTUaajTUaajTUaajTUaajTUaajTUaajTUaajTUaajTUaajTUaaj6f8T51P1iRqC6/8NNNZpp/jiYtFBvMw66a1+FFH0V10UKjEor/sFdH5N/S5GGUVKunPdwjdwjdwimqmr8LhIoLr/Axa1h4eJiV4lWFiV4dVFSroqf0m2yltC/arq0UV11VvDrqodL1U/k28eqlKlZ4tDVWFWsSnLEq0UfHo+kY60PPBX+VT+qfi4SxV8nApVODXuYX9fxF9Vfg39L9458X/AOGeig0UGigSS/C4SKC6/wAD5dLq+Pl8al04GJ+6MqP1T8hfeDlgrThfjiU66MCrT+OJWqKcCh68vkr7wMN6qD5VFTXx6KkssEqX2sDF458v5VDw/j6Vg/1/F/8AedNf+X7x2f6zf7WwjZRsooo0fhcZFBdf4OL8TDreF8Wih5VYaZThpZ1/HpqeHgU0v88XDWJTRq0Z7f3i/hprwnvMwlias6X9P/ZUlUKmlLBwXhYv9eqf0n+3niYeJu4brf4v/X18g+vkH18gw9f4XKRQXX/p01Ok3TdRuo3UbqN1G6jdRuo3UbqN1G6jdRuo3UbqN1G6jdRuo3UbqN1G6jdRuo3UbqN1G6jdRuo3UbqN1G6jdRuo3UbqN1G6jdRuo3UbqN1G6jdRuo3UbqN1G6jdRuo3UbqN1G6jdRuo3UbqN1G6jdRuo3UbqN1G6jdRuo3UbqN1G6jdRuo3UbqN1G6jdRuo3UbqN1G6jdRuo3UbqN1DxRtv+Hc5FBdfKLnIoLrC/H7pIoLrC/H73IoLr5Re5FBdY347fM1CoLrCxj8dvkigusLGPx2+SKC6wvJ+O3yRQXWFjH47fJFBdYXk/Hb5IoLrC8n47fJFBdYXk/Hb5IoLrC8n47fJFBdYXk/Hb5IoLrCxj8dvkigusLyfjt8kUF1heT8dvkigusLyfjt8kUF1heT8dvkigusLyfjt8kUF1heT8dvkigusLyfjt8kUF1heT8dvkigusLyfjt8kUF1heT8dvkigusLyfjt8kUF1hYx+O3yRQXWFjH47fJFBdYWMfjt8kUF1hYx+O3yRQXWF5Px2+SKC6wvJ+O3yRQXWF5Px2+SKC6wvJ+O3yRQXWF5Px2+SKC6wvJ+O3yRQXWF5Px2+SKC6wvJ+O3yRQXWF5Px2+SKC6wvJ+O3yRQXWF5Px2+SKC6wvJ+O3yRQXWF5Px2+SKC6wvJ+O3yRQXWF5Px2+SKC6wvJ+O3yRQXWFjH47fJFBdYWMfjt8kUF1heT8dvkigusLGPx2+SKC6wvJ+O3yRQXWF5Px2+SKC6wvJ+O3yRQXWF5Px2+SKC6wvJ+O3yRQXWF5Px2+SKC6wvJ+O3yRQXWF5Px2+SKC6wvJ+O3yRQXWF5Px2+SKC6wvJ+O3yRQXWF5Px2+SKC6wvJ+O3yRQXWF5Px2+SKC6wvJ+O3yRQXWF5Px2+SKC6wsY/Hb5IoLrCxj8dvkigusLGPx2+SKC6wvJ+O3yRQXWFjH47fJFBdYXk/Hb5IoLrC8n47fJFBdYXk/Hb5IoLrC8n47fJFBdYXk/Hb5IoLrC8n47fJFBdYXk/Hb5IoLrC8n47fJFBdYXk/Hb5IoLrC8n47fJFBdYXk/Hb5IoLrC8n47fJFBdYXk/Hb5IoLrC8n47fJFBdYXk/Hb5IoLrG/Hb5moVBdY347fBRqC6+UXsUaguvlF7kUF1kZ8avcwPGrxXq+RGoLrLbvlbNXjPy/k0/HoqbqqjUF1mwPk42AK6M7U7U7U7U7Y7Y7Y7Y7Y7Y7Y7Y7Y7Y7Y7Y7Y7Y7Y7Y7Y7Y7Y7Y7Y7Y7Y7Y7Y7Y7Y7Y7Y7Y7Y7Y7Y7Y7Y7Y7Y7Y7Y7Y7Y7Y7Y7Y7Y7Y7Y7Y7Y7Y7Y7Y7Y7Y7Y7Y7Y7Y7Y7Y7Y7Y7Y7Y7Y7Y7Y7Y7Y7Y7U7Y7Y7Y7Y7Y7Y7Y7Y7Y7Y7Y7Y7Y7Y7Y7Y7Y7Y7Y7Y7Y7Y7Y7Y7Y7Y7Y7Y7Y7Y7Y7Y7Y7Y7Y7Y7Y7Y7Y7Y7Y7Y7Y7Y7Y7Y7Y7Y7Y7Y7Y7Y7Y7Y7Y7Y7Y7Y7Y7Y7Y7Y7Y7Y7Y7Y7Y7Y7Y7Y7Y7U7U7U7QxLljVFTdVUiguvmiguvmiguvmiguvmiguvmiguvmiguvmiguvmiguvmiguvmiguvmigunmi/H//xAAlEQADAQEBAAIBBAIDAAAAAAAAARExYDACEgMQEyFAFCAiQVD/2gAIAQMBAT8BHnPPOeec88555zzznnnPPP7UIQhCEIQhCEIQhCEIQhCEIQhCEIQhCEIQhCEIQhCE/qPPD8SXy+aXyw/b+P1+s/gfx+P7v1/6p9VIfn/4r5fU+/yv2v8AJ8G38U34v9EMW/8AoP8ApvPH/L/N9fr9v4/T975yX9P8b8X2+09afwUpSlKUpSlKUpSlKUpSlKUpSlKUpSlKUpSlKUpSlH/Tec885R55POUeeTzlHnk85R55POUeeTzlHnk85R55POUeeTzlHnk85R55POUeeTzlHnk85R55POUeeTzlHnk85R55POUeeTzlHnk85R55POUeeTzlHnk85R55POUeeTzlHnk85R55POUeeTzlHnk85R55POUeeTzlHnk85R55POUeeTzlHnk85R55POUeeTzlHnk85R55POUeeTzlHnk85R55POUeeTzlHnk85R55POUeeTz/AHXG/J+TzwpWVlZWVlZWVlZWVlZWVlZWVlZWVlZWVlZWVlZWVlZWVlZWVlZSsrKysrKysrKysrKysrKysrKysrKysrKysrKysrKysrKysrKysvm8555zzznnnPPOeec7/8QAJBEAAQUBAQACAgIDAAAAAAAAAAECERIxYDAQIRMgA0EUQFD/2gAIAQIBAT8BG7zzd55u883eebvPN3nm7+8kkkkkkkkkkkkkkkkkkkkkkkkkkkkkkkkkkkkkkkkkkkkkkkkkkkkkkkkkkkkkkkkkkkkkkkkkkkk+bd/14+ZJLFixYsWLFixYsWLFixYsWLFixYsWLFixYsWLFixYsWLFixYsWLFixYsT8x8x8p5N3wdhKzJ/I5yfxqqbB+R1rT9iOd+K39wWWZG/affyn6/0J8KJn0LMff8A0G/Ofsnk3fH8bZmPj/E/htav38fhZMx6wfZBBBBBBBBBBBBBBBBBBBBBBBBBBBBBBBBBBBBBBBBBBBBBBAifCLH6T8p5N3lE3ybvKM3ybvKM3ybvKM3ybvKM3ybvKM3ybvKM3ybvKM3ybvKM3ybvKM3ybvKM3ybvKM3ybvKM3ybvKM3ybvKM3ybvKM3ybvKM3ybvKM3ybvKM3ybvKM3ybvKM3ybvKM3ybvKM3ybvKM3ybvKM3ybvKM3ybvKM3ybvKM3ybvKM3ybvKM3ybvKM3ybvKM3ybvKM3ybvKM3ybvKM3ybvKM3ybvKM3ybvKM3ybvKM3ybvKM3ybvKM3ybvKM3ybvKM3ybvKM3ybvKM3ybv7uSONYn9+Td8KIUQohRCiFEKIUQohRCiFEKIUQohRCiFEKIUQohRCiFEKIUQohRCiFEKIUQohRCiFEKIUQohRCiFEKIUQohRCiFEKIUQohRCiFEKIUQohRCiFEKIUQohRCiFEKIUQohRCiFEKIUQohVPNu883eebvPN3nm7zzd53/8QANBAAAQEHBAAEBQMFAAMAAAAAAAEDMTIzgaGiAhFAcBIgIVEQEyJBkTBgYSNCUHGSUmKx/9oACAEBAAY/Avizr14zr14zr14zr14zr14zr14zr14zr14zr14zr14zr14zr14zr+t6J6e5HYjsR2I7EdiOxHYjsR2I7EdiOxHYjsR2I7EdiOxHYjsR2I7EdiOxHYjsR2I7EdiOxHYjsR2I7EdiOxHYjsR2I7EdiOxHYjsR2I7EdiOxHYjsR2I7EdiOxHYjsR2I7EdiOxHYjsR2I7EdiOxHYjsR2I7EdiOxHYjsR2I7EdiOxHYjsR2I7EdiOxHYjsR2I7EdiOxHYjsR2I7EdiOxHYjsR2I7EdiOxHYjsR2I7EdiOxHYjsR2I7EdiOxHYjsR2I7EdiOxHYjsR2I7EdiOxHYjsR2I7EdiOxHYjsR2I7EdiOxHYjsR2I7EdiOxHYjsR2I7EdiOxHY+lU1GypsvFZ1/V8WqFOmv5+ymy8RnX9XTp/w7hyjlHKOUco5RyjlHKOUco5RyjlHKOUco5RyjlHKOUco5RyjlHKOUco5RyjlHKOUco5RyjlHKOUco5RyjlHKOUco5RyjlHKOUco5RyjlHKOUco5RyjlHKOUco5RyjlHKOUco5RyjlHKOUco5RyjlHKOUco5RyjlHKOUco5RyjlHKOUco7iJq904jOv+D3Rd08i7K7y+r/AGQ9WOvY30r5fV5vr1In+z6NaL+4N0825/d+DxI7yTNJM0kzSfSqL5NHEZ14C61+xvqU30rQTUn3Nz1PQ3F1exvqU3RRNSffz+HT6M0evubI7yfNZRfdPc3T8fFdXsePV669X3+HztP2i/nyqvsfPbfUup38HzWSeDXp9fQ06/dP3LupuvozS5p8kGn8EGn8EGn8HoiJ5NHEZ14GpE+OhFfsL8UF2+OlF8y6d9tz5OtNtSO/ny+LUK11em/2+OoRU9vh4tPtsqHi1r9S/FRU9z5Db6dodXuatDJfEqvVPsaE0rumz/3I03220m6+jL/75o2n/RG0/wCiNp/0PVf9r5NHEZ14O+lfCeJV8S/H2Pf47p9Juv1fobK/7KJ413XyePWu+0KeX+mni0f+J6Mde54mi7f+vk3+HqiKbJpRKC+DV/SX+32/b+/l1fT4tCrvtu8+pn4U/wB+X0Imf4Imf4Imf4PrXTTyaK8RnX/J+g4co5RyjlHKOUco5RyjlHKOUco5RyjlHKOUco5RyjlHKOUco5RyjlHKOUco5RyjlHKOUco5RyjlHKOUco5RyjlHKOUco5RyjlHKOUco5RyjlHKOUco5RyjlHKOUco5RyjlHKOUco5RyjlHKOUco5RyjlHKOUco5RyjlHKOUco5RyjlHKeiHrw2deIzr1QzrxGdeqGdeIzr1QyrxGdeqGVeIzr1QyrxGdeqGVeIzr1QyrxGdeqGVeIzr1QyrxGdeqGVeIzr1QyrxGdeqGVeIzr1QyrxGdeqGVeIzr1QyrxGdeqGVeIzr1QyrxGdeqGVeIzr1QyrxGdeqGVeIzr1QyrxGdeqGVeIzr1QyrxGdeqGVeIzr1QyrxGdeqGVeIzr1QyrxGdeqGVeIzr1QyrxGdeqGVeIzr1QyrxGdeqGVeIzr1QyrxGdeqGVeIzr1QyrxGdeqGVeIzr1QyrxGdeqGVeIzr1QyrxGdeqGVeIzr1QyrxGdeqGVeIzr1QyrxGdeqGVeIzr1QyrxGdeqGVeIzr1QyrxGdeqGVeIzr1QyrxGdeqGVeIzr1QyrxGdeqGVeIzr1QyrxGdeqGVeIzr1QyrxGdeqGVeIzr1QyrxGdeqGVeIzr1QyrxGdeqGVeIzr1QyrxGdeqGVeIzr1QyrxGdeqGVeIzr1QyrxGdeqGVeIzr1QyrxGdeqGVeIzr1QyrxGdeqGVeIzr1QyrxGdeqGVeIzr1QyrxGdeqGVeIzr1QyrxGdeqGVeIzr1QyrxGdeqGVeIzr1QyrxGdeqGVeIzr1QyrxGdeqGVeIzr1QyrxGdeqGVeIzr1QyrxGdeqGVeIzr1QyrxGdeqGVeIzr1QyrxGdeqGVeIzr+ro1+6dN6dCf2pxGdf1fl64Ft0176lcgurUu6rxGdf1ttGr6fZT1Y5EjIkZEjIkZEjIkZEjIkZEjIkZEjIkZEjIkZEjIkZEjIkZEjIkZEjIkZEjIkZEjIkZEjIkZEjIkZEjIkZEjIkZEjIkZEjIkZEjIkZEjIkZEjIkZEjIkZEjIkZEjIkZEjIkZEjIkZEjIkZEjIkZEjIkZEjIkZEjIkZEjIkZEjIkZEjIkZEjIkZEjIkZEjIkZEjIkZEjIkZEjIkZEjIkZEjIkZEjIkZEjIkZEjIkZEjIkZEjIkZEjIkZEjIkZEjIkZEjIkZEjIkZEjIkZEjIkZEjIkZEjIkZEjIkZEjIkZEjIkZEjIkZEjIkZEjIkZEjIkZEjIkZEjIkZEjIkZEjIkZEjIkZEjIkZEjIkZEjIkZEjIkZEjIkZEjIkZG2jTp0XPFqVVXis69eM69eM69eM69eM69eM69eM69eM69eM69eM69eM69eM69c//xAAsEAACAQIGAwEBAAEEAwEAAAAAAREx8BAgMEFR8XBxgSFhQGCRweFQobHR/9oACAEBAAE/IcX/ACzYlkslkslkslkslkslkslkslkslkslkslkslkslkslkslkslkslkslkslkslkslkslkslkslkslkslkslkslkslkslkslkslkslkslkslkslkslkslkslkslkslkslkslkslkslkslkslkslkslkslkslkslkslkslkslkslkslkslkslkslkslkslkslkslkslkslkslkslkslkslkslkslkslkslkslkslkslkslkslkslkslkslkslkslkslkslkslkslkslksljOdCizbxpVoUWbeNKtCizbxpVoUWbeNKtCizbxpVoUWbeNKtCizbxpVoUWbeNKtCizbxpVoUWbeNKtCizbxpVoUWba378XJQTR+rP88LkkkkkkkkkkkkkkkkkkkkkkkkkkkkkkkkkkkkkkkkkkkkkkkkkkkkkkkkkkkkkkkkkkkkkkkkkkklE/wKCtNI2erVoUWbaq4r+HLKU8MxZ/ig5qhpw9SrQos21UKNl/4dPo3+x0R0R0R0R0R0R0R0R0R0R0R0R0R0R0R0R0R0R0R0R0R0R0R0R0R0R0R0R0R0R0R0R0R0R0R0R0R0R0R0R0R0R0R0R0R0R0R0R0R0R0R0R0R0R0R0R0R0R0R0R0R0R0R0R0R0R0R0R0R0R0R0R0R0R0R0R0R0R0R0R0R0R0R0R0R0R0R0R0R0R0R0R0R0R0Q0VZf4kCf2+alWhRZtqb5ff+FGkzdZGyIbaHG2WJTttT9GRfqPKD9eueVkX64QlZ/QhR/6P/Vm/wDUC4h/eMyntRKcNQKrFtJNtwkdwdwdwLW4WsPJ/wAmpVoUWbam+SgIlOSZd/zZCU9/djKQySSbbD2WGst8GgTcUw2H6AfzZH1aWzF0Ak53Z7/6GQkrhKLK4H/dvwx/k4/rwbYRy4bfhbBfqlUeMkuBDmiSQeX7kdEHtJOD/En4FH7f6gkV9yoYyEqs/T9KJXof/d/9xqoeSEIf+lRZP+fBaVWhRZtpPCf3J+yjX7/tj+DafoRoLFYT4Hq1VxfVEZv31yIayQ2iiZWdn5/9GUc6V4/uLVVWJE0c8Dw9uf6SJnIEo4WL/qCHtEhi0+KfiEJCQh+IIia1hN/9QP8A+mR7U6PX6JQxof4r0F+KEJJISSX8xSRfqnjIjGFI0p39Mn/P/wAYrRq0KLNtJjN8rS47qlQX2FUmixZSmGUv9YzwbPihLhsqTTQpQT4CohG61km5ZfQWWfc1+uX6vRP+fxoGW/YUJKLJHhNJKoJoWcNSPyU6pCHirLd/P9PpmDNje+R1y4gA+hSl+RLLKX4naTsB2A7AQpzHtDJa+CELBZ6tCizbQYxjNzb/AMN/AcCTd/8AUAAAAAAAAAAAAAAAAAAAAAAAAAAAAAAAAAAAAAAAAAAAAAAAAAAAAAAAAAAAAAAAB/2I9lv8Ox8EIWCz1aFFm2gxjGbm3hu58EIWCz1aFFm2g8DGbkOKMh8Mh8Mh8Mh8Mh8Mh8Mh8Mh8Mh8Mh8Mh8Mh8Mh8Mh8Mh8Mh8Mh8Mh8Mh8Mh8Mh8Mh8Mh8Mh8Mh8Mh8Mh8Mh8Mh8Mh8Mh8Mh8Mh8Mh8Mh8Mh8Mh8Mh8Mh8Mh8Mh8Mh8Mh8Mh8Mh8Mh8Mh8Mh8Mh8Mh8Mh8Mh8Mh8Mh8Mh8Mh8Mh8Mh8Mh8Mh8Mh8Mh8Mh8Mh8Mh8Mh8Mh8Mh8Mh8Mh8Mh8Mh8Mh8Mh8Mh8Mh8Mh8Mh8Mh8Mh8Mh8Mh8Mh8Mh8Mh8Mh8Mh8Mh8Mh8Mh8Mh8Mh8Mh8Mh8Mh8Mh8Mh8Mh8Mh8Mh8Mh8Mh8Mh8Mh8Mh8Mh8Mh8Mh8Mh8Mh8Mh8Mh8Mh8Mh8Mh8Mh8Mh8Mh8Mh8Mh8Mh8Mh8Mh8Mh8Mh8Mh8Mh8Mh8Mh8Mh8Mh8Mh8Mh8Mh8Mh8Mh8Mh8Mh8Mh8Mh8Mh8Mh8Mh8Mh8Mh8Mh8Mh8Mh8Mh8Mh8Mh8Mh8Mh8Mh8M/NnAhCELPVoUWbaDwMZuvYqeG73wQhCFnq0KLNtBjGM3QqeG7/wAEIQhZ6tCizbQYx4N17FTw3b+CFgQs9WhRZtnY8g3XsVPDd74IQhCz1aFFm2djyDdexU8N3vghCELPVoUWbZ2PA8G69ip4bvfBCEIWerQos2zseQbr2Knhu98EIQhZ6tCizbOx4Hg3XsVPDd74IQhCz1aFFm2djwPBuvYqeG73wQhCFnq0KLNs7HgeDdexU8N3vghCELPVoUWbZ2PA8G69ip4bvfBCEIWerQos2zseB4N17FTw3e+CEIQs9WhRZtnY8g3XsVPDd74IQhCz1aFFm2djwPBuvYqeG73wQhCFnq0KLNs7HgeDdexU8N3vghCELPVoUWbZ2PA8G69ip4bvfBCEIWerQos2zseB4N17FTw3e+CEIQs9WhRZtnY8Dwbr2Knhu98EIQhZ6tCizbOx4Hg3XsVPDd74IQhCz1aFFm2djwPBuvYqeG73wQhCFnq0KLNs7HgeDdexU8N3vghCELPVoUWbZ2PA8G69ip4bvfBCEIWerQos2zseB4N17FTw3e+CEIQs9WhRZtnY8Dwbr2Knhu98EIQhZ6tCizbOx5BuvYqeG73wQhCFnq0KLNs7HkG69ip4bvfBCEIWerQos2zseQbr2Knhu98EIQhZ6tCizbOx5BuvYqeG73wQhCFnq0KLNs7HgeDdexU8N3vghCELPVoUWbZ2PA8G69ip4bvfBCEIWerQos2zseB4N17FTw3e+CEIQs9WhRZtnY8Dwbr2Knhu98EIQhZ6tCizbOx4Hg3XsVPDd74IQhCz1aFFm2djwPBuvYqeG73wQhCFnq0KLNs7HgeDdexU8N3vghCELPVoUWbZ2PA8G69ip4bvfBCEIWerQos2zseB4N17FTw3e+CEIQs9WhRZtnY8Dwbr2Knhu98EIQhZ6tCizbOx4Hg3XsVPDd74IQhCz1aFFm2djwPBuvYqeG73wQhCFnq0KLNs7HgeDdexU8N3vghCELPVoUWbZ2PA8G69ip4bvfBCEIWerQos2zseB4N17FTw3e+CEIQs9WhRZtnY8Dwbr2Knhu98EIQhZ6tCizbOx5BuvYqeG73wQhCFnq0KLNs7HkG69ip4bvfBCEIWerQos2zseB4N17FTw3e+CEIQs9WhRZtnY8g3XsVPDd74IQhCz1aFFm2djwPBuvYqeG73wQhCFnq0KLNs7HgeDdexU8N3vghCELPVoUWbZ2PA8G69ip4bvfBCEIWerQos2zseB4N17FTw3e+CEIQs9WhRZtnY8Dwbr2Knhu98EIQhZ6tCizbOx4Hg3XsVPDd74IQhCz1aFFm2djwPBuvYqeG73wQhCFnq0KLNs7HgeDdexU8N3vghCELPVoUWbZ2PA8G69ip4bvfBCEIWerQos2zseB4N17FTw3e+CEIQs9WhRZtnY8Dwbr2Knhu98EIQhZ6tCizbOx4Hg3XsVPDd74IQhCz1aFFm2djwPBuvYqeG73wQhCFnq0KLNs7HgeDdexU8N3vghCELPVoUWbZ2PA8G69ip4bvfBCEIWerQos2zseB4N17FTw3e+CEIQs9WhRZtnY8g3XsVPDd74IQhCz1aFFm2djyDdexU8N3vghCELPVoUWbZ2PIN17FTw3e+CEIQs9WhRZtnY8Dwbr2Knhu98EIQhZ6tCizbOx5BuvYqeG73wQhCFnq0KLNs7HgeDdexU8N3vghCELPVoUWbZ2PA8G69ip4bvfBCEIWerQos2zseB4N17FTw3e+CEIQs9WhRZtnY8Dwbr2Knhu98EIQhZ6tCizbOx4Hg3XsVPDd74IQhCz1aFFm2djwPBuvYqeG73wQhCFnq0KLNs7HgeDdexU8N3vghCELPVoUWbZ2PA8G69ip4bvfBCEIWerQos2zseB4N17FTw3e+CEIQs9WhRZtnY8Dwbr2Knhu98EIQhZ6tCizbOx4Hg3XsVPDd74IQhCz1aFFm2djwPBuvYqeG73wQhCFnq0KLNs7HgeDdexU8N3vghCELPVoUWbZ2PA8G69ip4bvfBCEIWerQos2zseB4N17FTw3e+CEIQs9WhRZtnYxjwbr2Knhu38ELAhZ6tCizbQYx4N17FTw3b+YEIQs9WhRZtoMYxm69ip4bvfMCEIWerQos20GMYzdexU8N2vghCFoVaFFm2ixjwJW/097+G0sXN7YhCELPVoUWbaLGMYpzf3mef/4JppNNNPfwzNXH1f8A0S9FLYhCwWerQos20GMYxjK4PaRF/Nv+f9CzqWdS7qX9S3qW9S3qW9S3qW9S3qW9S3qW9S3qW9S3qW9S3qW9S3qW9S3qW9S3qW9S3qW9S3qW9S3qW9S3qW9S3qW9S3qW9S3qWdS3qW9S3qW9S3qW9S3qW9S3qW9S3qW9S3qW9S3qW9S3qW9S3qW9S3qW9S3qW9S3qW9S3qW9S3qW9S3qW9S3qW9S7qW9S3qW9S3qW9S3qW9S3qW9S3qW9S3qW9S3qW9S3qW9S3qW9S3qW9S3qW9S3qW9S3qW9S3qW9S3qW9S3qW9S3qW9S3qW9S3qW9S3qW9S3qW9S3qW9S3qW9S3qW9S3qW9S3qW9S3qW9S3qW9S3qW9S3qW9S3qW9S3qW9S3qW9S3qW9S3qW9S/qXdSzqXdBR7BUNzLq2xCELBZ6tCizbSY8GQNEEEEEEEEEEEEEEEEEEEEEEEEEEEEEEEEEEEEEEEEEEEEEEEEEEEEEEEEEEEEEEEEEEEEEEEEEEEEEEEEEEEEEEEEEEEEEEEEEEEEEEEEEEEEEEEEEEEEEEEEEEEEEEEEEEEEEEEEEEEEEEEEEEEEECQkJCQhC0atCizbTeEEEEEEEEEEEEEEEEEEEEEEEEEEEEEEEEEEEEEEEEEEEEEEEEEEEEEEEEEEEEEEEEEEEEEEEEEEEEEEEEEEEEEEEEEEEEEEEEEEEEEEEEEEEEEEEEEEEEEEEEEEEEEEEEEEEEEEEEEEEEEEEEEEEEEEEEEEZFpVaFFm2rBBBBBBBBBBBBBBBBBBBBBBBBBBBBBBBBBBBBBBBBBBBBBBBBBBBBBBBBBBBBBBBBBBBBBBBBBBBBBBBBBBBBBBBBBBBBBBBBBBBBBBBBBBBBBBBBBBBBBBBBBBBBBBBBBBBBBBBBBBBBBBBBBBBBBBBBBBGrVoUWbasEYQQQQQQQQQQQQQQQQQQQQQQQQQQQQQQQQQQQQQQQQQQQQQQQQQQQQQQQQQQQQQQQQQQQQQQQQQQQQQQQQQQQQQQQQQQQQQQQQQQQQQQQQQQQQQQQQQQQQQQQQQQQQQQQQQQQQQQQQQQQQQQQQQQQQQQQRq1aFFm3+DBBBBBBBBBBBBBBBBBBBBBBBBBBBBBBBBBBBBBBBBBBBBBBBBBBBBBBBBBBBBBBBBBBBBBBBBBBBBBBBBBBBBBBBBBBBBBBBBBBBBBBBBBBBBBBBBBBBBBBBBBBBBBBBBBBBBBBBBBBBBBBBBBBBH+BVoUWbf4C8LRrVaFFm3jSrQos28aVaFFm3jSrQos28aVaFFm3jSrQX8s2IZDIZDIZDIZDIZDIZDIZDIZDIZDIZDIZDIZDIZDIZDIZDIZDIZDIZDIZDIZDIZDIZDIZDIZDIZDIZDIZDIZDIZDIZDIZDIZDIZDIZDIZDIZDIZDIZDIZDIZDIZDIZDIZDIZDIZDIZDIZDIZDIZDIZDIZDIZDIZDIZDIZDIZDIZDIZDIZDIZDIZDIZDIZDIZDIZDIZDIZDIZDIZDIZDIZDIZDIZDIZDIZDIZDIZDIZDIZDIZDIZDIZDIZDIZDIZDIZDIZDIZDIZDIYjnL/AP/aAAwDAQACAAMAAAAQ84AAAAAAAAAAAAAAAAAAAAAAAAAAAAAAAAAAAAAAAAAAAAAAAAAAAAAAAAAAAAAAAAAAAAAAAAAAAAAAAAAAAAAAAAAR888oAAAAAAAAAAAAAAAAAAAAAAAAAAAAAAAAAAAAAAAAAAAAAAAAAAAAAAAAAAAAAAAAAAAAAAAAAAAAAAAAAAAAAAAAAB888oAAAAAAAAAAAAAAAAAAAAAAAAAAAAAAAAAAAAAAAAAAAAAAAAAAAAAAAAAAAAAAAAAAAAAAAAAAAAAAAAAAAAAAAAAB888oAAAAAAAAAAAAAAAAAAAAAAAAAAAAAAAAAAAAAAAAAAAAAAAAAAAAAAAAAAAAAAAAAAAAAAAAAAAAAAAAAAAAAAAAAB888oAAAAAAAAAAAAAAAAAAAAAAAAAAAAAAAAAAAAAAAAAAAAAAAAAAAAAAAAAAAAAAAAAAAAAAAAAAAAAAAAAAAAAAAAAB888oAAAAMMMMMMMMMMMMMMMMMMMMMMMMMMMMMMMMMMMMMMMMMMMMMMMMMMMMMMMMMMMMMMMMMMMMMMMMMMMMMMMMMMMIAB888oAAAEAASTzzzzzzzzzzzzzzzzzzzzzzzzzzzzzzzzzzzzzzzzzzzzzzzzzzzzzzzzzzzzzzzzzzzzzzzzzzjpAAAoAB888oAAAIUMhAAACABAAAAJAJAFHAEMPNNNNNNNNNNNNNNNNNNNNNNNNNNNNNNNNNNNNNNNNNNNNNNdIAAHJEPJADA8goAB888oAAEU8WAX+QpHSJAAEhAmAMwLFjA88888888888888888888888888888888888888888888888oAFoLAw2ADtEAoAB888oAAAU0gAQDgjQwAAABBAxATaASywxxxxxxxxxxxxxxxxxxxxxxxxxxxxxxxxxxxxxxxxxxxxxx1jAChAAwzADKMAoAB888oAAAY+YIAAAAAAAAAAAAAAAAAAAAAAAAAAAAAAAAAAAAAAAAAAAAAAAAAAAAAAAAAAAAAAAAAAAAAAAAAAAARcuIoAB888oAAAsGKU8888888888888888888888888888888888888888888888888888888888888888888888888888uoKooAB888oAAAgmnU8888888888888888888888888888888888888888888888888888888888888888888888888888uE+goAB888oAAAAWXU8888888888888888888888888888888888888888888888888888888888888888888888888888+W/AoAB888oAAAAWXU8888888888888888888888888888888888888888888888888888888888888888888888888888+W/AoAB888oAAAAWXU8888888888888888888888888888888888888888888888888888888888888888888888888888+X/AoAB888oAAAAWXU8888888888888888888888888888888888888888888888888888888888888888888888888888+W/AoAB888oAAAAWXU8888888888888888888888888888888888888888888888888888888888888888888888888888+W/AoAB888oAAAAXXU8888888888888888888888888888888888888888888888888888888888888888888888888888+D/AAKAAfPPKAAAAFl1PPPPPPPPPPPPPPPPPPPPPPPPPPPPPPPPPPPPPPPPPPPPPPPPPPPPPPPPPPPPPPPPPPPPPPPPPPPPPlvwKAAfPPKAAAAFl1PPPPPPPPPPPPPPPPPPPPPPPPPPPPPPPPPPPPPPPPPPPPPPPPPPPPPPPPPPPPPPPPPPPPPPPPPPPPPlvwKAAfPPKAAAAFl1PPPPPPPPPPPPPPPPPPPPPPPPPPPPPPPPPPPPPPPPPPPPPPPPPPPPPPPPPPPPPPPPPPPPPPPPPPPPPl/wKAAfPPKAAAAVl1PPPPPPPPPPPPPPPPPPPPPPPPPPPPPPPPPPPPPPPPPPPPPPPPPPPPPPPPPPPPPPPPPPPPPPPPPPPPPlvwKAAfPPKAAAAFl1PPPPPPPPPPPPPPPPPPPPPPPPPPPPPPPPPPPPPPPPPPPPPPPPPPPPPPPPPPPPPPPPPPPPPPPPPPPPPlvwKAAfPPKAAAAFl1PPPPPPPPPPPPPPPPPPPPPPPPPPPPPPPPPPPPPPPPPPPPPPPPPPPPPPPPPPPPPPPPPPPPPPPPPPPPPlvwKAAfPPKAAAAFl1PPPPPPPPPPPPPPPPPPPPPPPPPPPPPPPPPPPPPPPPPPPPPPPPPPPPPPPPPPPPPPPPPPPPPPPPPPPPPlvwKAAfPPKAAAAFl1PPPPPPPPPPPPPPPPPPPPPPPPPPPPPPPPPPPPPPPPPPPPPPPPPPPPPPPPPPPPPPPPPPPPPPPPPPPPPlvwKAAfPPKAAAAFl1PPPPPPPPPPPPPPPPPPPPPPPPPPPPPPPPPPPPPPPPPPPPPPPPPPPPPPPPPPPPPPPPPPPPPPPPPPPPPh/wKAAfPPKAAAAFl1PPPPPPPPPPPPPPPPPPPPPPPPPPPPPPPPPPPPPPPPPPPPPPPPPPPPPPPPPPPPPPPPPPPPPPPPPPPPPlvwKAAfPPKAAAAFl1PPPPPPPPPPPPPPPPPPPPPPPPPPPPPPPPPPPPPPPPPPPPPPPPPPPPPPPPPPPPPPPPPPPPPPPPPPPPPlvwKAAfPPKAAAAFl1PPPPPPPPPPPPPPPPPPPPPPPPPPPPPPPPPPPPPPPPPPPPPPPPPPPPPPPPPPPPPPPPPPPPPPPPPPPPPlvwKAAfPPKAAAAFl1PPPPPPPPPPPPPPPPPPPPPPPPPPPPPPPPPPPPPPPPPPPPPPPPPPPPPPPPPPPPPPPPPPPPPPPPPPPPPlvwKAAfPPKAAAAFl1PPPPPPPPPPPPPPPPPPPPPPPPPPPPPPPPPPPPPPPPPPPPPPPPPPPPPPPPPPPPPPPPPPPPPPPPPPPPPl/wACgAHzzygAAABZdTzzzzzzzzzzzzzzzzzzzzzzzzzzzzzzzzzzzzzzzzzzzzzzzzzzzzzzzzzzzzzzzzzzzzzzzzzzzz5b8CgAHzzygAAABZdTzzzzzzzzzzzzzzzzzzzzzzzzzzzzzzzzzzzzzzzzzzzzzzzzzzzzzzzzzzzzzzzzzzzzzzzzzzzz5b8CgAHzzygAAABZdTzzzzzzzzzzzzzzzzzzzzzzzzzzzzzzzzzzzzzzzzzzzzzzzzzzzzzzzzzzzzzzzzzzzzzzzzzzzz5b8CgAHzzygAAABZdTzzzzzzzzzzzzzzzzzzzzzzzzzzzzzzzzzzzzzzzzzzzzzzzzzzzzzzzzzzzzzzzzzzzzzzzzzzzz5b8CgAHzzygAAABZdTzzzzzzzzzzzzzzzzzzzzzzzzzzzzzzzzzzzzzzzzzzzzzzzzzzzzzzzzzzzzzzzzzzzzzzzzzzzz5b8CgAHzzygAAABZdTzzzzzzzzzzzzzzzzzzzzzzzzzzzzzzzzzzzzzzzzzzzzzzzzzzzzzzzzzzzzzzzzzzzzzzzzzzzz5b8CgAHzzygAAABZdTzzzzzzzzzzzzzzzzzzzzzzzzzzzzzzzzzzzzzzzzzzzzzzzzzzzzzzzzzzzzzzzzzzzzzzzzzzzz5b8CgAHzzygAAABZdTzzzzzzzzzzzzzzzzzzzzzzzzzzzzzzzzzzzzzzzzzzzzzzzzzzzzzzzzzzzzzzzzzzzzzzzzzzzz5b8CgAHzzygAAABZdTzzzzzzzzzzzzzzzzzzzzzzzzzzzzzzzzzzzzzzzzzzzzzzzzzzzzzzzzzzzzzzzzzzzzzzzzzzzz5b8CgAHzzygAAAFZdTzzzzzzzzzzzzzzzzzzzzzzzzzzzzzzzzzzzzzzzzzzzzzzzzzzzzzzzzzzzzzzzzzzzzzzzzzzzz5b8CgAHzzygAAABZdTzzzzzzzzzzzzzzzzzzzzzzzzzzzzzzzzzzzzzzzzzzzzzzzzzzzzzzzzzzzzzzzzzzzzzzzzzzzz5b8CgAHzzygAAABZdTzzzzzzzzzzzzzzzzzzzzzzzzzzzzzzzzzzzzzzzzzzzzzzzzzzzzzzzzzzzzzzzzzzzzzzzzzzzz5b8CgAHzzygAAABZdTzzzzzzzzzzzzzzzzzzzzzzzzzzzzzzzzzzzzzzzzzzzzzzzzzzzzzzzzzzzzzzzzzzzzzzzzzzzz5b8CgAHzzygAAABZdTzzzzzzzzzzzzzzzzzzzzzzzzzzzzzzzzzzzzzzzzzzzzzzzzzzzzzzzzzzzzzzzzzzzzzzzzzzzz5P8AAoAB888oAAAAWXU8888888888888888888888888888888888888888888888888888888888888888888888888888+H/AoAB888oAAAAWXU8888888888888888888888888888888888888888888888888888888888888888888888888888+W/AoAB888oAAAAWXU8888888888888888888888888888888888888888888888888888888888888888888888888888+X/AoAB888oAAAAWXU8888888888888888888888888888888888888888888888888888888888888888888888888888+U/AoAB888oAAAAWXU8888888888888888888888888888888888888888888888888888888888888888888888888888+W/AoAB888oAAAAWXU8888888888888888888888888888888888888888888888888888888888888888888888888888+W/AoAB888oAAAIafU8888888888888888888888888888888888888888888888888888888888888888888888888888uEyIoAB888oAAAsiSU8888888888888888888888888888888888888888888888888888888888888888888888888888usagoAB888oAAAQ+EQ88888888888888888888888888888888888888888888888888888888888888888888888888884k0IoAB888oAAAYcw/Ft37zzzzzzzzzzzzzzzz37zzzzzzzzzzzzzzzz/AM8888888888888889+888888888888888854c/NgIKAAfPPKAAALLBLvBOccccccccccccccccccccccccccccccccccccccccccccccccccccccccccccccccccccccYHEArOJAAAfPPKAAAJpGBIJHvvvvvvvvvvvvvvvvvvvvvvvvvvvvvvvvvvvvvvvvvvvvvvvvvvvvvvvvvvvvvvvvvvvvvvqtFIFMCAAAfPPKAAAAAMAAAAAAAAAAAAAAAAAAAAAAAAAAAAAAAAAAAAAAAAAAAAAAAAAAAAAAAAAAAAAAAAAAAAAAAAAAAEIMABAAAAfPPKAAAAAAAAAAAAAAAAAAAAAAAAAAAAAAAAAAAAAAAAAAAAAAAAAAAAAAAAAAAAAAAAAAAAAAAAAAAAAAAAAAAAAAAAAAfPPKAAAAAAAAAAAAAAAAAAAAAAAAAAAAAAAAAAAAAAAAAAAAAAAAAAAAAAAAAAAAAAAAAAAAAAAAAAAAAAAAAAAAAAAAAAfPPPAAAAAAAAAAAAAAAAAAAAAAAAAAAAAAAAAAAAAAAAAAAAAAAAAAAAAAAAAAAAAAAAAAAAAAAAAAAAAAAAAAAAAAAAAHfPP/8QAJxEAAwABAwIGAgMAAAAAAAAAAAERECExQVCBIEBRYGHwcZChwNH/2gAIAQMBAT8Q/R5VVJEREREREREREREREREREREREREREREREREREREREREREREREREREREREREREREREREREREREREREREREREREREREREREREREREREREGp0Cbgmnn5EdQ/wD/AP8A/wD/AP7Uy2lmoqw/JW/caT/FG3RfDgQZHwdr/hxunoM3tcs7bCRrPlybwDSuX6Z2emOTYI3EVUZbOobcU3EosdhYe3k5v13167/zjn0+98JGhv3jbxpTDVJlI98IIIIIIIIIIIIIIIIIIIIIIIIIIIIIIIIIIIIIIIIIIIIIIIGuGr4ITD29vT2/oHNVVVVVVVVVVVVVVVVVVVVVVVVVVVVVNV7N4PIycL6LVVVVVVVVVVVVfRqqqqqqqqqqqqq/0fVVf//EACURAAICAwACAgICAwAAAAAAAAARATEwYGEQISBBUYGh8EBQcf/aAAgBAgEBPxAr16vXq9er16vXq9er+coMMMMMMMMMMMMMMMMMMMMMMMMMMMMMMMMMMMMMMMMMMMMMMMMMMMMMMMMMMMMMMMMMMMMMMMMMMMMRLxV/40RM0TKPM+6gmcXAwwwwwwwwwwwwwwwwwwwwwwwwwwwwwwwwwwwwwwwwwwwwwwxEJ8xKa8t+BT4tirwSmJzFn3Hsga9JT+0RD7XX2SISj7P2iL33+ScwzZeaOL83HvyuTCkqO32Ip/2C3iIZ/ImXL8evyT/3xbFXh6jxEPrf1+K/jwv1n/f18Ile/My/ESiZj6jxPsmcUQjHHHHHHHHHHHHHHHHHHHHHHHHHHHHHHHHHHHHHHHHHHHHHHHEeRPv4Jl+LYq/jGo04K/jBGnUkk4K9UpJJwV6pSSTgr1SkknBXqlJJOCvVKSScFeqUkk4K9UpJJwV6pSSTgr1SkknBXqlJJOCvVKSScFeqUkk4K9UpJJwV6pSSTgr1SkknBXqlJJOCvVKSScFeqUkk4K9UpJJwV6pSSTgr1SkknBXqlJJOCvVKSScFeqUkk4K9UpJJwV6pSSTgr1SkknBXqlJJOCvVKSScFeqUkk4K9UpJJwV6pSSTgr1SkknBXqlJJOCvVKSScFeqUkk4K9UpJJwV6pSSTgr1SkknBXqlJJOCvVKSScFeqUkk4K/jBGnUkk4K/jHiWWm+9sVfzmIn1JxOJxOJxOJxOJxOJxOJxOJxOJxOJxOJxOJxOJxOJxOJxOJxOJxOJxOJxOJxOJxOJxOJxOJxOJxOJxOJxOJxOJxOJxOJxOJxOJxOJxOJxOJxOJxOJxF/WOvExjGMYxjGMYxjGMYxjGMYxjGMYxjGMYxjGMYxjGMYxjGMYxjGMYxjGMYxjGMfl4q8LGMYxjGMYxjGMYxjGMYxjGMYxjGMYxjGMYxjGMYxjGMYxjGMYxjGMYxjGMYxjHkr16vXq9er13//xAAsEAACAAUCBwEBAQEAAwEBAAAAARExYXHxIPAQIUBBcKGxUTCRgVBg0cHh/9oACAEBAAE/EOLlCY1isVisVisVisVisVisVisVisVisVisVisVisVisVisVisVisVisVisVisVisVisVisVisVisVisVisVisVisVisVisVisVisVisVisVisVisVisVisVisVisVisVisVisVisVisVisVisVisVisVisVisVisVisVisVisVisVisVisVisVisVisVisVisVisVisVisVisVisVisVisVisVisVisVisVisVisVisVisVisVisVisVisVisVisVisVisVisVisVisViC8/HiZPjxMnx4mT48TJ8eJk+PEyfHiZPjxMnx4mT48TJ6JMSJEiRIkSJEiRIkSJEiRIkSJEiRIkSJEiRIkSJEiRIkSJEiRIkSJEiRIkSJEiRIkSJEiRIkSJEiRIkSJEiRIkSJEiRIkSJEiRIkSJEiRIkSJEiRIkSJEiRIkSJEiRIkSJEiRIkSJEiRIkSJEiRIkSJEiRIkSJEiRIkSJEiRIkSJEiRIkSJEiRIkSJEiRIkSJHVJ6ZKW9WH/AB+kqlwvptzNuZtzNuZtzNuZtzNuZtzNuZtzNuZtzNuZtzNuZtzNuZtzNuZtzNuZtzNuZtzNuZtzNuZtzNuZtzNuZtzNuZtzNuZtzNuZtzNuZtzNuZtzNuZtzNuZtzNuZtzNuZtzNuZtzNuZtzNuZtzNuZtzNuZtzNuZtzNuZtzNuZtzNuZtzNuZtzNuZtzNuZtzNuZtzNuZtzNuZtzNuZtzNuZtzNuZtzNuZtzNuZtzNuZtzNuZtzNuZtzNuZtzNuZtzNuZtzNuZtzNuZtzNuZtzNuZtzNuZtzNuZtzNuZtzNuZtzNuZtzNuZtzNuZtzNuZtzNuZtzNuZtzNuZtzNuZtzNuZtzNuZtzNuZtzNuZtzNuZtzNuZtzNuZtzNuY7QNc98iaUBEGiOtaZPQJehsaop0F6VkJJEkSSUElJeGXZKQqJ/joMFNkfjRHUtMnoktjY2+wliEONW+b9/8Ah1MX1T/2BSlKUpSlKUpSlKUpSlKUpSlKUpSlKUpSlKUpSlKUpSlKUpSlKUpSlKUpSlKUpSlKUpSlKUpSlKUpSlKU97S6RSpD2OT5AQhcVIWmT/dLGRGxifJdCkraG0lFkl+twE01FNNfq4vkubgdori2kotpL9bFzUU4r9X8G0k22klzbfYV5YGRT0QkeFotvx6WMlJRP+DW/wC3noakVUj5XFoRoRFvkkKiFWkrCgwpNKjYXtwmaW2v+f8Ar7Sag0ONDJzaSdtUYeKaCi4Kg1qLaqrDbW5Lag/zipshFtySMbMTMTEQxoc1DQ0Fv7CZETIiELTJ6BLYxsbI8lxSVuKBIxVTsv8ARwaW+UX/AASFoST5j5P40Ry4dE+1BHMySMP0jNOnZCWwv3sYuWEihY8VEh+vshzcZy9BIRGku6+R+NEjgJTU2km20kpt9h4EoI5N/gIvqwR20QaJLbT/AOnNwmuTpv8Aj4pfKMVpfr7eyA8hd8UZJfnDk9YuQTX3qMk85EU6cUPdS8rsnvl7JRIqpvm8fBJIZcQpgVc2mpSFJeQuvxw5/wDsCFygnyf90owrRY4JIg+qNN/Juu7Dx3puLSYhNPk0+5iv/wAMV/8Ahiv/AMF7Sl82kKP+aJdvYTGEyIhC0yf7JYx8GGyRdCkrcUktJKl3ii1/gnHmMWlzBPxttw9nPIa5wtxbNy5hGzaJQrvBxfFE0Fja/I84e9SWSCQ/D/8AgltnOkP1KumHgTkkpt+IR9XhyCX6/T4qLinK/YOI/wCik/XNcGzqAedVL9Q3NYsvkuSh+8VfuaTJrIsNQI12ztMbn4rn+jKbVgb/ACbbsJ5GSHJP/f8A2BDdLsiehT5JSQUIuIoRwn8m67sIkISSUEkuSFhYSSQS4ratCNRaDVmZYZ4Z4RrXi40FtDQQk6iYwhCFpk/3SxjGGI8l0KStocA6KCbu3Yfy6MFJn7Dv/wB4tDzOaSihTc0SjJcXV8ItJGK3YX+cKBBH+w/hzGc4qb/orJ1BLk9CekHLXJ/XXRch2MxMDRCRH9oF/oiakR41G/3Q5Yopcmv1Cy9NlFMo3NJ7E9SgiSaqhkqIbRm//wAX/r7O2y/WTQmi9DUqFkVIFBR7/wDBt5yFH/EFpmhIXFJHtHQwwwnO5Ty5VjoeCIwwwpicFpk/3S+CQYYb5LoUlv8Awz7m5ptIheUdHE2iNojaI2iNojaI2iNojaI2iNojaI2iNojaI2iNojaI2iNojaI2iNojaI2iNojaI2iNojaI2iNojaI2iNojaI2iNojaI2iNojaI2iNojaI2iNojaI2iNojaI2iNojaI2iNojaI2iNojaI2iNojaI2iNojaI2iNojaI2iNojaI2iNojaI2iNojaI2iNojaI2iNojaI2iNojaI2iNojaI2iNojaI2iNohEOZH9Y5zD7LsujaH/QMMMLiWmT/dLlxXGG+S6FJbw23sDDDi41pk/wB0vgYccb5LoUB+X4YIwRgjBGCMEYIwRgjBGCMEYIwRgjBGCMEYIwRgjBGCMEYIwRgjBGCMEYIwRgjBGCMEYIwRgjBGCMEYIwRgjBGCMEYIwRgjBGCMEYIwRgjBGCMEYIwRgjBGCMEYIwRgjBGCMEYIwRgjBGCMEYIwRgjBGCMEYIwRgjBGCMEYIwRgjBGCMEYIwRgjBGCMEYIwRgjBGCMEYIwRgjBGCMEYIwRgjBGCMEYIwRgjBGCMEYIwRgjBGCMEYIwRgjBGCMEYIwRgjBGCMEYIwRgjBGCMEYIwRgjBESRprnMg4+mLTJ/ul6Tb/wAhIt4bkvNx+GbgUhaZP90vS7f+y+ki3huW8X483ApC0yf7pehsN/5PpIt4b++pwpC0yegSlJOCQfofSRbw39dH+0mFIWmT0CUpJxH6H0kW8N/XT9MKQtMnoEpSQ7yQfofSRbw39dXxSFpk9AlKScR+h9JFvDf10/TCkLTJ6BKUk4z9D6SLeG/rp+mFIWmT0CUpId/A/Q+ki3hv66fphSFpk9AlKScMg/Q+ki3hv66fphSFpk9AlKSHeSD9D6SLeG/rp+mFIWmT0CUpId5IP0PpIt4b+un6YUhaZPQJSknBIP0PpIt4b+un6YUhaZPQJSkh3kg/Q+ki3hv66fphSFpk9AlKSHeSD9T6SLeG/rp+mFIWmT0CUpId5IP0PpIt4b+un6YUhaZPQJSkh3kg/Q+ki3hv66fphSFpk9AlKSHeSD9T6SLeG/rq+KQtMnoEpSQ7yQfofSRbw39dP0wpC0yegSlJDvJB+h9JFvDf10/TCkLTJ6BKUkO8kH6H0kW8N/XT9MKQtMnoEpSQ7yQfofSRbw39dP0wpC0yegSlJDvJB+p9JFvDf10f7SYUhaZPQpJOM/U+ki3hv66P9hMKQtMnoEpSTiP0PpIt4b+uj/YTCkLTJ6BKUk4JB+h9JFvDf10/TCkLTJ6BKUk4j9D6SLeG/rp+mFIWmT0CUpJxH6H0kW8N/XT9MKQtMnoEpSThkH6H0kW8N/XT9MKQtMnoEpSQ7yQfofSRbw39dP0wpC0yegSlJOGQfofSRbw39dP0wpC0yegSlJOGQfofSRbw39dXxSFpk9AlKScMg/Q+ki3hv66fphSFpk9AlKSHeSD9D6SLeG/rq+KQtMnoEpSQ7yQfofSRbw39dXxSFpk9AlKSHeSD9D6SLeG/rp+mFIWmT0CUpId5IP0PpIt4b+un6YUhaZPQJSkh3kg/Q+ki3hv66fphSFpk9AlKSHeSD9D6SLeG/rp+mFIWmT0CUpId5IP0PpIt4b+un6YUhaZPQJSkh3kg/Q+ki3hv66fphSFpk9AlKSHeSD9D6SLeG/rp+mFIWmT0CUpId5IP0PpIt4b+un6YUhaZPQJSkh3kg/Q+ki3hv66P9pMKQtMnoEpSTiP0PpIt4b+uj/YTCkLTJ6BKUkO4kH6H0kW8N/XT9MKQtMnoEpSQ7+B+h9JFvDf11fFIWmT0CUpJxH6H0kW8N/XV8UhaZPQJSknDIP0PpIt4b+un6YUhaZPQJSkh3kg/Q+ki3hv66fphSFpk9AlKScMg/Q+ki3hv66fphSFpk9AlKScMg/Q+ki3hv66vikLTJ6BKUk4ZB+h9JFvDf10/TCkLTJ6BKUkO8kH6H0kW8N/XT9MKQtMnoEpSThkH6H0kW8N/XT9MKQtMnoEpSQ7yQfqfSRbw39dP0wpC0yegSlJDvJB+p9JFvDf11fFIWmT0CUpId5IP0PpIt4b+un6YUhaZPQJSkh3kg/Q+ki3hv66fphSFpk9AlKSHeSD9D6SLeG/rp+mFIWmT0CUpId5IP0PpIt4b+un6YUhaZPQJSkh3kg/Q+ki3hv66fphSFpk9AlKSHeSD9D6SLeG/ro/2EwpC0yehSSHeSD9T6SLeG/ro/wBpMKQtMnoEpSQ7iQfofSRbw39dH+3gUhaZPQJSknEfofSRbw39dP0wpC0yegSlJOI/Q+ki3hv66fphSFpk9AlKSHeSD9D6SLeG/rp+mFIWmT0CUpJxH6H0kW8N/XV8UhaZPQJSkh38D9D6SLeG/rp+mFIWmT0CUpId/A/Q+ki3hv66fphSFpk9AlKScMg/Q+ki3hv66fphSFpk9AlKSHeSD9D6SLeG/rp+mFIWmT0CUpJwyD9D6SLeG/rp+mFIWmT0CUpJwyD9D6SLeG/rp+mFIWmT0CUpId5IP0PpIt4b+un6YUhaZPQJSknDIP0PpIt4b+un6YUhaZPQJSkh3kg/Q+ki3hv66fphSFpk9AlKSHfwP0PpIt4b+un6YUhaZPQJSkh3kg/Q+ki3hv66fphSFpk9AlISHeSD9D6SLeG/rp+mFIWmT0CUpId5IP0PpIt4b+un6YUhaZPQJSkh3kg/Q+ki3hv66fphSFpk9AlKSHeSD9D6SLeG/ro/2EwpC0yehSS8Z+h9JFvDf3FdMKQtMn+6Xwy8Zr/J9JFvDf1FOPPwIWmT/dLJOOpD/J9JFvDct5pq5aZP90vgXlwqNf5PpIt4b++j8guC0yf7pY+FRRG04cmP1jDsTkn+p+G4iBf8/Nh/iX+ii8xdAtMn+6XIc+FBBCBDhj/63d/z/RTYIpHFNeGXR6J8/m36/wAqGCGb3dsUQQXEtMn+6XwSCCCCC5QM5f8Aj3X/AATVd6tyX+Nhsu8I/wBhF+wb/oIgRAiBECIEQIgXAuBcC4FwLgXAuBcC4FwLgXAuBcC4FwLgXAuBcC4FwLgXAuBcC4ERIgRAiBECIEQLgXAuBcC4FwLgXAuBcC4FwLgXAuBcC4FwLgXAuBcC4FwLgXAuBcCP9hECIEQIgRAiBEC4FwLgXAuBcC4FwLgXAuBcC4FwLgXAuBcC4FwLgXAuBcC4FwLgXAiBECIEQIgRAiBcC4FwLgXAuBcC4FwLgXAuBcC4FwLgXAuBcC4FwLgXAuBcC4FwLgXATfoIv2Cb9gnfcTmmutNowXoZKGMWbEEE4FPiWmT/AHSxjEEGhB8Aww9D3l5eXl5eXl5eXl5eXl5eXl5eXl5eXl5eXl5eXl5eXl5fo95eXl5eXl5eXl5eXl5eXl5eXl5eXl5eXl5eXl5eXl5eX8e8vLy8vLy8vLy8vLy8vLy8vLy8vLy8vLy8vLy8vLy8vL+PeXl5eXl5eXl5eXl5eXl5eXl5eXl5eXl5eXl5eXl5eXl5eIorTAEEEELgtMn+6WPg0INDDDDDD8If/wD/AP8A/wD/AP8A/wD/AP8A/wD/AP8A/wD/AP8A/wD/AOiqeBBBISEhBCQhapP90vixoaH+B0DD4mwsLCwsLCwsLCwsLCzT1hYWFhYWFhYWFhYWFhYWFhYWFnBYWFhYWFhYWFhYWFuj2FhYWFhYWFhYWFhYWFhYWFhYWcFhYWFhYWFhYWFhYWaPYWFhYWFhYWFhYWFhYWFhYWFhYWFhYWFhYWFhYWFhYWaesLCwsLCwsLCwsLCwsLCwsLCwsLBBcBcgggkJCQkLgtUn+6XwgNDRBDDEOCDiWlpYWlhYWFhYWFhYWFhYWFhYWFhYWFhYWFhYWFhYWFun7S0sLCwsLCwsLCwsLCwsLCwsLCwsLCwsLCwsLCwsLNP2lpYWFhYWFhYWFhYWFhYWFhYWFhYWFhYWFhYWFhYWaftLSwtLCwsLCwsLCwsLCwsLCwsLCwsLCwsLCwsLCwsLP4eEEEEhCQkIWuT/AHS0QEMZAgNEBLwkAAAAAAAAAAAAAAAAAAAAAAAAQg4IcxIgQEhLitcnoksgQoNECAnIgQoQoQoQoQoQoQoQoQoQoQoQoQoQoQoQoQoQoQoQoQoQoQoQoQoQoQoQoQoQoQoQoQoQoQoQoQoQoQoQoQoQoQoQoQoQoQoQoQoQoQoQoQoQoQoQoQoQoQoQoQoQoQoQoQoQoQoQoQoQoQoQoQoQoQoQoQoQoQoQoQoQoQoQoQoQoQoQoQoQoQoQoQoQoQoQoQoQoQoQoQoQoQoQoQoQoQoQoQoQoQoQoQoQoQoQoQoQoQoQoQoQoQoQoQoQoQoQoQoQoQoQoQoQoQoQoQoQoQoQoQoQoQoQoQIEBrmIQoQIcV/CT0yYEPDq/hJ8eJk+PEyfHiZPjxMn+DnCQ0ikUikUikUikUikUikUikUikUikUikUikUikUikUikUikUikUikUikUikUikUikUikUikUikUikUikUikUikUikUikUikUikUikUikUikUikUikUikUikUikUikUikUikUikUikUikUikUikUikUikUikUikUikUikUikUikUikUikUikUikUikUikUikUikUikUikUikUikUikUikUikUikUikUikUikUikUikUikUikUikUikUikUikUikUikUikUikUikUikUiC8tP8A/9k=;clipPath=inset(9% 8.33% 10% 8%);" vertex="1" parent="1">
          <mxGeometry x="-50" y="740" width="960.62" height="620" as="geometry" />
        </mxCell>
        <mxCell id="7DrSCTP9Omp0nFNi4ejy-3" value="&lt;font color=&quot;#ffffff&quot; style=&quot;font-size: 26px;&quot;&gt;&lt;br style=&quot;&quot;&gt;&lt;/font&gt;&lt;font style=&quot;font-size: 21px;&quot;&gt;&lt;br&gt;&lt;/font&gt;" style="text;html=1;align=center;verticalAlign=middle;whiteSpace=wrap;rounded=0;fillColor=#1A1A1A;" vertex="1" parent="1">
          <mxGeometry x="-1046" y="140" width="970" height="70" as="geometry" />
        </mxCell>
        <mxCell id="7DrSCTP9Omp0nFNi4ejy-4" value="&lt;b&gt;Home&lt;/b&gt;" style="rounded=1;whiteSpace=wrap;html=1;fillColor=#C20430;strokeColor=#82b366;fontColor=#FFFFFF;gradientColor=none;opacity=60;" vertex="1" parent="1">
          <mxGeometry x="-908.9699999999999" y="160" width="155.94" height="30" as="geometry" />
        </mxCell>
        <mxCell id="7DrSCTP9Omp0nFNi4ejy-5" value="&lt;b&gt;API Doc&lt;br&gt;&lt;/b&gt;" style="rounded=1;whiteSpace=wrap;html=1;fillColor=#C20430;strokeColor=#82b366;fontColor=#FFFFFF;" vertex="1" parent="1">
          <mxGeometry x="-548.9699999999999" y="160" width="155.94" height="30" as="geometry" />
        </mxCell>
        <mxCell id="7DrSCTP9Omp0nFNi4ejy-6" value="&lt;b&gt;REST API&lt;br&gt;&lt;/b&gt;" style="rounded=1;whiteSpace=wrap;html=1;fillColor=#C20430;strokeColor=#82b366;fontColor=#FFFFFF;" vertex="1" parent="1">
          <mxGeometry x="-728.9699999999999" y="160" width="155.94" height="30" as="geometry" />
        </mxCell>
        <mxCell id="7DrSCTP9Omp0nFNi4ejy-7" value="&lt;font color=&quot;#ffffff&quot; style=&quot;font-size: 26px;&quot;&gt;&lt;br style=&quot;&quot;&gt;&lt;/font&gt;&lt;font style=&quot;font-size: 21px;&quot;&gt;&lt;br&gt;&lt;/font&gt;" style="text;html=1;align=center;verticalAlign=middle;whiteSpace=wrap;rounded=0;fillColor=#1A1A1A;" vertex="1" parent="1">
          <mxGeometry x="-1044.69" y="890" width="956" height="70" as="geometry" />
        </mxCell>
        <mxCell id="7DrSCTP9Omp0nFNi4ejy-8" value="&lt;b&gt;Home&lt;/b&gt;" style="rounded=1;whiteSpace=wrap;html=1;fillColor=#C20430;strokeColor=#82b366;fontColor=#FFFFFF;gradientColor=none;" vertex="1" parent="1">
          <mxGeometry x="-906.34" y="910" width="146.56" height="30" as="geometry" />
        </mxCell>
        <mxCell id="7DrSCTP9Omp0nFNi4ejy-9" value="&lt;b&gt;API Doc&lt;br&gt;&lt;/b&gt;" style="rounded=1;whiteSpace=wrap;html=1;fillColor=#C20430;strokeColor=#82b366;fontColor=#FFFFFF;opacity=60;" vertex="1" parent="1">
          <mxGeometry x="-555.7199999999999" y="910" width="155.94" height="30" as="geometry" />
        </mxCell>
        <mxCell id="7DrSCTP9Omp0nFNi4ejy-10" value="&lt;b&gt;REST API&lt;br&gt;&lt;/b&gt;" style="rounded=1;whiteSpace=wrap;html=1;fillColor=#C20430;strokeColor=#82b366;fontColor=#FFFFFF;" vertex="1" parent="1">
          <mxGeometry x="-735.7199999999999" y="910" width="155.94" height="30" as="geometry" />
        </mxCell>
        <mxCell id="7DrSCTP9Omp0nFNi4ejy-11" value="&lt;b&gt;Online Planner&lt;br&gt;&lt;/b&gt;" style="rounded=1;whiteSpace=wrap;html=1;fillColor=#C20430;strokeColor=#82b366;fontColor=#FFFFFF;" vertex="1" parent="1">
          <mxGeometry x="-368.9699999999999" y="160" width="155.94" height="30" as="geometry" />
        </mxCell>
        <mxCell id="7DrSCTP9Omp0nFNi4ejy-12" value="&lt;b&gt;Online Planner&lt;br&gt;&lt;/b&gt;" style="rounded=1;whiteSpace=wrap;html=1;fillColor=#C20430;strokeColor=#82b366;fontColor=#FFFFFF;" vertex="1" parent="1">
          <mxGeometry x="-380.9699999999999" y="910" width="155.94" height="30" as="geometry" />
        </mxCell>
        <mxCell id="7DrSCTP9Omp0nFNi4ejy-13" value="&lt;font style=&quot;font-size: 26px;&quot; color=&quot;#ffffff&quot;&gt;image&lt;/font&gt;" style="text;html=1;align=center;verticalAlign=middle;whiteSpace=wrap;rounded=0;fillColor=#1A1A1A;" vertex="1" parent="1">
          <mxGeometry x="-44.88000000000011" y="810" width="954.19" height="90" as="geometry" />
        </mxCell>
        <mxCell id="7DrSCTP9Omp0nFNi4ejy-14" value="&lt;font color=&quot;#ffffff&quot; style=&quot;font-size: 26px;&quot;&gt;&lt;br style=&quot;&quot;&gt;&lt;/font&gt;&lt;font style=&quot;font-size: 21px;&quot;&gt;&lt;br&gt;&lt;/font&gt;" style="text;html=1;align=center;verticalAlign=middle;whiteSpace=wrap;rounded=0;fillColor=#1A1A1A;" vertex="1" parent="1">
          <mxGeometry x="-45.38000000000011" y="900" width="956" height="70" as="geometry" />
        </mxCell>
        <mxCell id="7DrSCTP9Omp0nFNi4ejy-15" value="&lt;b&gt;Home&lt;/b&gt;" style="rounded=1;whiteSpace=wrap;html=1;fillColor=#C20430;strokeColor=#82b366;fontColor=#FFFFFF;gradientColor=none;" vertex="1" parent="1">
          <mxGeometry x="89.65999999999994" y="920" width="146.56" height="30" as="geometry" />
        </mxCell>
        <mxCell id="7DrSCTP9Omp0nFNi4ejy-16" value="&lt;b&gt;API Doc&lt;br&gt;&lt;/b&gt;" style="rounded=1;whiteSpace=wrap;html=1;fillColor=#C20430;strokeColor=#82b366;fontColor=#FFFFFF;" vertex="1" parent="1">
          <mxGeometry x="440.2800000000001" y="920" width="155.94" height="30" as="geometry" />
        </mxCell>
        <mxCell id="7DrSCTP9Omp0nFNi4ejy-17" value="&lt;b&gt;REST API&lt;br&gt;&lt;/b&gt;" style="rounded=1;whiteSpace=wrap;html=1;fillColor=#C20430;strokeColor=#82b366;fontColor=#FFFFFF;" vertex="1" parent="1">
          <mxGeometry x="260.2800000000001" y="920" width="155.94" height="30" as="geometry" />
        </mxCell>
        <mxCell id="7DrSCTP9Omp0nFNi4ejy-18" value="&lt;b&gt;Online Planner&lt;br&gt;&lt;/b&gt;" style="rounded=1;whiteSpace=wrap;html=1;fillColor=#C20430;strokeColor=#82b366;fontColor=#FFFFFF;opacity=60;" vertex="1" parent="1">
          <mxGeometry x="615.0300000000001" y="920" width="155.94" height="30" as="geometry" />
        </mxCell>
        <mxCell id="7DrSCTP9Omp0nFNi4ejy-19" value="&lt;font style=&quot;font-size: 36px;&quot;&gt;doc text&lt;br&gt;&lt;/font&gt;" style="text;html=1;align=center;verticalAlign=middle;resizable=0;points=[];autosize=1;strokeColor=none;fillColor=none;" vertex="1" parent="1">
          <mxGeometry x="-657.03" y="1115" width="150" height="60" as="geometry" />
        </mxCell>
        <mxCell id="7DrSCTP9Omp0nFNi4ejy-26" value="&lt;div align=&quot;center&quot;&gt;&lt;br&gt;&lt;/div&gt;" style="text;html=1;strokeColor=none;fillColor=#fdb826;align=center;verticalAlign=middle;whiteSpace=wrap;rounded=1;shadow=0;" vertex="1" parent="1">
          <mxGeometry x="235.31" y="980" width="390" height="160" as="geometry" />
        </mxCell>
        <mxCell id="7DrSCTP9Omp0nFNi4ejy-27" value="Enter taken courses (one per line)" style="text;html=1;align=center;verticalAlign=middle;resizable=0;points=[];autosize=1;strokeColor=none;fillColor=none;" vertex="1" parent="1">
          <mxGeometry x="245.31000000000003" y="987.5" width="210" height="30" as="geometry" />
        </mxCell>
        <mxCell id="7DrSCTP9Omp0nFNi4ejy-28" value="" style="whiteSpace=wrap;html=1;" vertex="1" parent="1">
          <mxGeometry x="261.64" y="1022.5" width="177.34" height="97.5" as="geometry" />
        </mxCell>
        <mxCell id="7DrSCTP9Omp0nFNi4ejy-30" value="Choose a Semester" style="text;html=1;align=center;verticalAlign=middle;resizable=0;points=[];autosize=1;strokeColor=none;fillColor=none;" vertex="1" parent="1">
          <mxGeometry x="472.65" y="987.5" width="130" height="30" as="geometry" />
        </mxCell>
        <mxCell id="7DrSCTP9Omp0nFNi4ejy-35" value="Fall" style="html=1;shadow=0;dashed=0;shape=mxgraph.bootstrap.radioButton2;labelPosition=right;verticalLabelPosition=middle;align=left;verticalAlign=middle;gradientColor=#DEDEDE;fillColor=#EDEDED;checked=1;spacing=5;checkedFill=#0085FC;checkedStroke=#ffffff;sketch=0;" vertex="1" parent="1">
          <mxGeometry x="482.93" y="1022.5" width="10" height="10" as="geometry" />
        </mxCell>
        <mxCell id="7DrSCTP9Omp0nFNi4ejy-44" value="" style="rounded=0;whiteSpace=wrap;html=1;" vertex="1" parent="1">
          <mxGeometry x="-10" y="1205" width="880" height="185" as="geometry" />
        </mxCell>
        <mxCell id="7DrSCTP9Omp0nFNi4ejy-36" value="Summer" style="html=1;shadow=0;dashed=0;shape=mxgraph.bootstrap.radioButton2;labelPosition=right;verticalLabelPosition=middle;align=left;verticalAlign=middle;gradientColor=#DEDEDE;fillColor=#EDEDED;checked=0;spacing=5;checkedFill=#0085FC;checkedStroke=#ffffff;sketch=0;" vertex="1" parent="1">
          <mxGeometry x="482.93" y="1042.5" width="10" height="10" as="geometry" />
        </mxCell>
        <mxCell id="7DrSCTP9Omp0nFNi4ejy-37" value="&lt;font color=&quot;#000000&quot;&gt;Winter&lt;/font&gt;" style="html=1;shadow=0;dashed=0;shape=mxgraph.bootstrap.radioButton2;labelPosition=right;verticalLabelPosition=middle;align=left;verticalAlign=middle;gradientColor=#DEDEDE;fillColor=#EDEDED;checked=0;spacing=5;fontColor=#6C767D;checkedFill=#0085FC;checkedStroke=#ffffff;sketch=0;" vertex="1" parent="1">
          <mxGeometry x="482.93" y="1062.5" width="10" height="10" as="geometry" />
        </mxCell>
        <mxCell id="7DrSCTP9Omp0nFNi4ejy-40" value="&lt;b&gt;Submit&lt;/b&gt;" style="rounded=1;whiteSpace=wrap;html=1;fillColor=#C20430;strokeColor=#82b366;fontColor=#FFFFFF;" vertex="1" parent="1">
          <mxGeometry x="482.93" y="1090" width="98.6" height="30" as="geometry" />
        </mxCell>
        <mxCell id="7DrSCTP9Omp0nFNi4ejy-42" value="" style="endArrow=none;html=1;rounded=0;entryX=-0.001;entryY=0.685;entryDx=0;entryDy=0;entryPerimeter=0;exitX=0.999;exitY=0.685;exitDx=0;exitDy=0;exitPerimeter=0;" edge="1" parent="1" source="7DrSCTP9Omp0nFNi4ejy-1" target="7DrSCTP9Omp0nFNi4ejy-1">
          <mxGeometry width="50" height="50" relative="1" as="geometry">
            <mxPoint x="350" y="840" as="sourcePoint" />
            <mxPoint x="350" y="770" as="targetPoint" />
          </mxGeometry>
        </mxCell>
        <mxCell id="7DrSCTP9Omp0nFNi4ejy-43" value="Available Courses For: Sem" style="text;html=1;strokeColor=none;fillColor=none;align=center;verticalAlign=middle;whiteSpace=wrap;rounded=0;fontSize=20;" vertex="1" parent="1">
          <mxGeometry x="-10" y="1175" width="280" height="30" as="geometry" />
        </mxCell>
        <mxCell id="7DrSCTP9Omp0nFNi4ejy-20" value="" style="text;html=1;strokeColor=none;fillColor=#fdb826;align=left;verticalAlign=middle;whiteSpace=wrap;rounded=1;shadow=0;" vertex="1" parent="1">
          <mxGeometry x="-7.69" y="1210" width="857.69" height="50" as="geometry" />
        </mxCell>
        <mxCell id="7DrSCTP9Omp0nFNi4ejy-23" value="&lt;b&gt;Add to plan&lt;br&gt;&lt;/b&gt;" style="rounded=1;whiteSpace=wrap;html=1;fillColor=#C20430;strokeColor=#82b366;fontColor=#FFFFFF;" vertex="1" parent="1">
          <mxGeometry x="730" y="1220" width="112.94" height="30" as="geometry" />
        </mxCell>
        <mxCell id="7DrSCTP9Omp0nFNi4ejy-24" value="Course Code" style="text;html=1;align=center;verticalAlign=middle;resizable=0;points=[];autosize=1;strokeColor=none;fillColor=none;" vertex="1" parent="1">
          <mxGeometry x="-12.999999999999998" y="1220" width="100" height="30" as="geometry" />
        </mxCell>
        <mxCell id="7DrSCTP9Omp0nFNi4ejy-25" value="Course name" style="text;html=1;align=center;verticalAlign=middle;resizable=0;points=[];autosize=1;strokeColor=none;fillColor=none;" vertex="1" parent="1">
          <mxGeometry x="374.65" y="1220" width="100" height="30" as="geometry" />
        </mxCell>
        <mxCell id="7DrSCTP9Omp0nFNi4ejy-45" value="" style="text;html=1;strokeColor=none;fillColor=#fdb826;align=left;verticalAlign=middle;whiteSpace=wrap;rounded=1;shadow=0;" vertex="1" parent="1">
          <mxGeometry x="-7.69" y="1270" width="857.69" height="50" as="geometry" />
        </mxCell>
        <mxCell id="7DrSCTP9Omp0nFNi4ejy-46" value="&lt;b&gt;Add to plan&lt;br&gt;&lt;/b&gt;" style="rounded=1;whiteSpace=wrap;html=1;fillColor=#C20430;strokeColor=#82b366;fontColor=#FFFFFF;" vertex="1" parent="1">
          <mxGeometry x="730" y="1280" width="112.94" height="30" as="geometry" />
        </mxCell>
        <mxCell id="7DrSCTP9Omp0nFNi4ejy-47" value="Course Code" style="text;html=1;align=center;verticalAlign=middle;resizable=0;points=[];autosize=1;strokeColor=none;fillColor=none;" vertex="1" parent="1">
          <mxGeometry x="-12.999999999999998" y="1280" width="100" height="30" as="geometry" />
        </mxCell>
        <mxCell id="7DrSCTP9Omp0nFNi4ejy-48" value="Course name" style="text;html=1;align=center;verticalAlign=middle;resizable=0;points=[];autosize=1;strokeColor=none;fillColor=none;" vertex="1" parent="1">
          <mxGeometry x="374.65" y="1280" width="100" height="30" as="geometry" />
        </mxCell>
        <mxCell id="7DrSCTP9Omp0nFNi4ejy-49" value="" style="text;html=1;strokeColor=none;fillColor=#fdb826;align=left;verticalAlign=middle;whiteSpace=wrap;rounded=1;shadow=0;" vertex="1" parent="1">
          <mxGeometry x="-7.690000000000001" y="1330" width="857.69" height="50" as="geometry" />
        </mxCell>
        <mxCell id="7DrSCTP9Omp0nFNi4ejy-50" value="&lt;b&gt;Add to plan&lt;br&gt;&lt;/b&gt;" style="rounded=1;whiteSpace=wrap;html=1;fillColor=#C20430;strokeColor=#82b366;fontColor=#FFFFFF;" vertex="1" parent="1">
          <mxGeometry x="730" y="1340" width="112.94" height="30" as="geometry" />
        </mxCell>
        <mxCell id="7DrSCTP9Omp0nFNi4ejy-51" value="Course Code" style="text;html=1;align=center;verticalAlign=middle;resizable=0;points=[];autosize=1;strokeColor=none;fillColor=none;" vertex="1" parent="1">
          <mxGeometry x="-12.999999999999998" y="1340" width="100" height="30" as="geometry" />
        </mxCell>
        <mxCell id="7DrSCTP9Omp0nFNi4ejy-52" value="Course name" style="text;html=1;align=center;verticalAlign=middle;resizable=0;points=[];autosize=1;strokeColor=none;fillColor=none;" vertex="1" parent="1">
          <mxGeometry x="374.65" y="1340" width="100" height="30" as="geometry" />
        </mxCell>
        <mxCell id="7DrSCTP9Omp0nFNi4ejy-54" value="&lt;div align=&quot;center&quot;&gt;Plan For: Sem&lt;br&gt;&lt;/div&gt;" style="text;html=1;strokeColor=none;fillColor=none;align=center;verticalAlign=middle;whiteSpace=wrap;rounded=0;fontSize=20;" vertex="1" parent="1">
          <mxGeometry x="-12.999999999999996" y="1420" width="170" height="30" as="geometry" />
        </mxCell>
        <mxCell id="7DrSCTP9Omp0nFNi4ejy-59" value="" style="rounded=0;whiteSpace=wrap;html=1;" vertex="1" parent="1">
          <mxGeometry x="-7" y="1460" width="880" height="185" as="geometry" />
        </mxCell>
        <mxCell id="7DrSCTP9Omp0nFNi4ejy-60" value="" style="text;html=1;strokeColor=none;fillColor=#fdb826;align=left;verticalAlign=middle;whiteSpace=wrap;rounded=1;shadow=0;" vertex="1" parent="1">
          <mxGeometry x="-4.69" y="1465" width="857.69" height="50" as="geometry" />
        </mxCell>
        <mxCell id="7DrSCTP9Omp0nFNi4ejy-61" value="&lt;b&gt;Remove&lt;br&gt;&lt;/b&gt;" style="rounded=1;whiteSpace=wrap;html=1;fillColor=#C20430;strokeColor=#82b366;fontColor=#FFFFFF;" vertex="1" parent="1">
          <mxGeometry x="733" y="1475" width="112.94" height="30" as="geometry" />
        </mxCell>
        <mxCell id="7DrSCTP9Omp0nFNi4ejy-62" value="Course Code" style="text;html=1;align=center;verticalAlign=middle;resizable=0;points=[];autosize=1;strokeColor=none;fillColor=none;" vertex="1" parent="1">
          <mxGeometry x="-9.999999999999998" y="1475" width="100" height="30" as="geometry" />
        </mxCell>
        <mxCell id="7DrSCTP9Omp0nFNi4ejy-63" value="Course name" style="text;html=1;align=center;verticalAlign=middle;resizable=0;points=[];autosize=1;strokeColor=none;fillColor=none;" vertex="1" parent="1">
          <mxGeometry x="377.65" y="1475" width="100" height="30" as="geometry" />
        </mxCell>
        <mxCell id="7DrSCTP9Omp0nFNi4ejy-64" value="" style="text;html=1;strokeColor=none;fillColor=#fdb826;align=left;verticalAlign=middle;whiteSpace=wrap;rounded=1;shadow=0;" vertex="1" parent="1">
          <mxGeometry x="-4.69" y="1525" width="857.69" height="50" as="geometry" />
        </mxCell>
        <mxCell id="7DrSCTP9Omp0nFNi4ejy-65" value="&lt;b&gt;Remove&lt;/b&gt;" style="rounded=1;whiteSpace=wrap;html=1;fillColor=#C20430;strokeColor=#82b366;fontColor=#FFFFFF;" vertex="1" parent="1">
          <mxGeometry x="733" y="1535" width="112.94" height="30" as="geometry" />
        </mxCell>
        <mxCell id="7DrSCTP9Omp0nFNi4ejy-66" value="Course Code" style="text;html=1;align=center;verticalAlign=middle;resizable=0;points=[];autosize=1;strokeColor=none;fillColor=none;" vertex="1" parent="1">
          <mxGeometry x="-9.999999999999998" y="1535" width="100" height="30" as="geometry" />
        </mxCell>
        <mxCell id="7DrSCTP9Omp0nFNi4ejy-67" value="Course name" style="text;html=1;align=center;verticalAlign=middle;resizable=0;points=[];autosize=1;strokeColor=none;fillColor=none;" vertex="1" parent="1">
          <mxGeometry x="377.65" y="1535" width="100" height="30" as="geometry" />
        </mxCell>
        <mxCell id="7DrSCTP9Omp0nFNi4ejy-68" value="" style="text;html=1;strokeColor=none;fillColor=#fdb826;align=left;verticalAlign=middle;whiteSpace=wrap;rounded=1;shadow=0;" vertex="1" parent="1">
          <mxGeometry x="-4.690000000000001" y="1585" width="857.69" height="50" as="geometry" />
        </mxCell>
        <mxCell id="7DrSCTP9Omp0nFNi4ejy-69" value="&lt;b&gt;Remove&lt;/b&gt;" style="rounded=1;whiteSpace=wrap;html=1;fillColor=#C20430;strokeColor=#82b366;fontColor=#FFFFFF;" vertex="1" parent="1">
          <mxGeometry x="733" y="1595" width="112.94" height="30" as="geometry" />
        </mxCell>
        <mxCell id="7DrSCTP9Omp0nFNi4ejy-70" value="Course Code" style="text;html=1;align=center;verticalAlign=middle;resizable=0;points=[];autosize=1;strokeColor=none;fillColor=none;" vertex="1" parent="1">
          <mxGeometry x="-9.999999999999998" y="1595" width="100" height="30" as="geometry" />
        </mxCell>
        <mxCell id="7DrSCTP9Omp0nFNi4ejy-71" value="Course name" style="text;html=1;align=center;verticalAlign=middle;resizable=0;points=[];autosize=1;strokeColor=none;fillColor=none;" vertex="1" parent="1">
          <mxGeometry x="377.65" y="1595" width="100" height="30" as="geometry" />
        </mxCell>
        <mxCell id="7DrSCTP9Omp0nFNi4ejy-72" value="&lt;b&gt;What can I take for: sem + 1?&lt;br&gt;&lt;/b&gt;" style="rounded=1;whiteSpace=wrap;html=1;fillColor=#C20430;strokeColor=#82b366;fontColor=#FFFFFF;" vertex="1" parent="1">
          <mxGeometry x="337.22999999999996" y="1670" width="186.16" height="30" as="geometry" />
        </mxCell>
        <mxCell id="7DrSCTP9Omp0nFNi4ejy-73" value="" style="rounded=0;whiteSpace=wrap;html=1;" vertex="1" parent="1">
          <mxGeometry x="-7" y="1750" width="880" height="185" as="geometry" />
        </mxCell>
        <mxCell id="7DrSCTP9Omp0nFNi4ejy-74" value="Available Courses For: Sem + 1" style="text;html=1;strokeColor=none;fillColor=none;align=center;verticalAlign=middle;whiteSpace=wrap;rounded=0;fontSize=20;" vertex="1" parent="1">
          <mxGeometry x="-7" y="1720" width="307" height="30" as="geometry" />
        </mxCell>
        <mxCell id="7DrSCTP9Omp0nFNi4ejy-75" value="" style="text;html=1;strokeColor=none;fillColor=#fdb826;align=left;verticalAlign=middle;whiteSpace=wrap;rounded=1;shadow=0;" vertex="1" parent="1">
          <mxGeometry x="-4.69" y="1755" width="857.69" height="50" as="geometry" />
        </mxCell>
        <mxCell id="7DrSCTP9Omp0nFNi4ejy-77" value="Course Code" style="text;html=1;align=center;verticalAlign=middle;resizable=0;points=[];autosize=1;strokeColor=none;fillColor=none;" vertex="1" parent="1">
          <mxGeometry x="-9.999999999999998" y="1765" width="100" height="30" as="geometry" />
        </mxCell>
        <mxCell id="7DrSCTP9Omp0nFNi4ejy-78" value="Course name" style="text;html=1;align=center;verticalAlign=middle;resizable=0;points=[];autosize=1;strokeColor=none;fillColor=none;" vertex="1" parent="1">
          <mxGeometry x="377.65" y="1765" width="100" height="30" as="geometry" />
        </mxCell>
        <mxCell id="7DrSCTP9Omp0nFNi4ejy-79" value="" style="text;html=1;strokeColor=none;fillColor=#fdb826;align=left;verticalAlign=middle;whiteSpace=wrap;rounded=1;shadow=0;" vertex="1" parent="1">
          <mxGeometry x="-4.69" y="1815" width="857.69" height="50" as="geometry" />
        </mxCell>
        <mxCell id="7DrSCTP9Omp0nFNi4ejy-81" value="Course Code" style="text;html=1;align=center;verticalAlign=middle;resizable=0;points=[];autosize=1;strokeColor=none;fillColor=none;" vertex="1" parent="1">
          <mxGeometry x="-9.999999999999998" y="1825" width="100" height="30" as="geometry" />
        </mxCell>
        <mxCell id="7DrSCTP9Omp0nFNi4ejy-82" value="Course name" style="text;html=1;align=center;verticalAlign=middle;resizable=0;points=[];autosize=1;strokeColor=none;fillColor=none;" vertex="1" parent="1">
          <mxGeometry x="377.65" y="1825" width="100" height="30" as="geometry" />
        </mxCell>
        <mxCell id="7DrSCTP9Omp0nFNi4ejy-83" value="" style="text;html=1;strokeColor=none;fillColor=#fdb826;align=left;verticalAlign=middle;whiteSpace=wrap;rounded=1;shadow=0;" vertex="1" parent="1">
          <mxGeometry x="-4.690000000000001" y="1875" width="857.69" height="50" as="geometry" />
        </mxCell>
        <mxCell id="7DrSCTP9Omp0nFNi4ejy-85" value="Course Code" style="text;html=1;align=center;verticalAlign=middle;resizable=0;points=[];autosize=1;strokeColor=none;fillColor=none;" vertex="1" parent="1">
          <mxGeometry x="-9.999999999999998" y="1885" width="100" height="30" as="geometry" />
        </mxCell>
        <mxCell id="7DrSCTP9Omp0nFNi4ejy-86" value="Course name" style="text;html=1;align=center;verticalAlign=middle;resizable=0;points=[];autosize=1;strokeColor=none;fillColor=none;" vertex="1" parent="1">
          <mxGeometry x="377.65" y="1885" width="100" height="30" as="geometry" />
        </mxCell>
        <mxCell id="7DrSCTP9Omp0nFNi4ejy-87" value="" style="endArrow=none;html=1;rounded=0;" edge="1" parent="1">
          <mxGeometry width="50" height="50" relative="1" as="geometry">
            <mxPoint x="910" y="1710" as="sourcePoint" />
            <mxPoint x="-50" y="1710" as="targetPoint" />
          </mxGeometry>
        </mxCell>
      </root>
    </mxGraphModel>
  </diagram>
</mxfile>
